SplineFontDB: 3.2
FontName: Barcamp-Thirteen
FullName: Barcamp Thirteen
FamilyName: Barcamp-Thirteen
Weight: Regular
Copyright: this font has no licence, you may use and modify it freely
UComments: "2024-11-23: Created with FontForge (http://fontforge.org)"
Version: 1.0.0
ItalicAngle: 0
UnderlinePosition: -100
UnderlineWidth: 50
Ascent: 800
Descent: 200
InvalidEm: 0
LayerCount: 2
Layer: 0 0 "Back" 1
Layer: 1 0 "Fore" 0
XUID: [1021 45 -842520109 1402765]
FSType: 0
OS2Version: 0
OS2_WeightWidthSlopeOnly: 0
OS2_UseTypoMetrics: 1
CreationTime: 1732380451
ModificationTime: 1732582192
PfmFamily: 17
TTFWeight: 400
TTFWidth: 5
LineGap: 90
VLineGap: 0
OS2TypoAscent: 0
OS2TypoAOffset: 1
OS2TypoDescent: 0
OS2TypoDOffset: 1
OS2TypoLinegap: 90
OS2WinAscent: 0
OS2WinAOffset: 1
OS2WinDescent: 0
OS2WinDOffset: 1
HheadAscent: 0
HheadAOffset: 1
HheadDescent: 0
HheadDOffset: 1
OS2Vendor: 'PfEd'
MarkAttachClasses: 1
DEI: 91125
LangName: 1033
Encoding: Custom
UnicodeInterp: none
NameList: AGL For New Fonts
DisplaySize: -48
AntiAlias: 1
FitToEm: 0
WinInfo: 88 22 8
BeginPrivate: 0
EndPrivate
Grid
-23 128 m 25
 217 138 l 1053
-109 481 m 25
 563 481 l 1049
EndSplineSet
BeginChars: 258 69

StartChar: T
Encoding: 84 84 0
Width: 958
Flags: HW
LayerCount: 2
Back
Fore
SplineSet
69.6572265625 409.08203125 m 1
 68.0255329212 411.961730838 66.3940199159 414.841611062 64.7626953125 417.721679688 c 1
 36.830078125 417.721679688 l 2
 5.4423828125 417.721679688 7.0263671875 417.1171875 7.0263671875 429.095703125 c 0
 7.0263671875 432.838867188 6.25390625 436.634765625 5.298828125 437.590820312 c 0
 0.282734451984 442.603236497 7.10269712629 764.571545996 -1.958984375 779.111328125 c 0
 -4.45560504906 783.117762883 -13.0321663064 779.952851993 -15.474609375 784.7265625 c 0
 -19.5849609375 792.764648438 -10.68359375 797.786132812 3.138671875 795.2265625 c 0
 16.2448972029 792.799387642 66.5539141138 789.979452012 84.775390625 786.754882812 c 0
 103.061523438 783.520507812 169.2421875 784.498046875 173.611328125 788.067382812 c 0
 176.679341282 790.573521467 232.324243981 784.523167801 239.337890625 790.4140625 c 0
 240.393554688 791.299804688 242.866210938 791.462890625 245.313476562 790.807617188 c 0
 249.905273438 789.579101562 271.662109375 792.376953125 277.565429688 794.955078125 c 0
 287.445031195 799.27255051 360.274705493 793.783744052 380.655273438 792.93359375 c 1
 381.575058864 797.763403251 383.114454603 807.7900224 385.694335938 809.39453125 c 0
 388.717773438 811.2734375 397.805664062 811.05859375 399.8046875 809.059570312 c 0
 400.73828125 808.125976562 401.532226562 804.883789062 401.532226562 802.004882812 c 0
 401.532226562 794.744140625 404.555664062 792.069335938 412.762695312 792.069335938 c 0
 417.679404977 792.069335938 434.647460938 788.727157763 434.647460938 793.221679688 c 0
 434.647460938 796.717773438 438.53515625 799.268554688 443.862304688 799.268554688 c 0
 446.669921875 799.268554688 448.505859375 797.829101562 451.205078125 793.509765625 c 0
 456.012348686 785.81895425 462.341808154 788.729898204 472.08203125 787.102539062 c 0
 476.656928328 786.339426585 502.47592801 784.506437193 507.4296875 784.079101562 c 0
 517.193058986 783.235568574 512.479616026 792.398442766 519.883789062 793.221679688 c 0
 524.846562984 793.772440994 526.804411774 787.250972134 528.954101562 782.7109375 c 1
 549.111328125 781.559570312 l 2
 559.469107906 780.967436904 666.417495028 780.74439652 668.234375 784.006835938 c 0
 669.888671875 786.9765625 682.149414062 787.026367188 686.325195312 784.081054688 c 0
 688.682617188 782.418945312 694.244140625 781.736328125 708.06640625 781.415039062 c 0
 721.751999662 781.097347125 729.238049108 777.937621054 730.3828125 782.7109375 c 0
 731.17578125 786.013671875 731.89453125 786.310546875 739.09375 786.310546875 c 0
 745.28515625 786.310546875 747.366210938 785.703125 748.956054688 783.430664062 c 0
 750.76953125 780.840820312 753.131835938 780.471679688 772.424804688 779.759765625 c 0
 784.613921896 779.309401424 871.463638525 778.890724742 875.2265625 775.482421875 c 0
 878.106445312 772.875976562 879.206054688 766.797851562 876.955078125 765.931640625 c 0
 874.421571005 764.957992277 879.211741447 693.751139385 876.739257812 681.493164062 c 0
 876.22775331 678.958192852 872.242860982 522.712633123 871.627929688 517.787109375 c 0
 871.367864975 515.711075552 869.745973074 416.335639998 868.603515625 414.625976562 c 0
 864.3244404 408.197769386 844.082707902 421.44112771 847.094726562 409.514648438 c 0
 849.300497866 400.781427982 840.199948112 401.495873373 838.385742188 395.692382812 c 0
 836.543945312 389.797851562 831.45703125 388.840820312 821.090820312 392.440429688 c 0
 815.420898438 394.409179688 813.747070312 394.258789062 794.310546875 390.03125 c 0
 771.993164062 385.177734375 746.268554688 383.458984375 736.4296875 386.1640625 c 0
 732.54296875 387.233398438 730.557617188 387.182617188 729.086914062 385.977539062 c 0
 720.860550085 379.233532484 700.324096395 395.108849293 698.391601562 402.891601562 c 0
 696.0234375 412.419921875 697.30078125 502.669921875 700.046875 519.947265625 c 0
 701.3671875 528.248046875 703.120117188 552.918945312 703.934570312 574.659179688 c 0
 706.146988051 633.67774202 706.943342957 613.548329596 681.645507812 615.333984375 c 0
 674.87890625 615.8125 674.40234375 615.616210938 672.21484375 611.446289062 c 0
 666.896210826 601.305734623 654.60566387 613.327905215 650.76171875 617.709960938 c 1
 629.092773438 616.845703125 l 2
 601.980872057 615.765322902 580.83759988 618.621686117 557.247070312 620.805664062 c 0
 548.3203125 621.630859375 537.5078125 623.19921875 533.41796875 624.260742188 c 0
 529.2421875 625.344726562 524.211914062 625.889648438 522.043945312 625.4921875 c 0
 517.501953125 624.659179688 517.234375 623.46875 515.993164062 598.560546875 c 0
 514.891787716 576.462622703 513.5969047 573.932923717 510.165039062 555.22265625 c 2
 507.7890625 542.263671875 l 1
 510.311437076 537.534465039 518.659958331 525.496442279 512.396484375 523.568359375 c 0
 510.813476562 523.081054688 509.606445312 521.581054688 509.715820312 520.235351562 c 0
 510.547851562 509.977539062 507.501953125 508.334960938 497.134765625 513.450195312 c 0
 489.171875 517.37890625 488.064453125 517.491210938 459.84375 517.228515625 c 0
 450.221280436 517.138521305 423.12890625 519.599320677 423.12890625 514.33203125 c 0
 423.12890625 508.445561549 434.647460938 511.499953304 434.647460938 503.1015625 c 0
 434.647460938 499.936294324 441.442836766 487.244161967 445.2265625 492.735351562 c 0
 451.580586786 501.954916213 457.274682459 485.617158156 462.291992188 485.45703125 c 0
 469.676200009 485.219388517 464.425593362 473.120000166 468.626953125 469.448242188 c 0
 472.514648438 466.049804688 490.461914062 453.715820312 491.51953125 453.715820312 c 0
 491.995117188 453.715820312 497.56640625 450.39453125 503.90234375 446.333984375 c 0
 516.428710938 438.305664062 529.674804688 424.709960938 529.674804688 419.880859375 c 0
 529.674804688 413.375868835 539.752929688 402.976177456 539.752929688 398.139648438 c 0
 539.752929688 397.110351562 538.45703125 395.360351562 536.873046875 394.250976562 c 0
 528.99609375 388.732421875 496.463867188 351.490234375 485.055664062 334.932617188 c 0
 469.98853694 313.0647804 468.947861654 310.88274629 450.916992188 298.797851562 c 0
 437.52734375 289.821289062 437.0078125 289.250976562 438.32421875 284.971679688 c 0
 439.244140625 281.982421875 439.54296875 281.959960938 464.739257812 283.051757812 c 0
 508.077148438 284.928710938 516.244140625 284.1171875 519.288085938 277.62890625 c 0
 520.954101562 274.077148438 520.848632812 272.876953125 518.401367188 267.549804688 c 0
 513.895507812 257.744140625 513.807617188 257.18359375 511.600585938 224.211914062 c 0
 509.557617188 193.6875 509.776367188 183.956054688 512.541015625 182.2421875 c 0
 514.579101562 180.979492188 513.98046875 176.1484375 511.676757812 175.264648438 c 0
 509.215820312 174.319335938 508.697265625 165.612304688 510.861328125 161.580078125 c 0
 512.174804688 159.133789062 516.428710938 159.022460938 586.834960938 159.59765625 c 0
 670.630859375 160.28125 671.077148438 160.294921875 673.798828125 162.357421875 c 0
 674.993164062 163.26171875 679.7734375 163.620117188 685.533203125 163.236328125 c 0
 697.426080289 162.442689019 698.43517518 158.941840404 704.178710938 152.365234375 c 1
 703.2421875 139.263671875 l 2
 702.448552431 128.146802491 696.536429944 103.589928917 699.571289062 94.4853515625 c 0
 700.770507812 90.8857421875 700.836914062 88.7744140625 699.787109375 87.57421875 c 0
 697.127820656 84.5359192554 696.068195815 33.2023800008 695.189453125 28.974609375 c 0
 693.274414062 19.759765625 694.961914062 12.587890625 698.70703125 14.0234375 c 0
 703.74609375 15.9541015625 715.150390625 2.2236328125 711.521484375 -1.4052734375 c 0
 709.330078125 -3.5966796875 693.66796875 -3.6513671875 660.696289062 -1.5830078125 c 0
 645.255859375 -0.6142578125 594.681640625 0.826171875 548.3203125 1.6181640625 c 0
 465.819335938 3.02734375 463.40625 2.990234375 435.295898438 -0.109375 c 0
 388.120498427 -5.31213496813 378.288481807 -2.921914848 319.462890625 -2.3408203125 c 0
 258.084115067 -1.73632480196 221.819376068 8.42582968521 152.58984375 1.7509765625 c 0
 134.161132812 -0.0263671875 133.12890625 0.015625 129.553710938 2.681640625 c 0
 124.801757812 6.22265625 123.666015625 11.697265625 127.681640625 11.697265625 c 0
 131.810274549 11.697265625 135.168945312 92.4654679948 135.168945312 99.2373046875 c 0
 135.168945312 103.702148438 136.838867188 115.650390625 138.912109375 126.017578125 c 0
 142.310546875 143.006835938 142.482421875 145.452148438 140.784179688 152.509765625 c 0
 137.513064594 166.095489833 144.569973452 165.93666707 157.7734375 161.50390625 c 0
 162.380859375 159.95703125 175.483398438 157.651367188 187.001953125 156.360351562 c 0
 205.955078125 154.235351562 233.36328125 154.106445312 282.028320312 155.915039062 c 0
 292.170996894 156.29191233 308.736328125 153.157226562 308.736328125 153.157226562 c 2
 309.171875 153.592773438 309.463867188 170.939453125 309.384765625 191.671875 c 0
 309.263671875 223.4921875 308.889648438 229.935546875 306.995117188 232.850585938 c 0
 304.063476562 237.360351562 305.497070312 242.611328125 310.249023438 244.765625 c 0
 314.08203125 246.50390625 314.124023438 246.672851562 313.258789062 256.895507812 c 0
 312.234375 268.989257812 313.131835938 273.741210938 316.439453125 273.741210938 c 0
 317.6875 273.741210938 320.24609375 275.325195312 322.021484375 277.196289062 c 0
 325.793945312 281.171875 335.588867188 283.370117188 342.068359375 281.694335938 c 0
 344.28125 281.122070312 361.361328125 280.716796875 379.934570312 280.795898438 c 0
 409.306640625 280.920898438 413.994140625 281.244140625 415.462890625 283.244140625 c 0
 419.827838853 289.184353425 405.755764996 295.802583699 401.028320312 300.737304688 c 0
 390.39117936 311.842075717 375.379582786 319.548565944 361.649414062 329.60546875 c 2
 349.267578125 338.67578125 l 1
 341.739847583 330.569397334 334.850010832 332.752159499 331.479492188 346.01953125 c 0
 329.051307167 355.586804025 326.480266971 354.659968304 320.975585938 360.2734375 c 0
 315.491305352 365.863341267 313.375011251 364.211881862 308.736328125 371.575195312 c 0
 305.8359375 376.182617188 304.173828125 377.407226562 300.818359375 377.407226562 c 0
 295.602988759 377.407226562 283.314999524 383.852098695 288.939453125 387.249023438 c 0
 289.803710938 387.770507812 292.224609375 390.724609375 294.266601562 393.748046875 c 0
 300.641641159 403.190751885 313.960113308 418.142423119 321.55078125 427.727539062 c 0
 325.427734375 432.623046875 332.223632812 439.350585938 336.453125 442.481445312 c 0
 344.600585938 448.51171875 354.963867188 458.611328125 382.55078125 487.407226562 c 0
 400.069335938 505.693359375 401.848632812 509.551757812 395.62890625 515.771484375 c 0
 391.002491575 520.39789905 347.740738487 516.928173911 337.172851562 516.204101562 c 0
 325.654296875 515.413085938 321.958984375 515.634765625 320.0390625 517.229492188 c 0
 316.490234375 520.1796875 312.264648438 530.889648438 312.264648438 536.936523438 c 0
 312.264648438 541.682617188 311.400390625 542.93359375 304.345703125 548.404296875 c 0
 295.5625 555.213867188 294.264648438 559.352539062 299.450195312 564.01953125 c 0
 302.219726562 566.51171875 302.431640625 568.036132812 301.969726562 582.146484375 c 0
 301.69140625 590.641601562 301.91796875 598.004882812 302.473632812 598.560546875 c 0
 304.249023438 600.3359375 303.76953125 618.573242188 301.897460938 620.4453125 c 0
 299.49609375 622.84765625 295.111328125 622.60546875 294.083007812 620.013671875 c 0
 291.776078916 614.206647052 282.503904763 623.969683695 279.004882812 619.797851562 c 0
 277.006558851 617.415785709 269.688792572 619.88438021 268.28515625 617.709960938 c 0
 266.919921875 615.592773438 263.311523438 616.145507812 256.255859375 619.551757812 c 0
 243.396604364 625.759755762 173.5330132 625.54407264 171.928710938 623.325195312 c 0
 168.174804688 618.131835938 165.30078125 596.833007812 162.934570312 556.662109375 c 0
 159.978613531 506.464969699 166.396037462 515.131392159 168.079101562 475.168945312 c 0
 169.081054688 451.412109375 169.625 449.599609375 176.779296875 446.158203125 c 0
 179.370117188 444.911132812 180.522460938 443.272460938 180.522460938 440.830078125 c 0
 180.522460938 436.676244698 164.361666565 430.6796875 159.93359375 430.6796875 c 0
 155.950195312 430.6796875 155.422851562 430.17578125 155.038085938 426 c 0
 154.662109375 421.930664062 153.526367188 420.756835938 146.327148438 417.000976562 c 0
 138.551757812 412.944335938 138.047851562 412.366210938 138.047851562 407.499023438 c 0
 138.047851562 394.411544787 121.598019386 399.890996661 119.047851562 406.922851562 c 0
 115.399158768 416.990134091 101.497726865 410.744278369 86.2158203125 409.946289062 c 2
 69.6572265625 409.08203125 l 1
EndSplineSet
Validated: 524321
EndChar

StartChar: F
Encoding: 70 70 1
Width: 752
Flags: HW
LayerCount: 2
Back
Fore
SplineSet
635.673828125 632.642578125 m 0
 635.673828125 630.912406106 630.892533105 622.777231786 629.534179688 620.233398438 c 1
 610.950960458 621.095281096 552.560038758 621.580152864 532.479492188 623.190429688 c 0
 506.05859375 625.311523438 471.739257812 625.1328125 437.123046875 622.6953125 c 0
 403.32964501 620.315552861 358.77520914 623.718255763 330.794921875 620.985351562 c 0
 328.381337176 620.750772825 329.586025357 614.356374858 326.745117188 611.743164062 c 0
 324.916992188 610.060546875 323.479492188 607.991210938 323.479492188 607.040039062 c 0
 323.479492188 606.125976562 322.696289062 604.872070312 321.78125 604.323242188 c 0
 314.631551583 600.033423138 312.462342632 564.923273253 310.55078125 554.006835938 c 0
 307.802202208 538.29384313 286.904296875 500.966760108 286.904296875 488.825195312 c 0
 286.904296875 481.467773438 290.823242188 480.23046875 319.560546875 478.512695312 c 0
 354.445344359 476.428914167 364.73822708 473.624869489 402.704101562 472.626953125 c 0
 442.539542692 471.582197593 478.964759708 465.539313432 519.416992188 470.793945312 c 0
 531.797666894 472.400853307 540.183780286 478.722468953 549.591796875 475.0234375 c 0
 565.397460938 468.810546875 565.8984375 453.760742188 550.505859375 447.5859375 c 0
 543.1953125 444.65234375 540.081054688 436.966796875 539.482421875 420.376953125 c 0
 538.937394196 405.288558961 539.729891933 395.666579629 552.073242188 395.408203125 c 0
 563.4375 395.169921875 563.622070312 395.110351562 568.258789062 390.203125 c 0
 580.265391476 377.495939541 570.99509081 380.636832975 572.58203125 367.80078125 c 0
 573.178710938 362.967773438 572.884765625 362.250976562 569.185546875 359.505859375 c 0
 563.320419956 355.154816174 449.909415783 355.186415228 432.551757812 354.084960938 c 0
 377.759861454 350.607474416 365.010013731 352.137474907 296.701171875 359.790039062 c 0
 281.157226562 361.53125 251.990234375 361.423828125 247.586914062 359.608398438 c 0
 238.252025202 355.761382547 235.079800714 319.059867689 234.245117188 302.814453125 c 0
 232.2534742 263.995908692 228.123046875 241.593455309 228.123046875 217.908203125 c 0
 228.123046875 204.018554688 219.129882812 162.262695312 209.1328125 129.736328125 c 0
 202.993164062 109.76171875 199.404296875 88.8515625 197.360351562 61.158203125 c 0
 196.2421875 46.005859375 194.6640625 28.640625 193.833984375 22.36328125 c 0
 192.504882812 12.3046875 192.576171875 10.728515625 194.454101562 8.6474609375 c 0
 197.047851562 5.7734375 197.284179688 -4.177734375 194.814453125 -6.515625 c 0
 188.15234375 -12.82421875 181.712890625 -14.4306640625 175.743164062 -11.2734375 c 0
 172.932617188 -9.787109375 140.08203125 -5.2705078125 119.705078125 -3.5693359375 c 0
 92.2404854093 -1.27616160326 39.7269983455 11.5946161612 5.408203125 10.794921875 c 0
 -7.916015625 10.4833984375 -19.4111328125 14.3291015625 -19.4111328125 19.09765625 c 0
 -19.4111328125 20.2734375 -20.0966796875 21.873046875 -20.978515625 22.7548828125 c 0
 -24.798828125 26.5751953125 -22.2841796875 32.822265625 -15.23046875 37.0341796875 c 0
 3.28403798573 48.0887978881 27.9905698887 82.7800418227 34.923828125 101.65234375 c 0
 49.7305930528 141.971319932 71.7214851728 202.188525144 82.671875 245.6015625 c 0
 85.703125 257.618164062 86.1005859375 260.774414062 84.8095703125 262.58203125 c 0
 80.0576171875 269.234375 80.1650390625 270.419921875 87.5654296875 292.887695312 c 0
 98.021484375 324.62890625 98.021484375 324.62890625 104.124023438 377.271484375 c 0
 109.054477172 419.774895831 122.529148306 471.219250451 126.888671875 511.162109375 c 0
 130.83491725 547.318249428 138.478978952 599.161455541 141.055664062 648.970703125 c 0
 141.217773438 652.106445312 140.68359375 652.970703125 138.383789062 653.295898438 c 0
 134.872070312 653.791015625 129.811523438 660.596679688 129.555664062 665.168945312 c 0
 129.100232223 673.3236855 131.224944651 676.209990065 138.188476562 675.814453125 c 0
 141.470703125 675.62890625 141.700195312 676.010742188 142.629882812 683.1953125 c 0
 143.630910902 690.942871675 143.11032431 695.364205785 145.69921875 700.306640625 c 0
 146.520507812 701.874023438 147.135742188 704.001953125 147.135742188 705.270507812 c 0
 147.135742188 706.446289062 147.939453125 708.474609375 148.84375 709.581054688 c 0
 154.814646842 716.891319879 153.318417651 738.567581342 158.04296875 749.16015625 c 0
 160.235435065 754.074678846 163.156089544 771.371399515 159.153320312 775.092773438 c 0
 150.847138932 782.817583969 165.423828125 780.566422502 165.423828125 785.212890625 c 0
 165.423828125 787.389648438 172.607421875 789.706054688 186.9765625 792.162109375 c 0
 208.658749728 795.868916072 308.894585738 792.046670701 320.8671875 791.418945312 c 0
 348.415230334 789.971481662 376.330229628 789.460225299 405.120117188 785.278320312 c 0
 435.803954041 780.820897764 457.852128252 779.301201356 491.724609375 783.618164062 c 0
 494.076171875 783.91796875 497.66796875 783.306640625 499.627929688 782.274414062 c 0
 502.543945312 780.736328125 513.278320312 780.323242188 556.645507812 780.081054688 c 0
 624.178710938 779.704101562 644.703125 780.434570312 648.866210938 783.361328125 c 0
 650.545898438 784.541992188 653.830078125 785.474609375 656.3125 785.474609375 c 0
 662.399414062 785.474609375 671.76171875 775.546875 672.450195312 768.362304688 c 0
 673.052734375 762.065429688 669.897460938 759.3828125 652.001953125 750.9765625 c 0
 629.272460938 740.299804688 627.45703125 739.244140625 621.469726562 733.224609375 c 0
 616.271484375 727.999023438 603.109375 709.431640625 603.041015625 707.229492188 c 0
 603.028320312 706.796875 602.272460938 701.482421875 601.3515625 695.342773438 c 0
 598.62977128 677.195063499 602.085180673 657.920547575 615.818359375 651.326171875 c 0
 623.39453125 647.686523438 635.673828125 636.131835938 635.673828125 632.642578125 c 0
307.8046875 723.950195312 m 0
 307.8046875 724.768554688 303.625 724.928710938 299.052734375 724.284179688 c 0
 296.571289062 723.934570312 294.5390625 720.162109375 296.83203125 720.162109375 c 0
 298.791992188 720.162109375 307.8046875 723.2734375 307.8046875 723.950195312 c 0
170.6484375 17.3994140625 m 0
 170.6484375 24.0281660963 159.027154216 14.787109375 167.3828125 14.787109375 c 0
 169.734375 14.787109375 170.6484375 15.5185546875 170.6484375 17.3994140625 c 0
EndSplineSet
Validated: 524321
EndChar

StartChar: U
Encoding: 85 85 2
Width: 662
Flags: HW
LayerCount: 2
Fore
SplineSet
9 785 m 1
 165 782 l 1
 166 730 169 675 193 620 c 1
 190 424 235 233 328 232 c 0
 362 231 416 499 413 781 c 1
 582 784 l 1
 576 377 l 2
 575 284 483 8 373 9 c 2
 267 11 l 2
 120 14 16 302 15 425 c 2
 9 785 l 1
EndSplineSet
Validated: 33
EndChar

StartChar: B
Encoding: 66 66 3
Width: 552
Flags: HW
LayerCount: 2
Back
Fore
SplineSet
140.213867188 340.231445312 m 1
 130.45606623 345.660560497 116.478358374 354.781404595 123.838867188 366.076171875 c 0
 126.198242188 369.697265625 126.111328125 370.567382812 122.984375 374.599609375 c 0
 119.8984375 378.578125 119.57421875 381.473632812 120.142578125 399.986328125 c 0
 120.626953125 415.75 120.123046875 422.232421875 118.091796875 426.380859375 c 0
 107.699648101 447.609670501 126.835964894 444.563049535 154.877929688 444.880859375 c 0
 184.388671875 445.215820312 215.63671875 447.790039062 231.862304688 451.224609375 c 0
 244.604298098 453.920563107 274.015625345 453.090090869 287.951171875 455.067382812 c 0
 310.864972145 458.318503165 328.141903491 454.710799048 354.213867188 457.266601562 c 0
 367.08984375 458.529296875 388.490234375 459.393554688 401.87109375 459.19140625 c 0
 426.06640625 458.826171875 426.203125 458.799804688 438.255859375 452.119140625 c 0
 453.286132812 443.788085938 457.350585938 437.048828125 454.6640625 424.915039062 c 0
 453.690429688 420.515625 453.3125 415.088867188 453.80859375 412.633789062 c 0
 456.328125 400.166015625 461.581054688 280.659179688 462.782226562 208.440429688 c 0
 463.801757812 147.21875 465.498046875 119.442382812 470.262695312 85.998046875 c 0
 472.92578125 67.3017578125 472.8984375 65.8251953125 469.782226562 59.419921875 c 0
 465.786143949 51.2045362618 458.797303392 50.7265288537 455.018554688 43.47265625 c 0
 451.450195312 36.6259765625 445.954101562 35.224609375 422.674804688 35.224609375 c 0
 392.013620871 35.224609375 408.258484878 30.7103817509 377.950195312 31.0400390625 c 0
 351.564163463 31.3277777894 250.671753228 24.6581001441 202.53515625 22.3935546875 c 0
 164.795480525 20.6182242153 172.271666842 18.1775294999 141.680664062 15.0615234375 c 0
 123.136022439 13.1725622897 93.7524892228 4.55597093014 77.1591796875 6.5380859375 c 0
 54.5792994626 9.23785422526 50.8559594392 4.77652949741 35.55078125 16.5068359375 c 0
 28.76953125 21.7041015625 22.0009765625 26.0595703125 20.7041015625 26.0595703125 c 0
 19.3935546875 26.0595703125 16.6533203125 29.3583984375 14.6162109375 33.3916015625 c 0
 10.76953125 41.0029296875 11.2080078125 46.955078125 16.64453125 60.8857421875 c 0
 18.0947265625 64.6025390625 17.4755859375 68.859375 13.830078125 80.2236328125 c 2
 9.15625 94.7958984375 l 1
 15.7828470533 100.962546694 20.1513444827 107.455743242 30.876953125 105.610351562 c 0
 39.6402479167 104.103711331 51.8082942982 106.242173677 57.638671875 102.403320312 c 0
 64.2558393473 98.0422859663 71.7012790437 102.06790135 79.6337890625 97.63671875 c 0
 87.5291855427 93.2279334483 119.184760527 93.6654786745 130.1328125 96.7646484375 c 0
 167.219726562 107.266601562 179.623046875 108.990234375 221.78125 109.505859375 c 0
 252.94140625 109.88671875 265.711914062 110.749023438 274.021484375 113.034179688 c 0
 289.564305285 117.308654807 310.438203948 114.280616712 327.177734375 116.791992188 c 1
 327.64453125 127.7890625 l 2
 330.048955159 184.433135449 335.301764232 199.099653621 329.891601562 262.512695312 c 0
 329.428980598 267.938394757 327.34418097 343.14609605 326.260742188 343.2578125 c 0
 315.674928274 344.334630322 266.521864328 342.486063865 252.94140625 342.98046875 c 0
 247.397460938 343.182617188 219.764648438 342.646484375 191.537109375 341.7890625 c 2
 140.213867188 340.231445312 l 1
242.860351562 792.12890625 m 0
 267.055664062 797.19921875 334.291015625 791.376953125 353.388671875 782.557617188 c 0
 356.504882812 781.118164062 358.170898438 781.379882812 360.720703125 783.70703125 c 0
 365.686523438 788.2421875 378.317382812 787.3359375 387.665039062 781.775390625 c 0
 391.137695312 779.7109375 391.342773438 777.579101562 391.5390625 741.469726562 c 0
 391.864257812 681.713867188 394.349609375 598.04296875 396.129882812 586.94921875 c 0
 397.551305848 578.081048486 396.051871023 544.134366316 399.671875 537.3671875 c 0
 400.842773438 535.178710938 401.901367188 527.561523438 402.0546875 520.229492188 c 0
 402.317382812 507.58203125 402.611328125 506.752929688 409.111328125 500.326171875 c 0
 416.625976562 492.895507812 416.704101562 489.067382812 409.477539062 482.232421875 c 0
 405.59375 478.557617188 402.237304688 477.899414062 380.791992188 476.604492188 c 0
 367.411132812 475.796875 353.006835938 474.315429688 348.71484375 473.3046875 c 0
 339.72890042 471.190512177 322.44879764 478.803710938 314.346679688 478.803710938 c 0
 307.859375 478.803710938 294.05078125 488.885742188 291.248046875 495.666992188 c 0
 288.148182515 503.168584556 291.984375 527.284485277 291.984375 536.54296875 c 0
 291.984375 552.322780303 293.56506509 627.347011483 288.491210938 645.604492188 c 0
 285.584507815 656.067795309 288.581373296 680.636838995 284.372070312 687.396484375 c 0
 283.315429688 689.09375 281.536132812 688.9921875 276.586914062 686.954101562 c 0
 269.98828125 684.237304688 255.848632812 684.854492188 251.841796875 688.034179688 c 0
 246.377894451 692.36603505 128.556234946 683.968408228 121.158203125 692.162109375 c 0
 115.087890625 698.88671875 113.203125 704.443359375 114.442382812 711.958007812 c 0
 115.137695312 716.173828125 114.797851562 720.302734375 113.641601562 721.672851562 c 0
 110.975184619 724.832259372 114.649615319 752.263302699 111.091796875 759.432617188 c 0
 107.272460938 767.130859375 107.153320312 777.579101562 110.88671875 777.579101562 c 0
 112.352539062 777.579101562 113.635742188 778.391601562 113.635742188 779.3203125 c 0
 113.635742188 780.306640625 116.018554688 782.309570312 119.134765625 783.942382812 c 0
 124.787109375 786.90234375 130.315429688 787.272460938 203.451171875 789.581054688 c 0
 221.047851562 790.135742188 238.838867188 791.286132812 242.860351562 792.12890625 c 0
-0.9462890625 768.4140625 m 0
 -17.8488704988 798.345326298 35.1503929211 792.120047014 65.1533203125 791.692382812 c 2
 90.9072265625 791.326171875 l 1
 96.4801964431 786.894412286 106.580915914 780.719994876 104.58984375 774.279296875 c 0
 99.052734375 756.381835938 98.6064453125 749.16796875 101.108398438 718.006835938 c 0
 103.584960938 687.16796875 103.798828125 651.103515625 102.075195312 554.872070312 c 0
 101.216796875 506.973632812 102.09765625 478.803710938 106.2578125 421.065429688 c 0
 110.919921875 356.361328125 111.874023438 342.602539062 113.569335938 315.668945312 c 0
 117.331054688 255.9140625 117.922851562 242.913085938 117.323242188 233.185546875 c 0
 116.055664062 212.629882812 119.022460938 168.481445312 123.13671875 146.668945312 c 0
 126.974578914 126.327330164 113.653211518 125.845984827 99.705078125 119.329101562 c 0
 91.7314453125 115.602539062 82.1083984375 114.961914062 71.4775390625 117.448242188 c 0
 66.3447265625 118.6484375 64.0234375 118.299804688 61.029296875 115.880859375 c 0
 52.619140625 109.0859375 21.0703125 110.060546875 12.2724609375 117.385742188 c 0
 5.8076171875 122.768554688 3.134765625 163.532226562 8.4169921875 176.1796875 c 0
 10.7939453125 181.87109375 10.9833984375 190.84375 9.7978515625 241.43359375 c 0
 9.0419921875 273.694335938 8.4326171875 302.975585938 8.4453125 306.504882812 c 0
 8.501953125 323.000976562 11.3779296875 365.015625 12.8994140625 371.575195312 c 0
 15.109375 381.106445312 15.1162109375 422.9765625 12.9091796875 431.146484375 c 0
 6.70874730355 454.097289503 7.9298922145 516.706399359 11.1728515625 550.290039062 c 0
 14.2900087132 582.575480318 12.2881044762 589.226990044 9.15625 616.27734375 c 0
 7.00750830028 634.840347948 6.45813603585 714.613486183 3.7490234375 732.670898438 c 0
 1.8907709302 745.059248486 3.72200252406 760.147034003 -0.9462890625 768.4140625 c 0
EndSplineSet
Validated: 524321
EndChar

StartChar: A
Encoding: 65 65 4
Width: 1053
Flags: HW
LayerCount: 2
Back
Fore
SplineSet
606.885742188 781.60546875 m 0
 628.37109375 789.728515625 634.24609375 789.545898438 637.9375 780.641601562 c 0
 641.297851562 772.5390625 642.93359375 772.268554688 666.567382812 775.91796875 c 0
 694.499023438 780.229492188 717.559570312 783.211914062 732.456054688 784.4375 c 0
 746.780273438 785.616210938 747.41796875 785.431640625 752.225585938 778.732421875 c 0
 759.420898438 768.706054688 758.596679688 762.791992188 748.928710938 755.079101562 c 0
 744.392578125 751.4609375 740.573242188 747.486328125 740.573242188 746.384765625 c 0
 740.573242188 737.893992819 848.65199421 771.177955494 839.763671875 730.8671875 c 0
 838.510742188 725.1796875 835.825195312 722.838867188 825.798828125 718.696289062 c 0
 811.78515625 712.90625 775.904296875 702.875 752.509765625 698.20703125 c 0
 731.262695312 693.967773438 692.208984375 682.87890625 689.485351562 680.3125 c 0
 686.271484375 677.283203125 718.1328125 677.701171875 771.607421875 681.389648438 c 0
 795.958007812 683.068359375 817.1640625 683.928710938 818.875 683.306640625 c 0
 822.635742188 681.939453125 828.90234375 670.111328125 828.90234375 664.381835938 c 0
 828.90234375 656.623046875 825.321289062 654.075195312 807.416015625 649.094726562 c 0
 784.9765625 642.8515625 778.302734375 639.018554688 793.092773438 640.8671875 c 0
 831.528320312 645.671875 827.987304688 645.997070312 833.401367188 637.166992188 c 0
 845.33984375 617.6953125 838.689453125 610.787109375 801.448242188 603.973632812 c 0
 785.692382812 601.090820312 770.330078125 597.765625 767.310546875 596.583984375 c 0
 764.396484375 595.443359375 759.07421875 594.434570312 755.970703125 594.434570312 c 0
 752.8671875 594.434570312 750.122070312 593.538085938 750.122070312 592.525390625 c 0
 750.122070312 590.017578125 806.461914062 591.654296875 824.126953125 594.674804688 c 0
 841.5546875 597.654296875 842.48828125 597.541992188 847.78515625 591.80859375 c 0
 854.182617188 584.885742188 856.03125 573.723632812 851.77734375 567.697265625 c 0
 848.55078125 563.126953125 848.861328125 561.967773438 855.298828125 554.567382812 c 0
 868.463867188 539.43359375 862.084960938 525.208007812 840.599609375 521.787109375 c 0
 835.108398438 520.913085938 831.11328125 519.705078125 831.766601562 519.1171875 c 0
 832.421875 518.52734375 847.880859375 519.8203125 866.0234375 521.981445312 c 2
 899.087890625 525.920898438 l 1
 904.943395941 519.088267963 916.327731187 502.961251649 905.771484375 493.522460938 c 0
 888.449716745 478.031895513 741.011313575 454.944825806 743.381835938 447.618164062 c 0
 743.864257812 446.125 775.307617188 445.096679688 827.350585938 444.873046875 c 2
 910.546875 444.514648438 l 1
 915.740328572 436.639484294 925.13221881 421.932656289 914.126953125 414.701171875 c 0
 904.791992188 408.56640625 828.424804688 386.805664062 782.350585938 377.151367188 c 0
 753.463867188 371.098632812 725.682617188 362.283203125 724.5546875 358.811523438 c 0
 723.616210938 355.92578125 723.145507812 355.904296875 789.51171875 361.856445312 c 0
 811.952148438 363.869140625 844.663085938 366.403320312 862.681640625 367.525390625 c 0
 880.5859375 368.639648438 896.236328125 370.151367188 897.416015625 370.879882812 c 0
 901.586914062 373.453125 909.815429688 365.256835938 912.647460938 355.708007812 c 0
 915.90625 344.71875 913.649414062 340.426757812 901.713867188 334.908203125 c 0
 895.1484375 331.873046875 896.461914062 331.697265625 917.469726562 332.796875 c 0
 943.251953125 334.147460938 944.868164062 333.40625 948.172851562 318.706054688 c 0
 950.995117188 306.151367188 946.1171875 301.84765625 920.811523438 294.568359375 c 0
 908.875 291.133789062 898.37109375 287.49609375 897.177734375 286.381835938 c 0
 894.002929688 283.418945312 917.947265625 283.505859375 925.825195312 286.485351562 c 0
 935.694335938 290.21875 942.765625 284.329101562 944.751953125 270.721679688 c 0
 945.658203125 264.514648438 945.420898438 258.805664062 944.20703125 257.591796875 c 0
 941.172851562 254.557617188 893.8359375 238.58203125 859.936523438 229.15234375 c 0
 785.594835946 208.472841816 798.83739984 209.499559465 849.193359375 217.247070312 c 0
 866.381835938 219.890625 889.973632812 222.021484375 902.071289062 222.021484375 c 2
 923.915039062 222.021484375 l 1
 932.734910688 207.827723882 940.193486084 198.188442859 922.959960938 185.151367188 c 2
 911.740234375 176.663085938 l 1
 951.369140625 176.663085938 l 2
 997.204101562 176.663085938 998.397460938 176.178710938 998.397460938 157.565429688 c 2
 998.397460938 145.8671875 l 1
 984.670898438 143.360351562 l 2
 970.17416097 140.71379811 949.59182902 133.692382812 934.658203125 133.692382812 c 0
 925.948242188 133.692382812 893.596679688 128.317382812 881.421875 124.848632812 c 0
 874.534179688 122.885742188 907.920898438 120.103515625 943.013671875 119.716796875 c 0
 971.182617188 119.405273438 974.525390625 117.748046875 974.525390625 104.08984375 c 0
 974.525390625 94.0634765625 974.11328125 93.4208984375 965.453125 89.94140625 c 0
 956.141601562 86.2001953125 924.870117188 80.326171875 899.326171875 77.5205078125 c 0
 867.180966423 73.9892152391 874.52372736 71.3615343944 926.780273438 66.5908203125 c 0
 990.041992188 60.8154296875 989.287109375 60.935546875 992.768554688 56.1064453125 c 0
 999.328869378 47.005950075 994.870718564 27.1364694742 983.119140625 31.666015625 c 0
 975.48046875 34.6103515625 912.654296875 24.8583984375 916.514648438 21.328125 c 0
 918.055113745 19.9192500437 1005.48801715 23.5677642301 1006.87304688 23.0419921875 c 0
 1008.73632812 22.3349609375 1011.42578125 18.8642578125 1012.69921875 15.5224609375 c 0
 1015.94433594 7.001953125 1012.00488281 0.5859375 1002.45605469 -1.1591796875 c 0
 990.229492188 -3.3935546875 907.681640625 -4.0078125 867.575195312 -2.1630859375 c 0
 833.915039062 -0.615234375 830.328125 -0.009765625 825.08203125 5.0048828125 c 0
 819.247070312 10.5830078125 817.624023438 19.8193359375 821.431640625 25.7880859375 c 0
 822.521484375 27.49609375 837.256835938 31.5810546875 854.20703125 34.8740234375 c 0
 900.28125 43.82421875 899.15625 43.30859375 880.228515625 46.80859375 c 0
 854.253429556 51.6116734456 784.462825625 44.8691561938 752.748046875 44.5283203125 c 0
 722.4296875 44.2001953125 718.98828125 44.599609375 712.880859375 49.14453125 c 0
 705.71875 54.4736328125 702.768554688 65.095703125 706.76953125 71.1455078125 c 0
 707.889648438 72.8388671875 713.596679688 75.3515625 719.326171875 76.6728515625 c 0
 732.943359375 79.8154296875 789.2734375 87.6259765625 822.93359375 91.0380859375 c 0
 906.226155448 99.4829333445 782.112227848 98.7659544359 748.928710938 96.2744140625 c 0
 734.366210938 95.1806640625 720.22265625 94.6474609375 717.177734375 95.0771484375 c 0
 710.138671875 96.0712890625 704.46484375 107.432617188 706.358398438 116.743164062 c 0
 707.994140625 124.788085938 709.538085938 125.4921875 730.546875 127.762695312 c 0
 745.825195312 129.415039062 750.287109375 132.094726562 745.5859375 136.795898438 c 0
 741.694335938 140.6875 742.361328125 156.610351562 746.596679688 160.907226562 c 0
 748.719726562 163.061523438 752.389648438 164.7265625 755.015625 164.7265625 c 0
 760.995812987 164.7265625 854.684570312 189.79296875 854.684570312 189.79296875 c 1
 853.1171875 191.360351562 811.713867188 186.856445312 789.51171875 182.704101562 c 0
 743.4375 174.086914062 722.397460938 181.229492188 724.33203125 204.833007812 c 0
 725.030273438 213.354492188 725.771484375 214.015625 745.34765625 223.573242188 c 0
 756.556640625 229.045898438 776.859375 236.313476562 790.706054688 239.809570312 c 0
 827.947265625 249.21484375 829.513671875 250.982421875 799.060546875 249.237304688 c 0
 756.806640625 246.81640625 743.765625 247.052734375 739.856445312 250.310546875 c 0
 734.306640625 254.935546875 732.536132812 266.185546875 736.193359375 273.5859375 c 0
 739.091796875 279.450195312 742.482421875 280.75390625 773.755859375 288.029296875 c 0
 792.615234375 292.416992188 808.779296875 296.7265625 809.565429688 297.578125 c 0
 810.356445312 298.435546875 793.80859375 298.434570312 772.5625 297.576171875 c 0
 729.591796875 295.838867188 722.063476562 297.356445312 719.8671875 308.201171875 c 0
 718.082234464 317.017863725 696.793671013 321.654972611 688.291992188 325.032226562 c 0
 681.369140625 327.780273438 680.008789062 327.762695312 679.043945312 324.912109375 c 0
 676.39453125 317.0859375 668.955078125 312.737304688 658.211914062 312.737304688 c 2
 647.23046875 312.737304688 l 1
 648.83984375 295.310546875 l 2
 651.086914062 270.959960938 648.592773438 266.58203125 633.623046875 268.6015625 c 0
 622.228515625 270.138671875 620.53515625 271.4375 607.200195312 288.864257812 c 0
 600.672851562 297.395507812 597.336914062 296.265625 597.336914062 285.522460938 c 0
 597.336914062 276.211914062 593.568359375 272.154296875 584.922851562 272.154296875 c 0
 572.860351562 272.154296875 567.745117188 276.689453125 559.08203125 295.071289062 c 0
 546.990234375 320.7265625 543.041992188 320.137695312 544.665039062 292.922851562 c 0
 545.690429688 275.734375 533.537109375 271.86328125 516.885742188 284.07421875 c 2
 507.09765625 291.251953125 l 1
 505.845797287 284.700189998 504.292142582 275.267645089 500.65234375 272.213867188 c 0
 496.55078125 268.770507812 481.315429688 270.78125 474.870117188 275.615234375 c 0
 467.138424585 281.414003827 448.314979432 371.584580295 446.71875 305.575195312 c 0
 445.90625 271.915039062 442.581054688 265.807617188 426.647460938 268.71484375 c 0
 413.333007812 271.143554688 409.698242188 277.64453125 406.4375 304.859375 c 0
 404.806640625 318.466796875 402.53125 329.448242188 401.341796875 329.448242188 c 0
 397.883789062 329.448242188 392.077148438 315.840820312 390.440429688 303.904296875 c 0
 388.346679688 288.625976562 382.323242188 283.1328125 369.591796875 284.888671875 c 0
 363.384765625 285.745117188 358.231445312 288.16015625 355.506835938 291.490234375 c 0
 351.337890625 296.5859375 350.732421875 296.6484375 335.21484375 293.581054688 c 0
 306.329101562 287.87109375 296.530273438 280.8671875 308.477539062 274.470703125 c 0
 311.995117188 272.587890625 313.251953125 269.528320312 313.251953125 262.84375 c 0
 313.251953125 248.603515625 309.193359375 246.6484375 276.249023438 245.021484375 c 0
 246.885742188 243.571289062 180.87890625 230.725585938 171.209960938 224.579101562 c 0
 166.434570312 221.543945312 166.434570312 221.543945312 171.209960938 223.124023438 c 0
 189.114257812 229.049804688 304.72265625 225.446289062 313.013671875 218.704101562 c 0
 318.026367188 214.626953125 323.239257812 200.774414062 321.646484375 195.76171875 c 0
 319.7890625 189.913085938 311.103515625 187.126953125 284.604492188 183.879882812 c 0
 254.763671875 180.221679688 228.15625 174.8359375 220.625976562 170.927734375 c 0
 215.4453125 168.239257812 220.864257812 167.672851562 261.686523438 166.63671875 c 0
 307.284179688 165.479492188 308.901367188 165.268554688 314.803710938 159.713867188 c 0
 320.58877887 154.268600148 328.677545514 144.692829651 320.293945312 137.870117188 c 0
 317.452148438 135.556640625 311.700195312 133.692382812 307.403320312 133.692382812 c 0
 298.400392699 133.692382812 263.052317874 124.303873592 255.002929688 123.606445312 c 0
 248.556640625 123.049804688 246.977539062 120.58203125 251.899414062 118.758789062 c 0
 253.474609375 118.174804688 261.209960938 118.01953125 269.087890625 118.4140625 c 0
 286.752929688 119.296875 293.698242188 115.014648438 295.799804688 101.94140625 c 0
 297.02734375 94.302734375 296.447265625 92.3046875 292.125 89.2890625 c 0
 287.458984375 86.0341796875 287.325195312 85.23046875 290.66015625 80.4560546875 c 0
 299.705187369 67.5050901142 285.802426144 63.1751960606 283.76953125 52.64453125 c 0
 282.490234375 46.015625 281.978515625 45.80078125 263.8359375 44.2890625 c 0
 236.083527865 41.9768011235 189.521935739 35.9275243507 160.466796875 33.3642578125 c 0
 75.2412109375 25.84375 70.6923828125 25.0322265625 39.91015625 11.859375 c 0
 27.49609375 6.546875 15.2861328125 2.7646484375 12.93359375 3.50390625 c 0
 8.205078125 4.990234375 0.51953125 16.7158203125 0.51953125 22.4453125 c 0
 0.51953125 27.12890625 2.9072265625 28.517578125 16.7529296875 31.888671875 c 0
 25.1083984375 33.9228515625 28.765625 36.2666015625 31.0771484375 41.06640625 c 0
 33.5859375 46.27734375 36.3291015625 47.7724609375 45.400390625 48.8720703125 c 0
 68.9598080308 51.7273678731 106.106665859 64.8119596782 64.4990234375 58.2177734375 c 0
 42.296875 54.7001953125 40.2080078125 55.4375 34.658203125 68.7587890625 c 0
 29.8828125 80.2177734375 32.509765625 85.947265625 42.5361328125 85.947265625 c 2
 50.65234375 85.947265625 l 1
 49.138671875 98.599609375 l 2
 47.4814453125 112.4453125 48.474609375 114.069335938 59.724609375 115.920898438 c 0
 76.3383263264 118.652729871 189.084960938 137.750976562 189.084960938 137.750976562 c 1
 192.751953125 141.481445312 83.119140625 131.599609375 76.673828125 127.619140625 c 0
 75.470703125 126.875976562 71.8994140625 128.91796875 68.556640625 132.259765625 c 0
 64.1357421875 136.680664062 62.5888671875 140.734375 62.5888671875 147.896484375 c 0
 62.5888671875 154.103515625 63.7001953125 157.565429688 65.6923828125 157.565429688 c 0
 72.8223507084 157.565429688 131.85628639 176.840759663 130.530273438 179.05078125 c 0
 128.915039062 181.743164062 87.177734375 180.217773438 69.7509765625 176.829101562 c 0
 38.7158203125 170.793945312 39.52734375 170.752929688 35.4306640625 178.573242188 c 0
 33.3046875 182.630859375 31.5546875 189.208007812 31.5546875 193.135742188 c 0
 31.5546875 199.5390625 32.62890625 200.5625 41.7001953125 202.803710938 c 0
 47.234375 204.170898438 57.814453125 208.50390625 64.9765625 212.3359375 c 0
 95.0556640625 228.431640625 115.485351562 237.578125 140.174804688 246.00390625 c 2
 166.434570312 254.965820312 l 1
 152.111328125 255.057617188 l 2
 138.4765625 255.14453125 113.915039062 252.784179688 91.474609375 249.228515625 c 0
 82.880859375 247.8671875 80.3955078125 248.346679688 77.8046875 251.862304688 c 0
 74.1103515625 256.875 73.2880859375 275.809570312 76.673828125 277.896484375 c 0
 79.16796875 279.43359375 130.864257812 284.860351562 179.565429688 288.6953125 c 0
 233.163343376 292.91652747 289.699147266 298.572728846 302.509765625 301.517578125 c 1
 271.437330607 310.194980919 162.762486814 310.195861492 139.219726562 297.096679688 c 0
 133.490234375 293.909179688 127.305664062 291.251953125 125.612304688 291.251953125 c 0
 119.23046875 291.251953125 115.108398438 298.65234375 115.108398438 310.111328125 c 2
 115.108398438 321.33203125 l 1
 127.641601562 326.463867188 l 2
 134.565429688 329.299804688 144.663085938 332.873046875 150.201171875 334.448242188 c 0
 160.228515625 337.299804688 162.989257812 340.06640625 157.602539062 341.862304688 c 0
 153.3046875 343.293945312 151.80078125 367.31640625 155.930664062 368.553710938 c 0
 168.450656083 372.297075519 260.4737471 390.250714431 272.66796875 393.666015625 c 0
 282.456054688 396.40625 297.06640625 400.46484375 304.896484375 402.618164062 c 0
 354.223149856 416.180398355 280.374170701 409.921244671 241.873046875 403.334960938 c 0
 226.833007812 400.76171875 212.735351562 398.678710938 210.360351562 398.678710938 c 0
 204.21484375 398.678710938 198.663085938 405.36328125 198.663085938 412.763671875 c 0
 198.663085938 423.103103104 191.758994488 426.732621854 191.62109375 439.500976562 c 0
 191.50390625 450.244140625 191.721679688 450.571289062 201.647460938 454.541015625 c 0
 214.529150901 459.694593374 296.863899129 477.205454269 310.864257812 481.278320312 c 0
 328.668859379 486.458988399 338.864167849 487.972500955 356.22265625 493.811523438 c 0
 368.875 498.067382812 369.153320312 498.334960938 363.862304688 501.158203125 c 0
 348.881835938 509.15234375 265.745117188 515.529296875 238.052734375 510.80859375 c 0
 205.5859375 505.2734375 204.765625 505.26953125 200.017578125 510.641601562 c 0
 196.762695312 514.325195312 196.153320312 517.326171875 197.350585938 523.771484375 c 0
 198.734375 531.223632812 199.856445312 532.294921875 207.734375 533.678710938 c 0
 237.838717786 538.968938308 311.645196452 555.451315549 326.859375 557.740234375 c 0
 343.555664062 560.250976562 338.556640625 563.4296875 317.548828125 563.66015625 c 0
 306.592773438 563.780273438 288.663085938 564.038085938 277.443359375 564.236328125 c 2
 257.151367188 564.59375 l 1
 254.75666381 569.382563125 249.020704867 579.398066677 250.541015625 585.125 c 0
 253.521484375 596.353515625 297.49609375 615.703125 339.51171875 624.275390625 c 0
 367.920898438 630.071289062 416.49609375 644.443359375 420.201171875 648.1484375 c 0
 423.168945312 651.116210938 330.91796875 644.666015625 300.360351562 639.768554688 c 0
 278.994637181 636.343761599 284.531961592 642.249398876 269.803710938 642.614257812 c 0
 257.151367188 642.927734375 248.795898438 649.022460938 248.795898438 657.936523438 c 0
 248.795898438 670.551757812 250.228515625 671.110351562 315.639648438 684.009765625 c 0
 352.978352861 691.374282841 386.908396718 702.354908435 427.840820312 710.37109375 c 0
 464.84375 717.616210938 469.696289062 724.055664062 436.673828125 722.090820312 c 0
 380.573242188 718.75390625 328.469726562 711.458007812 309.91015625 704.341796875 c 0
 300.122070312 700.588867188 293.0078125 701.341796875 288.212890625 706.63671875 c 0
 283.999023438 711.2890625 284.126953125 711.509765625 293.19921875 715.2734375 c 0
 303.770507812 719.658203125 357.655273438 731.002929688 393.225585938 736.331054688 c 0
 430.944335938 741.981445312 439.729492188 743.953125 444.07421875 747.740234375 c 0
 446.329101562 749.706054688 452.907226562 751.962890625 458.875 752.819335938 c 0
 548.63671875 765.690429688 581.900390625 772.16015625 606.885742188 781.60546875 c 0
631.984375 742.4453125 m 0
 633.303710938 744.59375 627.784179688 745.83984375 625.745117188 743.853515625 c 0
 625.224609375 743.345703125 617.62890625 742.232421875 609.034179688 741.40234375 c 0
 587.310546875 739.306640625 568.895507812 736.206054688 567.018554688 734.329101562 c 0
 557.803239475 725.111678547 623.854163327 740.05859375 625.387695312 740.05859375 c 0
 628.251953125 740.05859375 631.166992188 741.11328125 631.984375 742.4453125 c 0
599.724609375 570.5625 m 0
 599.724609375 587.261699279 611.414001623 594.128356813 624.551757812 599.686523438 c 1
 610.235532991 604.637452265 598.758020776 607.149761502 601.1875 620.456054688 c 0
 603.943359375 635.546875 604.737304688 636.069335938 630.041992188 639.44921875 c 0
 655.825195312 642.892578125 673.729492188 647.044921875 673.729492188 649.581054688 c 0
 673.729492188 650.51171875 666.329101562 651.676757812 657.018554688 652.2109375 c 0
 630.28125 653.745117188 620.702148438 664.546875 630.135742188 682.525390625 c 0
 634.921875 691.6484375 642.93359375 695.125976562 683.278320312 705.590820312 c 0
 695.692382812 708.810546875 706.251953125 711.944335938 706.912109375 712.604492188 c 0
 708.78515625 714.477539062 673.729492188 713.5546875 658.211914062 711.323242188 c 0
 650.309570312 710.186523438 628.37109375 707.626953125 609.2734375 705.614257812 c 0
 551.740234375 699.551757812 542.131835938 700.94921875 543.184570312 715.23046875 c 0
 543.712890625 722.392578125 539.353515625 724.92578125 532.880859375 721.217773438 c 0
 527.213867188 717.971679688 481.5546875 702.756835938 453.623046875 694.807617188 c 0
 439.538085938 690.799804688 424.545898438 685.931640625 420.201171875 683.958007812 c 0
 412.323242188 680.376953125 412.323242188 680.376953125 426.647460938 681.80859375 c 0
 434.525390625 682.596679688 458.159179688 686.282226562 479.166992188 689.998046875 c 0
 530.970703125 699.161132812 543.508789062 699.908203125 549.591796875 694.19140625 c 0
 555.08203125 689.03125 555.880859375 677.438476562 551.0234375 673.405273438 c 0
 549.30859375 671.98046875 541.35546875 669.493164062 533.23828125 667.84375 c 0
 521.302734375 665.416992188 517.775390625 663.586914062 514.37890625 658.055664062 c 0
 510.864257812 652.331054688 504.7109375 649.396484375 475.5859375 639.556640625 c 0
 443.181640625 628.607421875 391.79296875 612.411132812 343.33203125 597.873046875 c 0
 307.010100815 586.97399139 327.891946746 588.442002266 367.80078125 587.989257812 c 0
 390.958007812 587.7265625 412.409179688 587.458007812 415.426757812 587.392578125 c 0
 419.348632812 587.307617188 421.920898438 584.885742188 424.426757812 578.91796875 c 0
 429.440429688 566.981445312 425.930664062 561.977539062 409.219726562 557.235351562 c 0
 392.162763214 552.396017807 374.254670302 545.9205128 356.939453125 541.89453125 c 0
 317.270811056 532.6750428 369.548829539 529.310698547 374.724609375 527.7109375 c 0
 378.34375 526.591796875 389.64453125 523.806640625 399.91015625 521.50390625 c 0
 414.7109375 518.18359375 419.715820312 515.90625 424.309570312 510.403320312 c 0
 437.6484375 494.423828125 430.228515625 486.358398438 390.837890625 474.018554688 c 0
 375.08203125 469.083007812 361.278320312 464.185546875 360.162109375 463.135742188 c 0
 357.862153266 460.971683216 371.687812728 441.587129376 372.658203125 439.0234375 c 0
 375.361328125 431.884765625 394.658203125 421.57421875 404.20703125 422.166992188 c 0
 411.001748023 422.587938989 427.191921347 415.393150959 433.80859375 417.952148438 c 0
 440.970703125 420.721679688 452.255859375 420.37109375 458.63671875 417.180664062 c 0
 464.129882812 414.43359375 464.842773438 412.047851562 467.588867188 387.219726562 c 0
 469.2265625 372.418945312 471.541992188 358.520507812 472.720703125 356.424804688 c 0
 476.197265625 350.240234375 479.165039062 391.755859375 475.912109375 401.06640625 c 0
 472.297851562 411.409179688 475.5859375 416.946289062 486.08984375 418.20703125 c 0
 503.747070312 420.325195312 507.11328125 415.8671875 512.013671875 383.877929688 c 0
 513.659179688 373.135742188 516.143554688 364.15234375 517.602539062 363.666015625 c 0
 522.110351562 362.163085938 526.8671875 383.877929688 524.2265625 393.904296875 c 0
 519.896336493 410.341001029 530.242723158 420.153284346 545.533203125 411.24609375 c 0
 551.924804688 407.522460938 553.450195312 404.885742188 554.874023438 395.09765625 c 0
 561.158242726 351.897392811 571.077148438 314.156807727 571.077148438 381.490234375 c 2
 571.077148438 413.002929688 l 1
 580.12448549 416.465592323 591.891333465 418.648590792 599.459960938 409.66015625 c 0
 607.153070042 400.529188637 605.883597961 341.384765625 615.241210938 341.384765625 c 0
 619.518554688 341.384765625 621.80859375 359.766601562 618.810546875 370.032226562 c 0
 615.533203125 381.251953125 615.7421875 392.256835938 619.299804688 395.814453125 c 0
 625.193359375 401.708007812 645.20703125 396.291992188 648.41015625 387.936523438 c 0
 651.057617188 381.03125 655.267578125 383.877929688 653.70703125 391.517578125 c 0
 650.862791709 405.435976898 665.251689493 411.510178781 678.265625 404.731445312 c 0
 685.956054688 400.7265625 688.052734375 396.76953125 688.052734375 386.265625 c 0
 688.052734375 378.094726562 686.143554688 377.930664062 715.506835938 388.622070312 c 0
 726.010742188 392.446289062 749.64453125 399.174804688 768.026367188 403.573242188 c 0
 799.299804688 411.056640625 800.833984375 411.685546875 791.899414062 413.360351562 c 0
 786.6328125 414.348632812 764.684570312 415.793945312 742.959960938 416.583984375 c 0
 679.219726562 418.901367188 664.180664062 423.231445312 664.180664062 439.262695312 c 0
 664.180664062 454.891601562 666.329101562 456.65625 697.36328125 466.526367188 c 0
 713.358398438 471.612304688 726.97265625 476.594726562 727.5625 477.578125 c 0
 729.589340938 480.958415643 669.019244571 475.032390764 655.228515625 483.307617188 c 0
 649.021484375 487.032226562 647.469726562 489.514648438 647.469726562 495.721679688 c 0
 647.469726562 500.018554688 648.5078125 506.249023438 649.796875 509.686523438 c 0
 652.272460938 516.2890625 651.2890625 516.765625 637.204101562 515.788085938 c 0
 618.598500024 514.496083131 611.275101225 525.405249372 617.032226562 542.870117188 c 2
 620.493164062 553.374023438 l 1
 610.108398438 558.387695312 l 2
 601.275390625 562.651367188 599.724609375 564.470703125 599.724609375 570.5625 c 0
382.482421875 369.912109375 m 0
 387.007358568 380.785626631 393.01482606 394.560087944 384.392578125 393.537109375 c 0
 368.641294205 391.671909859 318.234666697 379.834294624 305.8515625 373.374023438 c 1
 313.282464851 366.451404049 322.987259878 356.724573254 314.405273438 344.48828125 c 0
 310.830078125 339.389648438 307.522460938 338.388671875 284.366210938 335.401367188 c 0
 278.397460938 334.630859375 271.313476562 332.458007812 268.848632812 330.641601562 c 0
 264.890625 327.725585938 267.655273438 327.478515625 290.573242188 328.705078125 c 0
 325.666015625 330.583007812 338.291992188 328.552734375 347.389648438 319.569335938 c 0
 351.448242188 315.5625 355.741210938 312.963867188 357.296875 313.573242188 c 0
 358.80078125 314.161132812 363.443359375 323.122070312 367.5625 333.387695312 c 0
 371.681640625 343.65234375 378.428710938 360.169921875 382.482421875 369.912109375 c 0
EndSplineSet
Validated: 524321
EndChar

StartChar: C
Encoding: 67 67 5
Width: 714
Flags: HW
LayerCount: 2
Back
Fore
SplineSet
568.065429688 760.486328125 m 0
 570.572545761 760.486328125 581.018621526 754.435546875 583.875 754.435546875 c 0
 588.956346333 754.435546875 603.234192964 745.509158139 609.8203125 745.461914062 c 0
 619.95703125 745.389648438 626.208984375 741.65625 630.518554688 733.103515625 c 0
 632.500976562 729.170898438 634.177734375 724.87109375 634.177734375 723.723632812 c 0
 634.177734375 722.573242188 631.000976562 718.912109375 627.21875 715.706054688 c 0
 612.868096496 703.540947138 570.676539598 660.621944192 562.467773438 653.478515625 c 0
 545.977539062 639.12890625 535.4375 627.564453125 533.69140625 621.908203125 c 0
 531.947909087 616.25172629 528.453877503 616.969679689 524.890625 609.654296875 c 0
 516.739573023 592.921535194 510.743494243 587.389949999 499.986328125 584.14453125 c 0
 497.366210938 583.354492188 486.975585938 586.5625 484.252929688 589.002929688 c 0
 481.944335938 591.071289062 479.486328125 602.392578125 477.502929688 620.092773438 c 0
 476.128978235 632.362565092 472.005642576 631.252117337 465.0390625 637.7890625 c 0
 457.516601562 644.848632812 432.815429688 651.560546875 414.358398438 651.560546875 c 0
 398.503687921 651.560546875 361.711921782 635.464336363 349.758789062 624.70703125 c 0
 345.158203125 620.56640625 335.689453125 613.329101562 328.579101562 608.51953125 c 0
 305.113499365 592.643750942 294.41590449 585.461231209 267.3203125 554.131835938 c 0
 256.067382812 541.12109375 239.3203125 518.318359375 239.3203125 516.0078125 c 0
 239.3203125 515.084960938 235.243164062 508.140625 230.172851562 500.42578125 c 0
 206.892578125 465.001953125 185.663085938 412.376953125 179.15234375 373.950195312 c 0
 175.861401001 354.528409373 177.825942996 304.528783837 184.932617188 291.57421875 c 0
 186.898627005 287.988981403 197.316973474 266.474879585 199.91015625 263.510742188 c 0
 201.392578125 261.81640625 204.779296875 257.15625 207.607421875 252.920898438 c 0
 223.969726562 228.412109375 255.291992188 202.860351562 275.174804688 197.801757812 c 0
 293.042144403 193.257908488 291.51940149 189.478165237 321.46875 191.661132812 c 0
 384.857421875 196.279296875 406.260742188 198.6796875 412.391601562 201.858398438 c 0
 414.702148438 203.056640625 419.653320312 204.254882812 423.284179688 204.494140625 c 0
 429.360129537 204.894707088 441.514539486 213.304701832 452.633789062 218.174804688 c 0
 467.926030625 224.875751421 479.554856821 235.865613458 483.633789062 255.946289062 c 0
 485.083272633 263.092133253 490.686531483 270.396344304 491.146484375 279.546875 c 0
 491.642578125 289.393554688 495.599609375 292.87890625 506.340820312 292.932617188 c 0
 524.995940541 293.024284124 525.473249642 277.260055662 534.177734375 266.234375 c 0
 539.600216587 259.365048943 541.827599596 250.19605015 547.79296875 244.443359375 c 0
 551.7265625 240.650390625 557.23046875 231.931640625 557.912109375 228.412109375 c 0
 559.356261208 220.970285482 578.675856987 206.400384222 583.572265625 198.458007812 c 0
 587.575852692 191.964730268 605.400082383 176.539518063 609.59375 169.864257812 c 0
 614.87106919 161.465471451 632.622773564 145.011445439 622.831054688 135.219726562 c 0
 620.775390625 133.1640625 607.249023438 128.408203125 595.599609375 125.645507812 c 0
 580.308683742 122.019193536 576.63559111 112.921413968 567.6875 104.66015625 c 0
 563.034241156 100.36561044 555.671137613 92.288581695 550.818359375 89.3798828125 c 0
 549.55859375 88.6240234375 547.157226562 86.203125 545.416992188 83.93359375 c 0
 532.629779503 67.2583622988 493.208406605 46.7569751558 467.005859375 37.9423828125 c 0
 457.853515625 34.8642578125 438.110351562 27.6484375 423.1328125 21.908203125 c 0
 387.877382517 8.39628479388 371.475674217 9.75226001651 331.151367188 5.765625 c 0
 289.359245166 1.63421683111 215.487468179 17.1440425301 172.75390625 42.7841796875 c 0
 167.131854266 46.1568871654 154.354306048 51.6238958876 149.228515625 55.794921875 c 0
 146.774414062 57.791015625 142.04296875 61.0458984375 138.71484375 63.025390625 c 0
 128.578125 69.0556640625 98.5947265625 96.5302734375 93.27734375 104.66015625 c 0
 89.6244945027 110.245170494 84.0348609528 109.8021882 81.3017578125 116.384765625 c 0
 80.169921875 119.107421875 77.666015625 123.326171875 75.6875 125.83984375 c 0
 58.544921875 147.625 45.5458984375 167.963867188 35.9482421875 188.018554688 c 0
 30.662109375 199.0625 15.0654296875 243.4296875 15.6845703125 245.659179688 c 0
 15.873046875 246.336914062 15.255859375 250.197265625 14.28125 254.43359375 c 0
 10.8135900142 269.51933586 9.01723780085 303.221071678 6.939453125 321 c 0
 2.87890625 355.73046875 4.345703125 374.857421875 14.8271484375 423.874023438 c 0
 26.3059652142 477.555471301 34.5448316347 494.829547589 70.9111328125 563.814453125 c 0
 87.4047201133 595.102533244 102.277604732 611.553769327 121.2734375 634.918945312 c 0
 157.610351562 679.615234375 205.885742188 720.3984375 251.725585938 745.125976562 c 0
 258.079101562 748.553710938 265.918945312 753.12890625 268.97265625 755.19140625 c 0
 271.998046875 757.236328125 275.125976562 758.973632812 275.780273438 758.973632812 c 0
 276.448242188 758.973632812 283.49609375 762.768554688 291.513671875 767.446289062 c 0
 304.978515625 775.299804688 306.3515625 775.78515625 310.348632812 774.102539062 c 0
 317.508328784 771.08933821 321.065704766 775.528757871 329.3359375 777.733398438 c 0
 363.983382411 786.974983842 388.74470074 795.416719673 435.236328125 794.6015625 c 0
 472.951279377 793.941533947 492.227711836 789.181415084 518.443359375 780.154296875 c 0
 536.463418323 773.947542773 539.471868349 774.780597588 555.0546875 766.462890625 c 0
 561.2578125 763.151367188 567.059570312 760.486328125 568.065429688 760.486328125 c 0
577.142578125 722.059570312 m 0
 570.7890625 724.948242188 493.962890625 723.600585938 490.909179688 720.546875 c 0
 490.313476562 719.951171875 490.706054688 717.370117188 491.805664062 714.646484375 c 0
 496.360351562 703.368164062 503.05078125 686.053710938 508.583007812 671.227539062 c 0
 514.930107113 654.214207555 514.106960222 647.497233986 527.823242188 659.662109375 c 0
 546.072170559 675.847161243 555.290875202 688.316464675 571.022460938 705.267578125 c 0
 580.0078125 714.94921875 581.82421875 719.931640625 577.142578125 722.059570312 c 0
545.826171875 205.265625 m 0
 540.638020749 210.824050812 526.772755146 235.514783455 522.971679688 213.5859375 c 0
 519.40180899 192.960017914 514.826027503 178.871860498 506.28515625 160.333007812 c 0
 502.05859375 151.15625 501.801757812 151.250976562 529.487304688 151.754882812 c 0
 559.896484375 152.30859375 584.591796875 156.1328125 583.90625 160.181640625 c 0
 583.68359375 161.499023438 579.702148438 166.9140625 575.17578125 172.057617188 c 0
 565.339140731 183.237643564 555.414983648 194.992658695 545.826171875 205.265625 c 0
EndSplineSet
Validated: 524321
EndChar

StartChar: D
Encoding: 68 68 6
Width: 777
Flags: HW
LayerCount: 2
Back
Fore
SplineSet
355.330078125 794.90234375 m 0
 357.403320312 796.932617188 404.0703125 794.140625 407.014648438 791.809570312 c 0
 407.825195312 791.16796875 411.137695312 790.147460938 414.376953125 789.541015625 c 0
 422.034179688 788.108398438 439.971679688 781.864257812 444.122070312 779.186523438 c 0
 445.888671875 778.046875 448.6328125 777.096679688 450.159179688 777.096679688 c 0
 457.574998331 777.096679688 477.429059374 764.277563085 484.321289062 760.846679688 c 0
 517.701100877 744.229796442 512.7136267 747.695659651 533.650390625 726.369140625 c 0
 540.154296875 719.7421875 549.716796875 710.809570312 555.001953125 706.422851562 c 0
 589.064811057 678.149558229 627.195790766 621.555766171 648.189453125 567.853515625 c 0
 659.59274033 538.686866834 669.893349003 505.95870147 680.270507812 473.760742188 c 0
 691.787369087 438.006503866 704.499163505 352.73367987 693.553710938 303.686523438 c 0
 688.507315023 281.096921214 679.17811264 241.700439036 670.897460938 225.348632812 c 0
 652.545788807 189.107202301 638.939204467 168.057540391 632.12109375 155.552734375 c 0
 626.860351562 145.908203125 612.282226562 134.942382812 582.83203125 118.477539062 c 0
 570.16796875 111.397460938 559.3984375 105.634765625 558.830078125 105.634765625 c 0
 558.263671875 105.634765625 548.375 100.458007812 536.889648438 94.1494140625 c 0
 512.324327201 80.6542571449 506.862441039 80.0200602534 484.321289062 68.748046875 c 0
 455.33088886 54.2546954155 438.583626037 51.9436593716 405.541992188 39.337890625 c 0
 383.455078125 30.91015625 376.512695312 29.013671875 356.950195312 26.056640625 c 0
 351.01953125 25.1611328125 342.077148438 22.302734375 335.892578125 19.326171875 c 0
 325.80078125 14.46875 309.53515625 10.4609375 295.104492188 9.275390625 c 0
 284.35546875 8.392578125 274.553710938 6.8671875 269.041015625 5.21875 c 0
 263.77613487 3.64465810071 224.456546453 8.35873137864 216.325195312 3.3720703125 c 0
 213.551348803 1.66934961882 182.644498294 0.763522407798 179.14453125 0.203125 c 0
 153.736078233 -3.8593199675 88.4040946766 -7.11451791519 64.6572265625 -3.0361328125 c 0
 58.7763671875 -2.025390625 47.87109375 -1.7763671875 35.6494140625 -2.3740234375 c 0
 17.095703125 -3.2802734375 15.90625 -3.171875 13.046875 -0.3125 c 0
 10.3955078125 2.337890625 10.08203125 4.1787109375 10.4697265625 14.78125 c 2
 10.9111328125 26.85546875 l 1
 31.4209528474 25.6530094775 60.7245486098 25.5980415398 91.1630859375 27.271484375 c 0
 110.74384732 28.3485535642 126.60629216 24.865029638 129.16015625 31.5673828125 c 0
 131.456054688 37.5927734375 132.424804688 69.55859375 132.946289062 156.435546875 c 0
 133.459960938 241.98828125 132.609375 274.447265625 128.140625 339.762695312 c 0
 121.319335938 439.451171875 119.30078125 462.052734375 114.129882812 496.583984375 c 0
 107.023359872 544.066928056 106.482751957 595.565545635 102.721679688 647.515625 c 0
 101.530172795 663.980829195 102.173536491 723.513176922 99.1875 738.443359375 c 0
 98.548828125 741.638671875 97.9365234375 741.756835938 81.8857421875 741.756835938 c 0
 59.3564453125 741.756835938 21.73046875 737.84765625 15.4755859375 734.858398438 c 0
 0.985850026073 727.931417545 -1.47964532883 741.879071839 -7.5478515625 749.266601562 c 0
 -22.1191828801 767.006637912 25.6117529649 766.413349887 42.5703125 768.998046875 c 0
 59.5582025679 771.585567695 60.3504374454 768.710254661 73.787109375 771.432617188 c 0
 86.9287867928 774.095091469 127.045068613 772.875361621 147.412109375 775.697265625 c 0
 155.086957543 776.760568051 196.056626946 776.184129782 200.643554688 779.8203125 c 0
 205.88211879 783.976428508 256.248086741 784.920323253 264.91796875 785.912109375 c 0
 277.784179688 787.383789062 306.737304688 790.127929688 341.046875 793.127929688 c 0
 348.556640625 793.784179688 355.006835938 794.584960938 355.330078125 794.90234375 c 0
140.7421875 742.934570312 m 0
 138.975585938 745.1640625 122.821289062 744.796875 119.58203125 742.454101562 c 0
 117.075195312 740.640625 116.655273438 701.115234375 119.015625 689.1875 c 0
 119.763874557 685.406894747 123.017868436 592.708287193 125.693359375 568.737304688 c 0
 128.965354314 539.402829826 130.100142589 516.110021779 134.380859375 485.541015625 c 0
 142.469212013 427.748817802 144.029377997 364.16710761 149.435546875 302.950195312 c 0
 151.348632812 281.288085938 152.6015625 191.186523438 152.014648438 117.4140625 c 0
 151.669921875 74.123046875 151.952148438 36.6455078125 152.639648438 34.2177734375 c 0
 153.802734375 30.11328125 154.407226562 29.80078125 161.180664062 29.80078125 c 2
 168.46875 29.80078125 l 1
 175.552335976 51.2532169368 170.810730864 69.8801650045 171.266601562 105.634765625 c 0
 171.593771421 131.242048223 168.12714167 237.530895306 168.017578125 260.247070312 c 0
 167.696437386 331.720955955 159.488228352 412.194228502 157.541992188 491.872070312 c 0
 154.791623325 604.584820794 147.26227229 619.148927463 143.255859375 716.723632812 c 0
 142.706054688 730.124023438 141.578125 741.87890625 140.7421875 742.934570312 c 0
359.89453125 726.82421875 m 0
 316.419536111 731.229742232 263.730478873 723.611964047 225.896484375 721.21484375 c 0
 204.546813994 719.862044021 190.485328536 715.250976562 173.916992188 715.250976562 c 0
 163.329101562 715.250976562 163.052734375 714.809570312 164.142578125 699.642578125 c 0
 171.621087697 595.521144307 175.012543271 611.635629587 178.091796875 488.485351562 c 0
 180.124023438 407.203125 182.056640625 363.803710938 184.583007812 342.708007812 c 0
 187.217362485 320.713462112 191.311828006 179.236453862 192.765625 62.490234375 c 1
 201.813619003 63.6961001751 209.493360976 64.6174764725 221.479492188 65.2470703125 c 0
 293.631835938 69.0302734375 339.719726562 78.5263671875 361.662109375 94.12890625 c 0
 373.624544182 102.636882842 375.473780414 101.665566105 389.786132812 111.825195312 c 0
 417.174804688 131.265625 420.989257812 133.74609375 444.26953125 147.263671875 c 0
 456.575576323 154.40871233 464.176917668 154.985450185 479.295898438 170.71875 c 0
 492.87890625 184.85546875 500.518554688 194.131835938 500.518554688 196.48828125 c 0
 500.518554688 197.70703125 504.313476562 205.028320312 508.990234375 212.833007812 c 0
 519.844726562 230.944335938 527.624023438 248.139648438 530.840820312 261.130859375 c 0
 533.613217277 272.3338457 537.909490552 274.309273068 539.6875 283.586914062 c 0
 540.869672574 289.751814015 547.638671875 301.698235239 547.638671875 308.545898438 c 0
 547.638671875 311.196289062 548.39453125 314.810546875 549.301757812 316.497070312 c 0
 552.029296875 321.567382812 555.1875 348.59765625 554.171875 358.168945312 c 0
 553.640625 363.17578125 553.901367188 368.7265625 554.7734375 370.979492188 c 0
 556.755859375 376.100585938 556.989257812 420.30859375 555.137695312 439.892578125 c 0
 552.120482191 471.833294221 550.920254262 569.654591209 546.427734375 587.143554688 c 0
 541.332398154 606.966800608 534.893789606 620.65504541 526.06640625 635.368164062 c 0
 518.269752347 648.364742196 522.154924114 644.807718073 514.434570312 654.87890625 c 0
 511.58501925 658.593869223 503.894589674 672.548828125 500.224609375 672.548828125 c 0
 499.23046875 672.548828125 496.499023438 674.610351562 493.981445312 677.260742188 c 0
 488.385742188 683.150390625 480.225585938 690.21875 479.020507812 690.21875 c 0
 478.540039062 690.21875 475.044921875 692.317382812 471.36328125 694.81640625 c 0
 442.116690832 714.67103548 411.953843415 721.549682929 359.89453125 726.82421875 c 0
619.791992188 196.193359375 m 0
 619.791992188 205.427625748 611.676523841 192.512695312 617.583007812 192.512695312 c 0
 618.997070312 192.512695312 619.791992188 193.837890625 619.791992188 196.193359375 c 0
EndSplineSet
Validated: 524321
EndChar

StartChar: E
Encoding: 69 69 7
Width: 841
Flags: HW
LayerCount: 2
Back
Fore
SplineSet
705.1640625 790.934570312 m 0
 717.344432547 802.206155054 723.84125133 810.500160902 743.125976562 799.260742188 c 0
 755.420898438 792.095703125 761.244140625 784.47265625 761.244140625 775.544921875 c 0
 761.244140625 769.258789062 759.950195312 767.391601562 752.184570312 762.473632812 c 0
 740.106445312 754.823242188 728.890625 744.396484375 728.890625 740.818359375 c 0
 728.890625 739.282226562 726.255859375 733.916015625 723.06640625 728.955078125 c 0
 710.586914062 709.54296875 703.70703125 671.514648438 710.344726562 658.638671875 c 0
 712.235351562 654.97265625 713.791992188 649.663085938 713.791992188 646.883789062 c 0
 713.791992188 641.012919791 719.983265767 635.131119394 720.154296875 630.491210938 c 0
 720.290323104 626.842253362 731.046875 615.310975598 731.046875 611.40234375 c 0
 731.046875 607.748046875 719.831054688 596.6171875 715.517578125 595.991210938 c 0
 698.693359375 593.548828125 688.271484375 593.68359375 682.516601562 596.416992188 c 0
 648.082743953 612.77318434 657.801584273 602.496348105 627.19140625 618.196289062 c 2
 606.376953125 628.874023438 l 1
 591.709960938 626.029296875 l 2
 575.270507812 622.840820312 565.611328125 619.529296875 546.629882812 610.57421875 c 0
 515.392578125 595.836914062 447.1953125 575.732421875 404.272460938 568.608398438 c 0
 387.497070312 565.82421875 374.076171875 565.244140625 343.87890625 565.999023438 c 0
 322.525390625 566.533203125 303.889648438 566.555664062 302.465820312 566.048828125 c 0
 298.526367188 564.646484375 299.022460938 539.361328125 303.276367188 524.694335938 c 0
 306.047851562 515.138671875 306.487304688 507.546875 305.377929688 488.349609375 c 2
 303.975585938 464.083984375 l 1
 316.959633732 459.155595354 332.582058388 460.816632034 366.526367188 470.21484375 c 0
 395.4296875 478.217773438 402.880859375 481.442382812 410.958984375 489.446289062 c 0
 418.806640625 497.220703125 431.018554688 501.041015625 439.862304688 498.487304688 c 0
 446.333007812 496.619140625 459.072265625 488.584960938 461.923828125 484.575195312 c 0
 467.0078125 477.422851562 459.921875 461.216796875 450.21484375 457.798828125 c 0
 442.082641275 454.935408969 439.945754872 444.858106013 435.1171875 438.416992188 c 0
 433.013671875 435.61328125 431.234375 431.4609375 431.234375 429.357421875 c 0
 431.234375 427.206054688 429.166992188 421.485351562 426.596679688 416.524414062 c 0
 423.168945312 409.908203125 421.678710938 402.396484375 420.880859375 387.729492188 c 0
 419.814453125 368.1015625 419.872070312 367.805664062 426.172851562 360.551757812 c 0
 439.474609375 345.237304688 441.315429688 334.463867188 432.096679688 325.874023438 c 0
 424.885223435 319.154856763 399.93862972 319.964767397 390.360351562 324.962890625 c 0
 378.956196152 330.91193031 358.377635607 335.777879901 345.388671875 340.928710938 c 0
 332.3515625 346.100585938 327.486328125 346.340820312 301.603515625 343.091796875 c 0
 287.798828125 341.358398438 282.239257812 339.737304688 281.219726562 337.149414062 c 0
 280.446289062 335.185546875 279.52734375 319.5703125 279.168945312 302.314453125 c 0
 278.520507812 271.0390625 273.18359375 218.8125 269.801757812 210.645507812 c 0
 268.270507812 206.948242188 261.088867188 186.48828125 257.234375 174.840820312 c 0
 256.536132812 172.731445312 257.6015625 170.815429688 259.974609375 169.912109375 c 0
 263.711914062 168.490234375 372.56640625 168.323242188 402.116210938 169.694335938 c 0
 426.489257812 170.82421875 502.833984375 179.318359375 510.177734375 181.715820312 c 0
 519.328121533 184.703701833 539.977341787 187.043846675 548.139648438 191.125 c 0
 551.806640625 192.958984375 555.80078125 194.46875 556.983398438 194.46875 c 0
 558.16015625 194.46875 562.915039062 197.900390625 567.444335938 202.017578125 c 0
 580.113467117 213.535665391 597.139559439 210.508424412 608.102539062 200.196289062 c 0
 615.435546875 193.297851562 616.813476562 183.430664062 611.432617188 176.350585938 c 0
 609.0234375 173.1796875 608.551757812 167.075195312 609.348632812 149.388671875 c 0
 610.53515625 123.07421875 611.440429688 119.086914062 617.161132812 115.000976562 c 0
 620.784179688 112.413085938 621.084960938 110.348632812 619.75 97.19140625 c 0
 618.283203125 82.7392578125 618.45703125 81.9833984375 625.716796875 71.0927734375 c 0
 634.6328125 57.7197265625 643.030273438 49.07421875 653.397460938 42.59375 c 0
 663.76626868 36.1135539769 667.101375569 26.0091850635 677.771484375 19.5068359375 c 0
 684.672851562 15.2998046875 692.22265625 5.853515625 692.22265625 1.423828125 c 0
 692.22265625 0.826171875 688.232421875 -2.5390625 683.271484375 -6.1259765625 c 0
 675.9375 -11.4267578125 672.995117188 -12.3515625 666.986328125 -11.2412109375 c 0
 659.848632812 -9.9228515625 639.377929688 0.697265625 619.318359375 13.48828125 c 0
 610.029296875 19.4111328125 569.061523438 30.5419921875 556.551757812 30.5419921875 c 0
 553.103515625 30.5419921875 542.747070312 32.005859375 533.47265625 33.8037109375 c 0
 471.096879228 45.8977971803 459.263359249 45.8931825432 409.665039062 50.0654296875 c 0
 381.37890625 52.4453125 310.877929688 50.1455078125 281.328125 45.87890625 c 0
 245.763430186 40.7450038555 228.600693336 41.4056243982 187.501953125 31.3115234375 c 0
 135.735351562 18.599609375 128.319335938 16.1455078125 114.166015625 7.0419921875 c 0
 93.244140625 -6.4140625 72.7333984375 -11.9765625 65.6357421875 -6.1201171875 c 0
 62.501953125 -3.53515625 47.0859375 -6.1611328125 23.791015625 -13.248046875 c 0
 0.431558305094 -20.3542171501 -31.830668767 -4.21016657259 -11.474609375 15.875 c 0
 -0.751007570657 26.4570983717 9.62616267794 43.0339206806 18.7216796875 55.3466796875 c 0
 22.5458984375 60.5234375 25.732421875 65.6708984375 25.732421875 66.6708984375 c 0
 25.732421875 67.67578125 28.6787109375 71.5234375 32.2578125 75.1904296875 c 0
 46.5011549519 89.7845585898 54.3077700246 127.24936644 64.439453125 157.80078125 c 0
 81.3232421875 208.713867188 85.0849609375 227.469726562 96.8818359375 319.5703125 c 0
 102.210171093 361.17645403 107.056254011 384.992903602 114.030273438 420.946289062 c 0
 119.403320312 448.6484375 122.873046875 489.104492188 124.296875 540.655273438 c 0
 126.803710938 631.461914062 105.838867188 695.139648438 58.3017578125 741.109375 c 0
 50.3212890625 748.827148438 49.5849609375 750.408203125 50.7529296875 757.318359375 c 0
 52.0968386124 765.277326708 55.9287109375 766.47630421 55.9287109375 772.740234375 c 0
 55.9287109375 777.353515625 66.9296875 785.466796875 73.1845703125 785.466796875 c 0
 78.1142578125 785.466796875 88.283203125 780.698242188 96.9111328125 774.340820312 c 0
 99.876953125 772.15625 112.008789062 768.01171875 123.872070312 765.131835938 c 0
 256.307617188 732.984375 274.192382812 730.680664062 391.331054688 730.680664062 c 0
 489.040039062 730.680664062 555.482421875 736.01171875 592.140625 746.793945312 c 0
 614.427711736 753.349439374 613.043813152 751.600852809 636.142578125 759.971679688 c 0
 690.065429688 779.51171875 695.4140625 781.91015625 705.1640625 790.934570312 c 0
EndSplineSet
Validated: 524321
EndChar

StartChar: G
Encoding: 71 71 8
Width: 652
InSpiro: 1
Flags: HW
LayerCount: 2
Back
Fore
SplineSet
289.59765625 794.564453125 m 0
 324.666015625 802.755859375 373.688476562 798.834960938 408.991210938 785.016601562 c 0
 439.13671875 773.215820312 488.842773438 744.215820312 507.7578125 727.392578125 c 0
 539.635742188 699.041015625 546.965820312 666.856445312 529.5859375 631.553710938 c 0
 515.135742188 602.201171875 492.212890625 581.575195312 474.041992188 581.575195312 c 0
 453.01953125 581.575195312 440.326171875 589.041992188 440.326171875 601.408203125 c 0
 440.326171875 607.357421875 444.028320312 615.413085938 448.65625 619.53125 c 0
 466.90234375 635.770507812 479.9921875 658.189453125 479.9921875 673.202148438 c 0
 479.9921875 686.217773438 477.612304688 689.705078125 458.969726562 704.015625 c 0
 423.270507812 731.416015625 391.33984375 744.204101562 358.615234375 744.204101562 c 0
 326.486328125 744.204101562 295.604492188 736.119140625 272.14453125 721.56640625 c 0
 235.037109375 698.546875 152.497070312 600.614257812 119.052734375 539.926757812 c 0
 114.284179688 531.272460938 104.33984375 514.143554688 97.17578125 502.244140625 c 0
 74.8046875 465.086914062 63.5048828125 407.443359375 63.5048828125 330.493164062 c 0
 63.5048828125 236.881835938 97.7509765625 123.528320312 135.6953125 91.5439453125 c 0
 160.533203125 70.6083984375 184.880859375 63.7041015625 253.10546875 58.251953125 c 0
 346.170898438 50.814453125 387.365234375 70.4912109375 367.161132812 153.188476562 c 0
 358.825195312 187.30078125 350.153320312 208.586914062 339.365234375 221.413085938 c 0
 326.01953125 237.279296875 322.836914062 251.42578125 329.817382812 263.854492188 c 0
 334.848632812 272.813476562 338.1875 274.141601562 355.244140625 273.969726562 c 0
 366.04296875 273.860351562 392.727539062 271.540039062 414.543945312 268.8125 c 0
 436.467773438 266.072265625 478.603515625 262.524414062 508.749023438 260.879882812 c 0
 538.895507812 259.235351562 564.974609375 256.219726562 567.057617188 254.13671875 c 0
 569.13671875 252.057617188 571.359375 245.211914062 572.015625 238.865234375 c 0
 573.001953125 229.334960938 570.826171875 225.934570312 559.323242188 219.033203125 c 0
 547 211.639648438 537.705078125 210.546875 476.620117188 209.314453125 c 0
 414.7421875 208.06640625 408.014648438 207.286132812 409.921875 201.580078125 c 0
 440.419921875 110.349609375 440.747070312 57.2998046875 410.973632812 31.2080078125 c 0
 396.4765625 18.5029296875 347.509765625 0.5947265625 317.759765625 -2.8828125 c 0
 292.77734375 -5.802734375 216.61328125 0.794921875 186.467773438 8.490234375 c 0
 125.779296875 23.9814453125 75.2744140625 62.189453125 52.873046875 109.555664062 c 0
 32.6005859375 152.420898438 17.599609375 201.9765625 6.0458984375 264.250976562 c 0
 -4.845703125 322.956054688 0.9306640625 433.1953125 17.1650390625 476.461914062 c 0
 45.443359375 551.826171875 118.534179688 661.4765625 184.087890625 726.879882812 c 0
 226.92578125 769.62109375 252.189453125 785.827148438 289.59765625 794.564453125 c 0
  Spiro
    289.598 794.564 o
    328.251 798.8 o
    370.182 795.447 o
    408.991 785.017 o
    443.754 768.591 o
    480.478 747.165 o
    507.758 727.393 o
    531.432 697.821 o
    538.734 665.757 o
    529.586 631.554 o
    512.82 605.573 o
    493.287 587.997 o
    474.042 581.575 o
    455.973 583.964 o
    444.388 590.779 o
    440.326 601.408 o
    441.455 607.829 o
    444.443 614.331 o
    448.656 619.531 o
    464.876 637.308 o
    475.931 656.242 o
    479.992 673.202 o
    478.688 683.787 o
    472.696 692.568 o
    458.97 704.016 o
    424.391 726.595 o
    391.211 739.883 o
    358.615 744.204 o
    327.161 741.574 o
    297.822 733.893 o
    272.145 721.566 o
    223.451 677.79 o
    165.306 608.802 o
    119.053 539.927 o
    112.861 528.968 o
    104.964 515.365 o
    97.1758 502.244 o
    78.5185 458.353 o
    67.2555 400.9 o
    63.5049 330.493 o
    73.7694 234.142 o
    100.147 146.832 o
    135.695 91.5439 o
    161.984 74.8326 o
    197.907 64.6462 o
    253.105 58.252 o
    328.47 61.1678 o
    367.272 90.213 o
    367.161 153.188 o
    358.656 183.161 o
    349.504 205.624 o
    339.365 221.413 o
    329.414 236.691 o
    326.225 250.867 o
    329.817 263.854 o
    334.85 270.492 o
    342.199 273.416 o
    355.244 273.97 o
    370.55 273.192 o
    391.896 271.335 o
    414.544 268.812 o
    441.981 265.906 o
    475.834 263.056 o
    508.749 260.88 o
    536.776 258.866 o
    557.73 256.443 o
    567.058 254.137 o
    569.119 250.668 o
    570.902 245.177 o
    572.016 238.865 o
    571.721 231.028 o
    567.939 225.119 o
    559.323 219.033 o
    545.996 213.505 o
    522.439 210.737 o
    476.62 209.314 o
    431.433 208.024 o
    412.607 205.841 o
    409.922 201.58 o
    430.355 122.728 o
    430.701 66.6562 o
    410.974 31.208 o
    387.007 17.5097 o
    351.89 4.66686 o
    317.76 -2.88281 o
    279.365 -2.94454 o
    228.303 1.47869 o
    186.468 8.49023 o
    129.889 31.0224 o
    83.9394 65.7841 o
    52.873 109.556 o
    34.3071 154.826 o
    18.8022 206.047 o
    6.0459 264.251 o
    0.480762 335.665 o
    4.65524 415.335 o
    17.165 476.462 o
    58.3897 560.257 o
    118.025 649.722 o
    184.088 726.88 o
    222.134 761.455 o
    255.17 782.647 o
    0 0 z
  EndSpiro
EndSplineSet
Validated: 524321
EndChar

StartChar: H
Encoding: 72 72 9
Width: 966
Flags: HW
LayerCount: 2
Back
Fore
SplineSet
245.88671875 183.424804688 m 0
 245.88671875 167.538507729 258.051757812 125.776388114 258.051757812 108.76171875 c 0
 258.051757812 99.029296875 260.267578125 90.271484375 264.438476562 83.5185546875 c 0
 268.006835938 77.740234375 270.102539062 71.2998046875 269.1875 68.9208984375 c 0
 266.435546875 61.7666015625 272.041015625 60.8291015625 283.90234375 66.4599609375 c 0
 297.082578598 72.7183198089 300.62890625 68.2384474507 300.62890625 57.66796875 c 0
 300.62890625 54.7958984375 306.711914062 48.1533203125 314.314453125 42.72265625 c 0
 329.5546875 31.8369140625 330.049804688 30.296875 323.390625 14.482421875 c 0
 316.192382812 -2.6142578125 303.974609375 -8.494140625 279.64453125 -6.5693359375 c 0
 262.61328125 -5.22265625 258.53515625 -5.880859375 252.729492188 -10.912109375 c 0
 247.080078125 -15.80859375 239.651367188 -17.1611328125 210.151367188 -18.66796875 c 0
 177.9140625 -20.3134765625 171.8125 -19.748046875 147.805664062 -12.8896484375 c 0
 121.346679688 -5.3291015625 121.0703125 -5.3154296875 99.44921875 -10.4560546875 c 0
 81.505859375 -14.72265625 75.3916015625 -15.0146484375 64.474609375 -12.12890625 c 0
 57.17578125 -10.19921875 46.6103515625 -8.6318359375 40.9052734375 -8.6318359375 c 0
 26.2006067129 -8.6318359375 19.3866753641 -1.74111222532 31.93359375 9.16015625 c 0
 45.5253561117 20.9701499908 39.8937598111 25.2741232592 59.7607421875 32.42578125 c 0
 73.4462890625 37.3525390625 75.33203125 39.2080078125 78.6171875 50.9775390625 c 0
 83.7148930635 69.2461932436 78.0948056787 115.263785469 77.06640625 135.524414062 c 0
 74.0537109375 194.829101562 72.3046875 216.1640625 69.5341796875 227.37109375 c 0
 64.327637422 248.429458522 63.4495948253 283.210800599 58.65234375 306.139648438 c 0
 37.5078843 407.192061931 38.1038199442 472.053239255 33.1494140625 590.498046875 c 0
 30.7587890625 647.673828125 28.2529296875 678.078125 25.2275390625 686.602539062 c 0
 19.1845703125 703.6328125 2.4033203125 721.272460938 -7.7548828125 721.272460938 c 0
 -18.3994140625 721.272460938 -38.9609375 731.916992188 -43.0029296875 739.520507812 c 0
 -44.6708984375 742.657226562 -46.0751953125 750.165039062 -46.0751953125 755.943359375 c 0
 -46.0751953125 772.825195312 -40.6005859375 774.232421875 14.75 771.58203125 c 0
 40.7353515625 770.337890625 100.513671875 769.59765625 147.958007812 769.932617188 c 0
 222.1640625 770.45703125 235.03125 769.870117188 241.32421875 765.674804688 c 0
 256.033203125 755.869140625 251.056640625 746.98828125 208.478515625 707.060546875 c 0
 186.879882812 686.805664062 185.915039062 679.607421875 193.758789062 597.188476562 c 0
 200.907226562 522.069335938 205.735351562 476.083007812 208.125976562 460.33203125 c 0
 209.510742188 451.208007812 210.553710938 450.206054688 216.994140625 451.81640625 c 0
 220.948242188 452.8046875 230.984375 452.041992188 238.891601562 450.153320312 c 0
 250.783203125 447.311523438 337.428710938 444.752929688 456.341796875 443.73046875 c 0
 465.465820312 443.65234375 472.993164062 445.4296875 476.4140625 448.470703125 c 0
 480.907226562 452.46484375 489.795898438 453.358398438 525.987304688 453.454101562 c 0
 571.606445312 453.575195312 607.293945312 450.422851562 626.95703125 444.537109375 c 0
 640.947265625 440.348632812 644.291992188 442.22265625 644.291992188 454.249023438 c 0
 644.291992188 459.46484375 646.466796875 476.450195312 649.158203125 492.265625 c 0
 652.885742188 514.162109375 653.27734375 523.842773438 650.831054688 533.625976562 c 0
 649.08203125 540.624023438 646.077148438 562.213867188 644.185546875 581.374023438 c 0
 638.211914062 641.895507812 633.31640625 666.447265625 625.56640625 674.741210938 c 0
 621.856445312 678.7109375 614.514648438 689.947265625 609.469726562 699.375 c 0
 601.658203125 713.973632812 597.745117188 717.83984375 584.68359375 723.861328125 c 0
 566.435546875 732.274414062 557.064453125 745.16015625 562.235351562 754.7265625 c 0
 564.043945312 758.072265625 566.823242188 760.80859375 568.413085938 760.80859375 c 0
 569.98828125 760.80859375 573.203125 765.37109375 575.483398438 770.845703125 c 0
 580.736328125 783.450195312 591.374023438 790.603515625 606.581054688 791.752929688 c 0
 617.774414062 792.599609375 624.828125 791.62109375 655.544921875 784.958007812 c 0
 673.6171875 781.038085938 736.747070312 775.431640625 758.33984375 775.830078125 c 0
 808.216796875 776.748046875 818.891601562 776.0625 823.727539062 771.630859375 c 0
 826.463867188 769.122070312 830.471679688 766.891601562 832.2421875 766.891601562 c 0
 838.333007812 766.891601562 845.853515625 752.293945312 843.836914062 744.385742188 c 0
 842.80859375 740.356445312 830.942382812 725.986328125 817.340820312 712.30078125 c 2
 792.706054688 687.514648438 l 1
 794.987304688 513.553710938 l 2
 797.23988278 341.72193932 797.396477929 352.550872877 800.362304688 240.751953125 c 0
 801.88671875 183.272460938 806.89453125 146.8828125 814.298828125 139.478515625 c 0
 816.2109375 137.56640625 817.64453125 133.395507812 817.64453125 129.74609375 c 0
 817.64453125 126.247070312 822.112304688 118.341796875 827.528320312 112.258789062 c 0
 836.489421832 102.194683505 859.355612723 71.1109575953 872.995117188 68.3564453125 c 0
 884.856445312 65.9619140625 889.708984375 54.408203125 883.103515625 44.2861328125 c 0
 877.611328125 35.8701171875 860.526367188 34.6064453125 848.057617188 41.6953125 c 0
 835.284179688 48.95703125 828.055664062 47.5771484375 828.1796875 37.900390625 c 0
 828.274414062 30.51953125 827.072265625 29.4248046875 819.165039062 29.6884765625 c 0
 811.131188278 29.9564817888 780.403521995 37.7076728993 773.545898438 37.505859375 c 0
 743.7421875 36.6240234375 710.372070312 31.623046875 686.56640625 24.470703125 c 0
 661.69216391 16.9975801536 631.761894511 7.16584425784 618.07421875 22.998046875 c 0
 605.37890625 37.6806640625 609.013671875 48.1865234375 630.606445312 59.22265625 c 0
 638.827148438 63.423828125 643.543945312 71.658203125 651.318359375 95.3798828125 c 0
 652.296875 98.3662109375 656.153320312 100.854492188 659.802734375 100.854492188 c 0
 665.75 100.854492188 666.274414062 101.918945312 664.516601562 110.434570312 c 0
 663.4296875 115.700195312 664.741210938 143.431640625 667.427734375 172.01953125 c 0
 672.630859375 227.37109375 672.177734375 242.046875 664.22265625 275.7265625 c 0
 661.442382812 287.498046875 657.822265625 308.572265625 656.125976562 322.866210938 c 0
 651.756835938 359.666015625 649.782226562 363.431640625 635.776367188 361.680664062 c 0
 612.05493995 358.717390076 613.255906738 350.991255494 578.296875 355.560546875 c 0
 553.662109375 358.779296875 550.578125 358.561523438 539.520507812 352.823242188 c 0
 528.615234375 347.163085938 525.53125 346.896484375 506.06640625 349.93359375 c 0
 477.648896358 354.367614437 483.981680955 351.110781874 455.733398438 354.280273438 c 0
 397.341796875 360.830078125 233.044921875 356.655273438 224.88671875 348.413085938 c 0
 224.063476562 347.58203125 225.174804688 333.510742188 227.334960938 317.392578125 c 0
 231.827959474 283.865709296 233.783207678 241.757810961 241.172851562 212.924804688 c 0
 243.744140625 202.888671875 245.88671875 189.479492188 245.88671875 183.424804688 c 0
154.6484375 664.857421875 m 0
 154.6484375 667.59375 153.373046875 669.571289062 151.607421875 669.571289062 c 0
 149.782226562 669.571289062 148.565429688 668.415039062 148.565429688 666.681640625 c 0
 148.565429688 663.673993718 154.6484375 658.183005291 154.6484375 664.857421875 c 0
185.365234375 387.950195312 m 0
 185.780197691 380.07642437 188.887893995 389.901168505 186.885742188 391.903320312 c 0
 185.92578125 392.864257812 185.205078125 390.991210938 185.365234375 387.950195312 c 0
264.133789062 27.8642578125 m 0
 264.133789062 29.5224609375 260.33203125 30.9052734375 255.770507812 30.9052734375 c 0
 249.383789062 30.9052734375 248.485351562 30.19921875 251.96875 27.9189453125 c 0
 258.051757812 23.9375 264.133789062 23.91015625 264.133789062 27.8642578125 c 0
EndSplineSet
Validated: 524321
EndChar

StartChar: I
Encoding: 73 73 10
Width: 454
Flags: HW
LayerCount: 2
Back
Fore
SplineSet
143.890625 555.784179688 m 0
 151.837903467 565.81352378 159.205078125 546.418060393 159.205078125 540.336914062 c 0
 159.205078125 533.875212522 174.805520583 544.122743849 176.893554688 545.927734375 c 0
 184.636352834 552.620114877 193.180056232 542.199414403 189.809570312 534.086914062 c 0
 185.006835938 522.53125 159.76953125 516.911132812 150.833007812 525.408203125 c 0
 142.459960938 533.3671875 138.8046875 549.366210938 143.890625 555.784179688 c 0
172.17578125 578.307617188 m 0
 172.17578125 583.427672651 172.280383922 586.08984375 177.423828125 586.08984375 c 0
 183.466238833 586.08984375 192.583506297 572.145734122 185.795898438 567.75390625 c 0
 178.586382545 563.088776156 172.17578125 575.416132023 172.17578125 578.307617188 c 0
146.55859375 581.255859375 m 0
 144.584922762 596.001269572 165.940373021 580.913729648 159.836914062 571.5859375 c 0
 154.855692299 563.976777939 147.411719074 574.879161718 146.55859375 581.255859375 c 0
365.56640625 456.376953125 m 0
 365.56640625 458.047851562 366.4453125 457.674804688 367.231445312 455.669921875 c 0
 368.168767065 453.278211206 365.56640625 455.295847888 365.56640625 456.376953125 c 0
229.30859375 438.689453125 m 0
 251.091435498 438.689453125 237.883238601 300.066229033 236.501953125 270.65234375 c 0
 234.334899823 224.503767761 228.060478754 190.21138221 232.315429688 149.783203125 c 0
 232.966796875 143.59765625 233.547851562 126.434570312 233.61328125 111.458984375 c 2
 233.731445312 84.3369140625 l 1
 228.896484375 66.826171875 l 2
 226.2265625 57.15625 224.061523438 48.5751953125 224.061523438 47.6640625 c 0
 224.061523438 45.77734375 226.608398438 45.494140625 228.306640625 47.1923828125 c 0
 231.414245593 50.2984799667 266.086109886 42.8596916285 272.409179688 41.9365234375 c 0
 319.813476562 35.0185546875 351.84765625 23.6806640625 367.571289062 8.2548828125 c 0
 373.703125 2.2392578125 374.798828125 0.5966796875 373.848632812 -1.1552734375 c 0
 372.625 -3.412109375 368.90234375 -3.16015625 366.868164062 -0.68359375 c 0
 366.130859375 0.2138671875 359.139648438 0.55859375 344.1640625 0.4365234375 c 0
 317.184355601 0.214859178941 266.300952934 7.17633759894 254.602539062 6.990234375 c 0
 226.232559054 6.54093138613 185.147460938 -9.0344236294 185.147460938 26.4375 c 0
 185.147460938 35.7521679797 179.915450387 34.3266397669 170.171875 35.3994140625 c 1
 169.017393562 27.7040737252 167.83794003 18.205781283 169.240234375 11.4619140625 c 0
 171.923365608 -1.44677514883 156.506936043 6.55235332007 147.6484375 4.8466796875 c 0
 118.422955671 -0.785055775384 38.7328987222 -25.216156049 22.53515625 -22.9111328125 c 0
 17.7001953125 -22.22265625 4.728515625 -17.1982421875 4.728515625 -16.013671875 c 0
 4.728515625 -15.76171875 4.4189453125 -14.716796875 4.0654296875 -13.7734375 c 0
 3.060546875 -11.0927734375 12.865234375 -1.72265625 26.072265625 7.255859375 c 0
 47.9980822572 22.1629004966 92.8421501691 42.0681448132 110.032226562 44.244140625 c 1
 109.85546875 57.21484375 l 2
 109.7578125 64.3671875 108.755859375 79.9736328125 107.622070312 92.001953125 c 0
 105.131835938 118.416015625 105.193359375 146.180664062 107.788085938 166.881835938 c 0
 112.177826515 201.90795634 115.267745806 340.482441936 109.122070312 412.157226562 c 0
 107.727539062 428.4296875 107.98828125 439.791015625 109.795898438 441.538085938 c 0
 112.015625 443.682617188 120.581054688 440.33984375 121.9296875 436.802734375 c 0
 123.592185469 432.447400189 122.945159439 415.937073062 123.887695312 410.977539062 c 0
 125.587657158 402.033207322 127.518972692 313.250645795 128.619140625 304.259765625 c 0
 130.993164062 284.872070312 128.443359375 210.866210938 123.655273438 160.16015625 c 0
 120.52131912 126.970181156 124.408838956 97.2744503241 126.127929688 66.236328125 c 0
 126.885710284 52.5598715669 124.903676348 44.7939622056 133.379882812 47.16796875 c 0
 145.686164872 50.6136028848 179.249208537 49.7278124033 204.604492188 46.9560546875 c 1
 217.583608511 76.0324860701 217.833173614 95.2357932355 215.647460938 151.551757812 c 0
 213.120639912 216.617880329 220.415132477 281.200710047 225.198242188 343.172851562 c 0
 227.426757812 372.063476562 225.958984375 424.577148438 222.756835938 430.552734375 c 0
 221.377929688 433.125976562 216.278320312 433.85546875 191.043945312 435.09375 c 0
 160.73828125 436.581054688 126.825195312 440.73046875 121.116210938 443.650390625 c 0
 117.814453125 445.337890625 114.123046875 453.642578125 115.510742188 456.259765625 c 0
 117.225461483 459.493451409 126.979401473 457.379385744 130.314453125 456.40625 c 0
 139.252929688 453.796875 169.463867188 451.0625 202.009765625 449.916015625 c 0
 217.576171875 449.368164062 219.844726562 449.021484375 223 446.708007812 c 0
 225.229645202 445.072427844 227.69427614 438.689453125 229.30859375 438.689453125 c 0
236.561523438 35.50390625 m 0
 231.254882812 38.0732421875 229.95703125 38.28515625 229.95703125 36.5791015625 c 0
 229.95703125 31.423290767 211.974686137 31.2696234897 202.8359375 31.5087890625 c 1
 203.046672925 28.5539987599 203.360618324 20.2265088426 204.369140625 19.3037109375 c 0
 204.7578125 18.9462890625 215.099609375 19.326171875 227.36328125 20.1474609375 c 0
 252.5390625 21.833984375 262.149414062 21.2294921875 304.248046875 15.30859375 c 0
 380.144635895 4.63691295962 317.522363998 20.3511700408 262.975585938 29.5849609375 c 0
 250.947265625 31.6201171875 239.096679688 34.2763671875 236.561523438 35.50390625 c 0
149.525390625 29.50390625 m 0
 148.723752888 39.1180684263 99.9638883405 24.502079063 84.3251953125 18.4931640625 c 0
 61.3310546875 9.6591796875 40.0576171875 -0.904296875 34.4443359375 -6.2763671875 c 0
 32.6504339505 -7.99266826016 26.3967393174 -11.7685546875 28.90234375 -11.7685546875 c 0
 41.5805305093 -11.7685546875 118.95287797 15.0201592208 141.870117188 18.2744140625 c 0
 148.263671875 19.1826171875 150.154296875 21.95703125 149.525390625 29.50390625 c 0
167.458984375 782.9609375 m 0
 184.15611889 785.840541865 226.412034837 794.253148054 238.09375 785.633789062 c 0
 243.58796278 781.58217266 246.262139761 783.236733465 250.493164062 776.415039062 c 0
 259.804243145 761.398420195 246.632153734 679.668989699 254.485351562 671.924804688 c 0
 258.870332666 667.605692399 303.974483012 666.542607491 306.428710938 665.21484375 c 0
 308.532851233 664.07919391 336.308033637 663.744627612 338.5625 662.637695312 c 0
 344.155827541 659.889677154 343.67582818 637.500783469 347.982421875 630.428710938 c 0
 354.145507812 620.30859375 349.8828125 618.23828125 321.110351562 617.377929688 c 0
 298.470677435 616.70069083 238.387643242 615.582392955 229.013671875 613.70703125 c 0
 225.618164062 613.028320312 225.665039062 611.678710938 229.25 606.961914062 c 0
 247.252935718 583.276988666 244.62575535 528.821338663 221.821289062 510.76171875 c 0
 190.13225138 485.66611855 119.427348417 492.556402485 106.646484375 530.66796875 c 0
 98.1466444567 556.013971308 113.587378935 588.026602074 121.038085938 597.764648438 c 0
 123.203125 600.594726562 125.0078125 603.489257812 125.0078125 604.131835938 c 0
 125.0078125 605.331054688 81.7314453125 604.513671875 66.9912109375 603.037109375 c 0
 55.4163718734 601.87800331 56.5704481011 608.072725252 49.4794921875 610.323242188 c 0
 46.7366349926 611.193417643 40.4767375183 618.987715351 42.345703125 622.46875 c 0
 43.076171875 623.831054688 43.642578125 626.713867188 43.642578125 629.072265625 c 0
 43.642578125 633.894264924 45.53284144 644.128129256 46.47265625 649.532226562 c 1
 64.9252341567 651.643692362 89.3625628642 655.239583336 109.088867188 652.774414062 c 0
 126.403044233 650.610141932 117.34627156 666.033395636 118.404296875 682.13671875 c 2
 119.229492188 694.6953125 l 1
 104.064551184 690.906693699 111.572914097 710.269203159 117.342773438 716.0390625 c 0
 122.673936184 721.370225247 116.287741842 734.298388528 114.395507812 743.396484375 c 1
 119.413634974 748.676961988 123.765159233 753.488782546 127.892578125 761.203125 c 0
 133.634765625 771.93359375 136.305664062 774.763671875 140.69140625 774.763671875 c 0
 142.696289062 774.763671875 145.1484375 775.58984375 146.3515625 776.669921875 c 0
 148.549804688 778.643554688 156.96484375 781.151367188 167.458984375 782.9609375 c 0
232.036132812 771.580078125 m 0
 229.05982588 780.398008086 216.089291742 766.187035973 211.916015625 762.491210938 c 0
 204.033203125 755.509765625 184.20703125 731.840820312 177.55078125 721.463867188 c 0
 174.603515625 716.868164062 177.270507812 717.21875 182.041015625 722.052734375 c 0
 186.870117188 726.947265625 215.453125 754.477539062 225.004882812 763.434570312 c 0
 229.131835938 767.3046875 232.256835938 770.924804688 232.036132812 771.580078125 c 0
170.760742188 751.1796875 m 0
 172.04286153 751.1796875 177.6155901 755.896484375 178.897460938 755.896484375 c 0
 183.025390625 755.896484375 195.760742188 766.31640625 195.760742188 769.693359375 c 0
 195.760742188 773.02390319 182.7890625 769.879101644 182.7890625 767.5703125 c 0
 182.7890625 765.617286694 165.897924811 751.1796875 170.760742188 751.1796875 c 0
154.48828125 760.731445312 m 0
 154.48828125 766.669249996 141.876081063 755.896484375 148.591796875 755.896484375 c 0
 149.889648438 755.896484375 154.48828125 759.66796875 154.48828125 760.731445312 c 0
240.5703125 750 m 0
 240.5703125 756.096679688 239.508789062 755.486328125 222.881835938 739.8203125 c 0
 205.492987677 723.433391453 177.274115544 697.74284642 161.869140625 681.252929688 c 0
 157.352539062 676.41796875 155.631835938 673.3515625 157.436523438 673.3515625 c 0
 161.446350334 673.3515625 184.383051477 694.665542453 191.043945312 700.296875 c 0
 194.653320312 703.348632812 200.458007812 708.787109375 204.1328125 712.560546875 c 0
 207.807617188 716.333984375 211.311523438 719.340820312 212.033203125 719.340820312 c 0
 214.107288972 719.340820312 219.24639317 727.565826245 222.3515625 729.954101562 c 0
 226.625738349 733.24171169 240.5703125 744.151529226 240.5703125 750 c 0
238.211914062 708.138671875 m 0
 238.211914062 718.633789062 237.865234375 721.69921875 236.678710938 721.69921875 c 0
 234.584960938 721.69921875 229.95703125 716.747070312 229.95703125 714.505859375 c 0
 229.95703125 713.609375 227.481445312 710.436523438 224.533203125 707.557617188 c 0
 210.029296875 693.392578125 209.8359375 693.135742188 212.504882812 691.487304688 c 0
 213.331054688 690.977539062 213.501953125 691.158203125 212.9765625 691.983398438 c 0
 212.870307897 692.150431535 223.520226792 701.65234375 225.358398438 701.65234375 c 0
 228.541992188 701.65234375 234.212890625 698.55078125 235.057617188 696.346679688 c 0
 235.418945312 695.403320312 236.313476562 694.577148438 236.973632812 694.577148438 c 0
 237.749023438 694.577148438 238.211914062 699.6484375 238.211914062 708.138671875 c 0
128.545898438 687.1484375 m 0
 128.545898438 682.225505447 133.247425439 693.3984375 128.427734375 693.3984375 c 0
 126.976673076 693.3984375 128.545898438 688.628887718 128.545898438 687.1484375 c 0
239.391601562 686.263671875 m 0
 239.391601562 687.429740769 237.033203125 689.559785812 237.033203125 686.971679688 c 0
 237.033203125 685.91015625 237.52734375 685.143554688 238.211914062 685.143554688 c 0
 238.919921875 685.143554688 239.391601562 685.591796875 239.391601562 686.263671875 c 0
239.391601562 672.76171875 m 0
 239.391601562 683.640623524 231.608398438 667.76953125 231.608398438 667.76953125 c 1
 232.6171875 666.765625 239.391601562 671.111328125 239.391601562 672.76171875 c 0
244.756835938 627.598632812 m 0
 256.600327588 628.019571267 256.338465848 628.330709297 250.829101562 634.615234375 c 0
 242.869417205 643.692682972 240.953919304 631.675069926 234.025390625 630.369140625 c 0
 231.666992188 629.924804688 229.95703125 628.909179688 229.95703125 627.952148438 c 0
 229.95703125 625.695979522 238.800794671 627.387410467 244.756835938 627.598632812 c 0
290.451171875 634.143554688 m 0
 287.509561766 638.635338758 287.645674004 640.405844815 281.134765625 637.150390625 c 0
 277.59765625 635.380859375 274.091796875 631.131835938 275.239257812 630.002929688 c 0
 276.853526578 628.415260613 295.354426732 626.651476707 290.451171875 634.143554688 c 0
318.3984375 630.900390625 m 0
 318.3984375 631.607421875 317.926757812 632.079101562 317.21875 632.079101562 c 0
 316.51171875 632.079101562 316.040039062 631.607421875 316.040039062 630.900390625 c 0
 316.040039062 630.192382812 316.51171875 629.720703125 317.21875 629.720703125 c 0
 317.926757812 629.720703125 318.3984375 630.192382812 318.3984375 630.900390625 c 0
268.87109375 629.720703125 m 0
 268.87109375 630.349609375 268.045898438 630.900390625 267.102539062 630.900390625 c 0
 266.159179688 630.900390625 265.333984375 630.349609375 265.333984375 629.720703125 c 0
 265.333984375 629.091796875 266.159179688 628.541992188 267.102539062 628.541992188 c 0
 268.045898438 628.541992188 268.87109375 629.091796875 268.87109375 629.720703125 c 0
67.2265625 618.940429688 m 0
 71.464003978 619.521793628 71.3223675607 619.452672313 69.2900390625 623.235351562 c 0
 67.6435546875 626.301757812 67.505859375 626.344726562 65.576171875 624.415039062 c 0
 62.6513671875 621.490234375 63.5712890625 618.440429688 67.2265625 618.940429688 c 0
207.90625 607.485351562 m 0
 201.684570312 610.452148438 199.357421875 610.936523438 192.282226562 610.735351562 c 0
 185.48071399 610.543291866 155.229006852 610.216480562 147.766601562 604.110351562 c 0
 130.4609375 589.952148438 117.876953125 563.920898438 117.962890625 542.459960938 c 0
 118.026367188 526.624023438 125.361328125 518.596679688 144.346679688 513.584960938 c 0
 158.55336394 509.834252268 176.079807161 507.761189717 189.274414062 512.416015625 c 0
 214.534511766 521.325371602 228.729615431 539.681428669 227.250976562 572.529296875 c 0
 226.299804688 593.637695312 222.483398438 600.534179688 207.90625 607.485351562 c 0
EndSplineSet
Validated: 524321
EndChar

StartChar: J
Encoding: 74 74 11
Width: 863
Flags: HW
LayerCount: 2
Back
Fore
SplineSet
344.557617188 532.546875 m 1
 335.301722343 538.100875803 321.519920263 546.57062997 329.618164062 557.634765625 c 0
 344.771484375 578.338867188 345.912109375 581.248046875 344.614257812 595.875976562 c 0
 343.922851562 603.669921875 341.612304688 612.810546875 339.564453125 615.848632812 c 0
 335.9921875 621.149414062 334.571289062 621.421875 313.13671875 620.911132812 c 0
 289.75390625 620.354492188 262.731445312 614.002929688 244.936523438 604.879882812 c 0
 240.065429688 602.3828125 232.063476562 600.259765625 227.521484375 600.259765625 c 0
 222.852539062 600.259765625 215.220703125 598.638671875 210.349609375 596.612304688 c 0
 197.196289062 591.140625 183.881835938 592 176.4921875 598.798828125 c 0
 170.776367188 604.057617188 170.552734375 605.131835938 172.838867188 616.3359375 c 0
 174.180664062 622.912109375 176.750976562 629.965820312 178.5625 632.045898438 c 0
 182.934922644 637.065406972 187.380363817 702.340423875 189.278320312 710.841796875 c 0
 192.268554688 724.23828125 190.600585938 728.358398438 178.44140625 737.623046875 c 0
 166.201171875 746.948242188 167.237304688 750.6171875 182.58203125 752.296875 c 0
 199.240783016 754.120859375 261.537375958 760.362078747 277.087890625 763.33203125 c 0
 311.751577152 769.947764663 341.18783466 775.595113504 389.618164062 780.625 c 0
 417.385742188 783.509765625 442.7734375 786.592773438 446.126953125 787.489257812 c 0
 453.69921875 789.512695312 539.171875 786.50390625 575.951171875 782.918945312 c 2
 603.231445312 780.259765625 l 1
 621.012695312 790.118164062 l 2
 642.203125 801.866210938 652.547851562 802.838867188 658.629882812 793.65625 c 0
 661.6953125 789.028320312 661.961914062 786.865234375 659.740234375 784.64453125 c 0
 652.040039062 776.944335938 661.688476562 775.4609375 701.877929688 778.1640625 c 0
 738.901367188 780.654296875 760.91796875 778.521484375 765.7265625 771.978515625 c 0
 769.673828125 766.607421875 770.047851562 752.493164062 766.513671875 742.262695312 c 0
 763.194269464 732.651886729 771.540039062 715.736124721 771.540039062 706.213867188 c 0
 771.540039062 702.252929688 774.329101562 692.939453125 777.62890625 685.875976562 c 0
 783.018554688 674.34375 783.71875 669.677734375 783.71875 645.321289062 c 0
 783.71875 613.184570312 785.666992188 615.588867188 753.272460938 607.758789062 c 0
 653.89453125 583.737304688 661.125976562 584.813476562 612.974609375 586.875 c 0
 523.095703125 590.72265625 514.892578125 589.931640625 492.649414062 575.271484375 c 0
 476.454101562 564.59765625 475.875976562 558.365234375 488.73046875 533.034179688 c 0
 501.172975255 508.51357737 499.160485776 493.028515507 505.072265625 464.46875 c 0
 507.995117188 450.340820312 508.213867188 443.423828125 506.16796875 429.880859375 c 0
 504.756835938 420.541015625 503.719726562 397.120117188 503.853515625 377.634765625 c 0
 503.98828125 358.1484375 503.357421875 341.115234375 502.4453125 339.637695312 c 0
 499.06640625 334.15625 501.243164062 269.000976562 505.115234375 259.74609375 c 0
 509.608398438 249.004882812 509.985351562 148.432617188 505.66015625 114.333007812 c 0
 504.131835938 102.28125 502.76953125 80.841796875 502.635742188 66.71484375 c 0
 502.439453125 46.0107421875 501.587890625 40.212890625 498.251953125 36.876953125 c 0
 496.059570312 34.6845703125 492.850585938 32.736328125 491.431640625 32.736328125 c 0
 489.986328125 32.736328125 483.758789062 29.818359375 477.913085938 26.4033203125 c 0
 467.926757812 20.568359375 467.189453125 19.4482421875 468.536132812 12.154296875 c 0
 472.159646576 -7.4756355733 442.716796875 -7.76062308789 442.716796875 6.4306640625 c 0
 442.716796875 12.2724609375 449.293945312 12.7314453125 369.888671875 1.34765625 c 0
 311.051757812 -7.087890625 301.932617188 -7.0185546875 234.462890625 2.3720703125 c 0
 195.141473463 7.84469919714 189.336604962 6.77481519005 165.044921875 13.25 c 0
 159.041015625 14.8515625 145.4375 16.50390625 134.963867188 16.904296875 c 0
 118.400390625 17.537109375 114.963867188 18.4814453125 109.266601562 23.9677734375 c 0
 105.61328125 27.4853515625 101.174804688 30.3251953125 99.2802734375 30.3564453125 c 0
 86.5810546875 30.564453125 36.6396484375 62.6953125 27.0576171875 76.822265625 c 0
 23.248046875 82.439453125 15.0390625 92.6552734375 8.85546875 99.474609375 c 0
 -0.8623046875 110.192382812 -22.505859375 144.65234375 -22.505859375 149.407226562 c 0
 -22.505859375 150.336914062 -25.869140625 154.765625 -29.904296875 159.150390625 c 0
 -44.4372714016 174.936644314 -29.0832427971 181.106831819 -19.2177734375 187.526367188 c 0
 -15.0185546875 190.259765625 -4.5751953125 202.993164062 3.8544921875 215.659179688 c 0
 25.73828125 248.541015625 43.033203125 267.29296875 60.0654296875 276.602539062 c 0
 69.0771484375 281.528320312 75.169921875 286.55078125 75.9580078125 289.705078125 c 0
 78.3330078125 299.204101562 86.955078125 307.97265625 93.921875 307.97265625 c 0
 102.41015625 307.97265625 105.145507812 306.024414062 109.990234375 296.525390625 c 0
 114.834960938 287.025390625 114.948242188 280.52734375 110.419921875 271.923828125 c 0
 107.775390625 266.899414062 107.383789062 262.668945312 108.931640625 255.848632812 c 0
 113.463867188 235.875976562 155.301757812 184.55859375 175.274414062 174.474609375 c 0
 185.302734375 169.411132812 212.053710938 159.036132812 227.155273438 154.352539062 c 0
 238.944324974 150.697670524 248.816146208 156.435903228 260.525390625 158.053710938 c 0
 269.78125 159.333984375 273.5703125 161.41015625 280.314453125 168.893554688 c 0
 289.75390625 179.3671875 289.75390625 179.3671875 295.642578125 206.890625 c 0
 302.910276797 240.856121408 313.333390976 331.297551868 318.622070312 362.776367188 c 0
 322.962124139 388.611233763 325.651665372 428.142617292 330.673828125 450.462890625 c 0
 335.545152664 472.119318142 338.954360302 496.129947673 342.365234375 518.297851562 c 2
 344.557617188 532.546875 l 1
659.11328125 616.3359375 m 0
 655.71846646 634.52933096 615.939848461 605.131835938 641.959960938 605.131835938 c 0
 653.1640625 605.131835938 660.329101562 609.811523438 659.11328125 616.3359375 c 0
15.4228515625 150.869140625 m 0
 12.9404296875 161.098632812 9.158203125 164.481445312 9.158203125 156.470703125 c 0
 9.158203125 153.060546875 11.013671875 148.620117188 13.177734375 146.849609375 c 0
 16.7939453125 143.890625 17.0185546875 144.291992188 15.4228515625 150.869140625 c 0
EndSplineSet
Validated: 524321
EndChar

StartChar: K
Encoding: 75 75 12
Width: 706
Flags: HW
LayerCount: 2
Back
Fore
SplineSet
136.498046875 575.421875 m 0
 141.965932269 575.421875 225.886781254 645.139648438 231.61328125 645.139648438 c 0
 235.098632812 645.139648438 237.837890625 646.783203125 237.837890625 648.875 c 0
 237.837890625 650.965820312 246.0546875 657.977539062 256.51171875 664.810546875 c 0
 281.563408379 681.176371942 305.601994831 706.161187818 333.451171875 720.086914062 c 0
 364.584964477 735.653810364 367.891462968 744.364483339 399.682617188 762.166015625 c 0
 413.626953125 769.974609375 435.538085938 782.33984375 449.481445312 790.268554688 c 0
 480.854492188 808.107421875 507.803710938 809.377929688 518.875 793.5390625 c 0
 530.014648438 777.603515625 528.836914062 765.145507812 515.713867188 760.09765625 c 0
 509.635742188 757.760742188 498.533203125 750.19921875 492.059570312 743.990234375 c 0
 485.196289062 737.407226562 472.88671875 727.967773438 463.922851562 722.4140625 c 0
 447.216796875 712.063476562 372.791992188 657.921875 295.106445312 599.604492188 c 0
 270.20703125 580.913085938 242.762695312 558.213867188 233.35546875 548.530273438 c 2
 216.424804688 531.1015625 l 1
 256.6875 487.278320312 l 2
 294.911132812 445.676757812 332.421875 401.126953125 417.284179688 296.549804688 c 0
 437.893554688 271.153320312 465.072265625 238.973632812 478.271484375 224.342773438 c 0
 520.950195312 177.034179688 567.092773438 119.90234375 574.801757812 104.826171875 c 0
 584.731445312 85.404296875 601.307617188 67.4765625 609.334960938 67.4765625 c 0
 617.370117188 67.4765625 626.266601562 52.0390625 626.266601562 38.095703125 c 0
 626.266601562 29.4462890625 623.776367188 28.328125 607.342773438 29.591796875 c 0
 574.090820312 32.1494140625 575.91015625 30.6259765625 452.079101562 159.604492188 c 0
 389.788085938 224.485351562 327.408203125 294.060546875 264.109375 369.255859375 c 0
 238.95703125 399.134765625 204.760742188 436.96875 188.0390625 453.415039062 c 2
 157.662109375 483.294921875 l 1
 122.802734375 447.190429688 l 2
 103.5703125 427.271484375 85.8232421875 411.086914062 83.212890625 411.086914062 c 0
 80.267578125 411.086914062 78.482421875 352.822265625 78.482421875 256.7109375 c 0
 78.482421875 134.705078125 80.1533203125 93.982421875 86.4501953125 62.4970703125 c 0
 90.83203125 40.5859375 92.9609375 16.83203125 91.1806640625 9.7109375 c 0
 88.40625 -1.3876953125 85.9521484375 -2.845703125 74.0009765625 -0.498046875 c 0
 66.53125 0.9697265625 57.7451171875 -0.0712890625 55.0771484375 -2.7392578125 c 0
 51.7568359375 -6.05859375 45.1171875 -3.5498046875 35.158203125 4.7890625 c 0
 9.7490234375 26.0615234375 7.1962890625 59.5087890625 6.439453125 381.208007812 c 0
 5.86328125 625.71875 4.62109375 668.765625 -3.0439453125 709.877929688 c 0
 -12.328125 759.676757812 -10.921875 784.38671875 1.79296875 794.857421875 c 0
 12.6086148894 803.766012562 18.0102212936 789.555664062 27.6875 789.555664062 c 0
 31.4228515625 789.555664062 41.1337890625 784.918945312 48.603515625 779.569335938 c 0
 67.6923828125 765.896484375 72.5380859375 740.752929688 77.67578125 628.706054688 c 0
 80.02734375 577.4140625 83.6572265625 533.508789062 85.703125 531.599609375 c 0
 87.748046875 529.69140625 98.7919921875 538.8203125 110.104492188 551.767578125 c 0
 121.416992188 564.71484375 133.36328125 575.421875 136.498046875 575.421875 c 0
EndSplineSet
Validated: 524321
EndChar

StartChar: L
Encoding: 76 76 13
Width: 861
Flags: HW
LayerCount: 2
Back
Fore
SplineSet
254.762695312 806.2734375 m 0
 261.423828125 808.87109375 268.958984375 810.963867188 271.889648438 811.029296875 c 0
 279.297851562 811.196289062 278.788085938 804.19921875 270.938476562 797.956054688 c 0
 259.125976562 788.5625 264.515625 787.391601562 318.512695312 787.623046875 c 0
 385.918768378 787.91159217 411.880330832 792.410406156 470.0390625 792.248046875 c 0
 508.57421875 792.139648438 516.360351562 790.11328125 519.870117188 779.274414062 c 0
 523.078125 769.3671875 521.325195312 764.526367188 510.307617188 752.87109375 c 0
 500.182617188 742.159179688 482.530273438 703.630859375 473.251953125 671.994140625 c 0
 460.845831535 629.687646715 382.028978316 490.805431419 341.971679688 410.33203125 c 0
 296.383789062 318.750976562 294.390625 314.578125 285.166015625 291.395507812 c 0
 277.490855903 272.106244449 270.004682051 239.804557891 264.260742188 221.936523438 c 0
 262.090820312 215.185546875 266.418945312 214.881835938 290.444335938 220.099609375 c 0
 343.035885774 231.524689396 370.455832133 232.305945309 437.92578125 248.733398438 c 0
 451.008789062 251.918945312 476.69921875 257.415039062 495.015625 260.947265625 c 0
 528.107421875 267.330078125 528.913085938 267.366210938 622.397460938 266.775390625 c 0
 698.279296875 266.295898438 719.052734375 266.852539062 729.796875 269.651367188 c 0
 743.59375 273.247070312 754.74609375 272.196289062 764.05078125 266.424804688 c 0
 768.649414062 263.572265625 769.178710938 260.471679688 770.7109375 227.407226562 c 0
 772.095910484 197.556481564 775.913718363 154.861503559 775.112304688 130.831054688 c 0
 775.046875 128.864257812 774.192382812 107.875976562 773.208984375 84.0888671875 c 0
 771.489257812 42.4609375 771.610351562 40.6162109375 776.596679688 32.5888671875 c 0
 787.176757812 15.5546875 780.940429688 1.150390625 762.1484375 -0.779296875 c 0
 748.595248348 -2.17022351207 734.944892782 -12.9385266647 721.233398438 -7.96875 c 0
 714.155273438 -5.40234375 692.807617188 -4.1845703125 637.858398438 -3.2109375 c 0
 544.583249238 -1.56050570897 551.774766858 1.41796653214 465.28125 2.1728515625 c 0
 356.195420763 3.12350468663 345.160006488 11.4616956499 236.922851562 12.0126953125 c 0
 168.65234375 12.359375 165.491210938 12.58984375 120.364257812 20.4873046875 c 0
 72.5517578125 28.8544921875 58.0263671875 31.5556640625 39.4873046875 35.5283203125 c 0
 33.6328125 36.7822265625 21.884765625 37.8603515625 13.55859375 37.9072265625 c 0
 -5.470703125 38.0146484375 -15.337890625 43.876953125 -19.5234375 57.5654296875 c 0
 -21.8505859375 65.177734375 -21.7412109375 68.0380859375 -18.9111328125 73.5029296875 c 0
 -12.4862953868 85.9095123027 -23.9773113979 81.0963391451 -13.796875 94.435546875 c 0
 -8.0380859375 101.981445312 -6.91796875 105.735351562 -7.017578125 117.153320312 c 0
 -7.0830078125 124.764648438 -6.2919921875 130.831054688 -5.2333984375 130.831054688 c 0
 -0.8935546875 130.831054688 9.15234375 158.186523438 21.84765625 204.571289062 c 0
 45.1272502675 289.620985855 120.910806485 472.522076714 154.12890625 560.193359375 c 0
 168.548828125 598.252929688 208.856445312 719.938476562 213.4609375 739.3125 c 0
 218.606445312 760.958984375 218.606445312 760.958984375 204.892578125 776.419921875 c 0
 189.482376306 793.794471412 209.031310818 801.634765625 227.169921875 801.634765625 c 0
 237.16015625 801.634765625 247.194335938 803.321289062 254.762695312 806.2734375 c 0
307.927734375 416.279296875 m 0
 314.337102078 416.279296875 323.178634601 449.596986611 310.901367188 425.913085938 c 0
 308.1875 420.6796875 306.829101562 416.279296875 307.927734375 416.279296875 c 0
167.939453125 302.099609375 m 0
 167.939453125 302.325241439 176.996594394 323.508789062 175.075195312 323.508789062 c 0
 172.084960938 323.508789062 153.111328125 285.924804688 154.30078125 282.356445312 c 0
 155.263671875 279.467773438 167.939453125 297.818359375 167.939453125 302.099609375 c 0
145.129882812 258.331054688 m 0
 150.373890763 272.055166599 137.143407306 254.525390625 141.416015625 254.525390625 c 0
 142.6875 254.525390625 144.3125 256.190429688 145.129882812 258.331054688 c 0
576.19921875 163.895507812 m 0
 577.846679688 172.01171875 576.84375 172.376953125 566.377929688 167.475585938 c 0
 562.333984375 165.581054688 556.665039062 164.225585938 553.294921875 164.34765625 c 0
 533.55078125 165.05859375 532.750976562 164.694335938 530.353515625 153.904296875 c 0
 526.95964983 138.64234346 531.819485301 132.160533807 532.243164062 116.08203125 c 0
 532.505859375 106.091796875 533.6015625 102.135742188 536.405273438 101.047851562 c 0
 539.477803012 99.8570145217 610.384765625 99.2177310601 610.384765625 107.756835938 c 0
 610.384765625 109.49609375 612.830078125 114.1796875 615.974609375 118.4609375 c 0
 621.688046111 126.242051419 621.29478721 132.827235653 620.850585938 143.9140625 c 1
 602.891601562 143.081054688 l 2
 585.2890625 142.264648438 584.830078125 142.390625 579.817382812 149.384765625 c 0
 576.0234375 154.6796875 575.08984375 158.423828125 576.19921875 163.895507812 c 0
446.1328125 139.275390625 m 0
 440.273879125 142.902158549 451.325822066 147.832599967 437.450195312 146.872070312 c 0
 424.3671875 145.96484375 395.3515625 140.1875 393.926757812 138.205078125 c 0
 393.29296875 137.323242188 390.827148438 135.829101562 388.685546875 135.029296875 c 0
 383.690429688 133.163085938 380.825195312 119.758789062 384.483398438 115.369140625 c 0
 387.567452819 111.668275367 386.222257266 102.268375876 385.59375 96.3388671875 c 1
 409.380859375 95.625 l 2
 428.839747038 95.0411026468 437.929667942 95.8184186484 448.154296875 97.7666015625 c 1
 448.392578125 117.748046875 l 2
 448.53125 129.403320312 447.58984375 138.373046875 446.1328125 139.275390625 c 0
307.094726562 93.9599609375 m 1
 306.421405696 100.700548465 305.846664614 108.095735885 301.862304688 111.143554688 c 0
 292.47533395 118.319182033 289.092167717 110.689698077 276.647460938 111.49609375 c 0
 265.705078125 112.205078125 253.573242188 108.612304688 253.573242188 104.6640625 c 0
 253.573242188 103.37890625 255.595703125 102.286132812 257.974609375 102.286132812 c 0
 262.873879672 102.286132812 264.437865739 98.9484429693 267.489257812 98.4794921875 c 0
 274.12067286 97.4609654564 279.183499883 94.62925351 292.228515625 94.3173828125 c 2
 307.094726562 93.9599609375 l 1
EndSplineSet
Validated: 524321
EndChar

StartChar: M
Encoding: 77 77 14
Width: 1173
Flags: HW
LayerCount: 2
Back
Fore
SplineSet
177.892578125 157.806640625 m 0
 177.892578125 160.247650412 199.853515625 194.87706623 199.853515625 196.552734375 c 0
 199.853515625 197.326171875 217.651367188 224.630859375 239.216796875 256.9453125 c 0
 283.60546875 323.456054688 303.510742188 356.086914062 326.10546875 399.37890625 c 0
 334.619140625 415.693359375 343.435546875 432.0234375 345.58203125 435.458007812 c 0
 347.787109375 438.987304688 350.463867188 446.125 351.69921875 451.772460938 c 0
 352.916992188 457.3359375 360.17578125 473.419921875 367.982421875 487.8515625 c 0
 387.500976562 523.930664062 397.3359375 545.711914062 402.405273438 564.087890625 c 0
 410.842812056 594.678999839 422.696535245 620.349078755 430.602539062 653.500976562 c 0
 435.749342472 675.082840752 439.873424207 678.306758074 442.546875 695.854492188 c 0
 445.025390625 712.122070312 452 727.227539062 465.14453125 744.796875 c 0
 472.185546875 754.208984375 481.026367188 768.012695312 485.03515625 775.85546875 c 0
 489.043945312 783.69921875 494.376953125 792.34375 497.03515625 795.307617188 c 0
 504.747070312 803.904296875 521.114257812 802.541015625 532.408203125 792.360351562 c 0
 544.643554688 781.331054688 548.474609375 763.018554688 540.388671875 754.208984375 c 0
 536.012695312 749.439453125 535.604492188 746.993164062 538.3515625 741.97265625 c 0
 541.982421875 735.3359375 540.43359375 727.227539062 534.03515625 719.384765625 c 0
 524.06100284 707.160306953 519.032250496 664.688008101 509.9765625 644.716796875 c 0
 506.561523438 637.186523438 504.559570312 630.1171875 505.444335938 628.715820312 c 0
 508.927734375 623.200195312 499.880859375 544.950195312 491.333984375 506.674804688 c 0
 487.899414062 491.295898438 491.174804688 460.556640625 501.594726562 410.359375 c 0
 512.9921875 355.45703125 523.526367188 342.264648438 560.64453125 336.413085938 c 0
 575.666992188 334.045898438 583.232421875 334.614257812 600.801757812 339.43359375 c 0
 629.037109375 347.177734375 637.418945312 351.745117188 656.33203125 369.693359375 c 0
 672.645507812 385.174804688 695.547851562 414.0546875 695.547851562 419.14453125 c 0
 695.547851562 423.3515625 718.806640625 453.96875 736.541992188 473.10546875 c 0
 750.840513354 488.534896863 791.599562371 554.013974534 804.413085938 569.891601562 c 0
 808.463867188 574.911132812 811.62890625 582.754882812 811.62890625 587.774414062 c 0
 811.62890625 593.421875 813.998046875 598.391601562 818.060546875 601.264648438 c 0
 828.991703632 608.998235103 839.273537411 640.510073726 846.922851562 653.500976562 c 0
 851.541992188 661.344726562 856.143554688 673.196289062 857.276367188 680.16796875 c 0
 858.3984375 687.0703125 862.231445312 695.823242188 865.794921875 699.619140625 c 0
 872.889648438 707.176757812 875.514648438 711.541015625 890.137695312 740.090820312 c 0
 895.6015625 750.7578125 904.91796875 764.217773438 910.767578125 769.895507812 c 0
 916.728515625 775.680664062 921.434570312 782.047851562 921.434570312 784.327148438 c 0
 921.434570312 786.518554688 926.296875 790.727539062 931.944335938 793.424804688 c 0
 941.983398438 798.219726562 942.875976562 798.135742188 951.866210938 791.541992188 c 2
 961.278320312 784.640625 l 1
 959.708984375 755.93359375 l 2
 958.852539062 740.247070312 956.931640625 726.729492188 955.473632812 726.129882812 c 0
 954.0078125 725.525390625 952.807617188 722.208007812 952.807617188 718.756835938 c 0
 952.807617188 702.564269205 933.983398438 686.309355964 933.983398438 670.913085938 c 0
 933.983398438 668.774414062 930.560546875 660.716796875 926.454101562 653.1875 c 0
 922.346679688 645.657226562 917.141601562 631.540039062 915.002929688 622.127929688 c 0
 912.86328125 612.715820312 910.01171875 602.733398438 908.728515625 600.166992188 c 0
 902.923828125 588.55859375 890.061523438 556.779296875 890.061523438 554.048828125 c 0
 890.061523438 552.317382812 888.013671875 546.833007812 885.493164062 541.8125 c 0
 878.719726562 528.322265625 852.413085938 433.765625 852.413085938 422.909179688 c 0
 852.413085938 417.72265625 850.310546875 406.594726562 847.728515625 398.124023438 c 0
 833.197265625 350.4375 827.733398438 270.721679688 836.204101562 229.96484375 c 0
 841.680664062 203.611328125 854.15234375 169.774414062 862.106445312 159.688476562 c 0
 870.432617188 149.129882812 901.668945312 131.874023438 931.787109375 121.1953125 c 2
 955.944335938 112.62890625 l 1
 978.219726562 119.9140625 l 2
 1000.58007812 127.2265625 1013.04394531 134.857421875 1043.7890625 160.055664062 c 0
 1061.671875 174.712890625 1070.6796875 176.46875 1084.88769531 168.068359375 c 0
 1101.9375 157.987304688 1094.29980469 140.818359375 1060.41699219 113.0546875 c 0
 1032.76817465 90.3998259142 1029.63081672 93.3075728848 1001.43554688 74.9814453125 c 0
 991.083007812 68.251953125 974.423828125 57.4013671875 964.415039062 50.869140625 c 0
 928.022460938 27.1142578125 892.7578125 13.732421875 866.217773438 13.6044921875 c 0
 818.53515625 13.3740234375 756.278320312 57.7265625 731.18359375 109.805664062 c 0
 719.391601562 134.276367188 719.391601562 134.276367188 720.087890625 171.296875 c 0
 721.071289062 223.583007812 728.166015625 255.690429688 761.611328125 359.221679688 c 0
 766.577148438 374.594726562 769.139648438 386.830078125 767.392578125 386.830078125 c 0
 761.649414062 386.830078125 728.739257812 350.123046875 717.60546875 331.299804688 c 0
 711.703125 321.321289062 700.75 304.318359375 693.352539062 293.65234375 c 0
 685.954101562 282.985351562 679.861328125 272.712890625 679.861328125 270.90625 c 0
 679.861328125 269.024414062 678.651367188 267.612304688 677.038085938 267.612304688 c 0
 675.489257812 267.612304688 672.104492188 263.219726562 669.541992188 257.88671875 c 0
 665.08984375 248.619140625 633.743164062 212.338867188 615.860351562 195.756835938 c 0
 604.388456424 185.118436833 578.635905218 181.608947695 561.7421875 176.31640625 c 0
 545.178461282 171.128447533 504.815971064 179.829493261 492.250976562 184.819335938 c 0
 474.645507812 191.810546875 449.885742188 218.356445312 437.854492188 243.141601562 c 0
 402.067382812 316.868164062 402.525390625 315.69140625 402.3671875 334.123046875 c 0
 402.280273438 344.162109375 401.366210938 352.319335938 400.328125 352.319335938 c 0
 397.840820312 352.319335938 384.955078125 334.436523438 384.955078125 330.986328125 c 0
 384.955078125 329.103515625 384.013671875 327.409179688 382.6015625 326.750976562 c 0
 381.307617188 326.146484375 376.916992188 317.181640625 372.844726562 306.828125 c 0
 360.299374528 274.937572405 345.422935709 249.054274653 337.111328125 229.180664062 c 0
 335.142578125 224.474609375 332.362304688 220.552734375 330.993164062 220.552734375 c 0
 329.608398438 220.552734375 328.483398438 218.513671875 328.483398438 216.00390625 c 0
 328.483398438 213.522460938 326.487304688 206.748046875 324.090820312 201.1015625 c 0
 315.276324314 180.321199532 309.04530289 156.929817219 298.208007812 133.962890625 c 0
 292.435546875 121.727539062 287.698242188 109.849609375 287.698242188 107.609375 c 0
 287.698242188 105.315429688 285.776367188 101.334960938 283.305664062 98.51171875 c 0
 280.873046875 95.7314453125 274.365234375 84.3935546875 268.717773438 73.099609375 c 0
 256.795898438 49.255859375 229.666992188 14.3740234375 213.34375 1.9013671875 c 0
 183.552063792 -20.8634798677 130.799867308 -30.0380526951 85.65625 -16.435546875 c 0
 51.7724609375 -6.2265625 33.2626953125 3.1650390625 11.615234375 21.130859375 c 0
 2.203125 28.9423828125 -6.6376953125 35.451171875 -7.8359375 35.451171875 c 0
 -10.8779296875 35.451171875 -35.4443359375 68.3935546875 -35.4443359375 72.4716796875 c 0
 -35.4443359375 74.1708984375 -38.4306640625 82.5107421875 -41.9599609375 90.66796875 c 0
 -50.5126953125 110.43359375 -50.9365234375 148.220703125 -42.66015625 152.997070312 c 0
 -34.81640625 157.524414062 -16.5888671875 177.004882812 -16.4365234375 181.022460938 c 0
 -16.3642578125 182.939453125 -12.5419921875 187.266601562 -7.8359375 190.758789062 c 0
 14.9385243005 207.655755192 86.4536671632 195.906596669 102.911132812 179.454101562 c 0
 111.150390625 171.213867188 110.440429688 157.256835938 101.342773438 148.630859375 c 0
 94.7275390625 142.359375 91.7734375 141.740234375 77.0283203125 143.532226562 c 0
 61.6552734375 145.399414062 59.3994140625 144.844726562 50.2041015625 136.932617188 c 0
 39.2236328125 127.484375 35.833984375 116.615234375 40.5712890625 106.041015625 c 0
 44.9296875 96.3125 71.224609375 79.849609375 86.283203125 77.4208984375 c 0
 98.501953125 75.4501953125 100.71484375 76.267578125 116.71484375 88.6630859375 c 0
 134.59765625 102.517578125 163.567382812 134.921875 169.2734375 147.453125 c 0
 171.130859375 151.532226562 173.71875 154.668945312 175.225585938 154.668945312 c 0
 176.826171875 154.668945312 177.892578125 155.923828125 177.892578125 157.806640625 c 0
EndSplineSet
Validated: 524321
EndChar

StartChar: N
Encoding: 78 78 15
Width: 817
Flags: HW
LayerCount: 2
Back
Fore
SplineSet
364.943359375 796.962890625 m 0
 366.434570312 798.454101562 372.120117188 798.716796875 377.551757812 797.544921875 c 0
 382.948242188 796.381835938 397.143554688 793.80859375 408.78125 791.884765625 c 0
 455.087890625 784.23046875 507.708984375 755.842773438 554.262695312 713.401367188 c 0
 581.401367188 688.659179688 622.940429688 632.084960938 645.016601562 589.798828125 c 0
 683.295898438 516.4765625 688.6953125 503.994140625 707.115234375 446.2578125 c 0
 730.5078125 372.935546875 733.466796875 360.09375 736.705078125 317.846679688 c 0
 740.499023438 268.360351562 732.014648438 236.376953125 700.068359375 179.736328125 c 0
 686.452148438 155.594726562 658.232421875 126.068359375 624.09375 100.241210938 c 0
 570.53077092 59.7190900778 539.069435777 30.4680252069 465.034179688 7.4404296875 c 0
 369.200083588 -22.3698742272 309.187059141 22.4029819163 278.625 83.525390625 c 0
 258.358398438 124.059570312 251.876953125 161.890625 242.072265625 296.897460938 c 0
 235.506835938 387.2890625 229.372070312 429.6328125 212.11328125 503.673828125 c 0
 197.815429688 565.013671875 193.216796875 560.702148438 183.975585938 477.293945312 c 0
 179.690093952 438.617801395 173.246495515 386.498290201 169.911132812 351.209960938 c 0
 165.719726562 306.876953125 128.015625 191.375 93.2939453125 116.500976562 c 0
 85.8330078125 100.412109375 74.9892578125 72.6630859375 69.037109375 54.4296875 c 0
 56.5 16.0224609375 53.6787109375 12.1494140625 35.1865234375 7.9599609375 c 0
 12.685546875 2.8623046875 2.357421875 6.9765625 -8.423828125 25.3330078125 c 0
 -20.4990234375 45.89453125 -20.4052734375 52.5625 -7.875 64.1279296875 c 0
 6.64566310857 77.5333976467 18.0375930851 112.191417951 28.03125 131.243164062 c 0
 50.45703125 173.998046875 86.55859375 272.068359375 99.72265625 325.993164062 c 0
 113.265625 381.469726562 117.60546875 408.3984375 118.166992188 440.438476562 c 0
 118.90234375 482.336914062 132.608398438 571.53515625 143.62109375 606.092773438 c 0
 149.060546875 623.162109375 154.205078125 646.032226562 155.052734375 656.9140625 c 0
 157.501953125 688.337890625 160.569335938 698.16015625 169.416992188 702.899414062 c 0
 184.353515625 710.901367188 197.737304688 707.556640625 214.03125 691.751953125 c 0
 226.763671875 679.400390625 230.315429688 672.625976562 233.81640625 654.00390625 c 0
 236.162109375 641.529296875 246.676757812 604.928710938 257.165039062 572.728515625 c 0
 278.134765625 508.34765625 284.563476562 477.681640625 295.879882812 388.065429688 c 0
 304.6484375 318.622070312 306.98828125 293.559570312 310.186523438 234.825195312 c 0
 312.637695312 189.823242188 323.750976562 131.000976562 333.34765625 112.233398438 c 0
 342.59765625 94.1435546875 364.943359375 76.138671875 384.340820312 71.14453125 c 0
 429.087890625 59.6240234375 499.173828125 90.9716796875 581.418945312 159.29296875 c 0
 635.34375 204.088867188 654.4453125 230.676757812 666.899414062 278.275390625 c 0
 677.134765625 317.393554688 674.088867188 343.451171875 648.624023438 434.619140625 c 0
 634.450195312 485.364257812 615.64453125 529.666992188 586.047851562 582.040039062 c 0
 541.103515625 661.569335938 508.775390625 692.793945312 433.22265625 729.649414062 c 0
 407.229492188 742.329101562 380.470703125 758.159179688 373.866210938 764.763671875 c 0
 362.616210938 776.013671875 358.575195312 790.594726562 364.943359375 796.962890625 c 0
EndSplineSet
Validated: 524321
EndChar

StartChar: O
Encoding: 79 79 16
Width: 1103
Flags: HW
LayerCount: 2
Back
Fore
SplineSet
54.6328125 391.6171875 m 0
 40.3333140692 391.6171875 6.470703125 411.320451015 6.470703125 430.956054688 c 0
 6.470703125 440.037109375 -20.7353515625 482.908203125 -30.2939453125 488.889648438 c 0
 -42.490234375 496.522460938 -52.0341796875 510.735351562 -54.3427734375 524.706054688 c 0
 -57.388671875 543.133789062 -53.8232421875 546.029296875 -28.087890625 546.029296875 c 0
 -12.6474609375 546.029296875 -6.4833984375 543.899414062 6.837890625 533.958984375 c 0
 32.0849609375 515.12109375 48.3828125 509.358398438 87.720703125 505.360351562 c 0
 146.543945312 499.380859375 174.817382812 507.618164062 180.620117188 532.426757812 c 0
 182.6171875 540.967773438 180.735351562 544.463867188 167.1328125 557.48046875 c 0
 148.87109375 574.954101562 128.897460938 588.954101562 104.6328125 601.28515625 c 0
 84.412109375 611.560546875 74.8671875 625.966796875 78.154296875 641.25 c 0
 80.072265625 650.171875 82.5732421875 651.862304688 96.912109375 653.93359375 c 0
 108.811523438 655.65234375 119.337890625 654.259765625 134.412109375 648.970703125 c 0
 146.764648438 644.635742188 169.706054688 640.78515625 190.293945312 639.58984375 c 0
 251.323242188 636.045898438 339.904296875 618.110351562 350.956054688 607.05859375 c 0
 354.400390625 603.614257812 359.412109375 604.485351562 359.412109375 608.529296875 c 0
 359.412109375 610.490234375 356.837890625 612.206054688 353.897460938 612.206054688 c 0
 349.104492188 612.206054688 340.87109375 625.80859375 340.990234375 633.529296875 c 0
 341.048563697 637.323354152 366.764648438 653.177822553 366.764648438 658.529296875 c 0
 366.764648438 665.9140625 335.8828125 681.806640625 307.573242188 688.989257812 c 0
 274.485351562 697.384765625 267.98828125 703.876953125 266.6796875 729.852539062 c 2
 265.662109375 750.073242188 l 1
 296.912109375 749.522460938 l 2
 315.662109375 749.19140625 345.80859375 745 372.279296875 739.043945312 c 0
 410.147460938 730.5234375 421.397460938 729.432617188 451.69140625 731.341796875 c 0
 511.008889875 735.080860282 513.058121435 743.440748571 540.110351562 768.272460938 c 2
 553.529296875 780.587890625 l 1
 605.857753258 779.975266279 658.186203863 779.362636155 710.514648438 778.75 c 1
 734.412109375 767.537109375 l 2
 747.508789062 761.390625 775.587890625 749.229492188 796.543945312 740.625 c 0
 835.147460938 724.776367188 852.610351562 711.814453125 863.565429688 690.8828125 c 0
 866.72265625 684.850585938 880 671.8125 892.8671875 662.109375 c 0
 928.897460938 634.939453125 940.596679688 623.1484375 959.166992188 595.293945312 c 0
 979.264648438 565.147460938 982.323242188 559.510742188 990.086914062 538.30859375 c 0
 1003.95410156 500.44140625 1010.14746094 476.833007812 1010.14746094 461.837890625 c 0
 1010.14746094 453.233398438 1013.54394531 432.793945312 1017.60253906 416.985351562 c 0
 1024.96289062 388.30859375 1024.97265625 370.5390625 1017.63671875 353.014648438 c 0
 1015.93457031 348.94921875 1011.86523438 331.69140625 1008.53515625 314.412109375 c 0
 1000.38476562 272.1328125 989.662109375 243.243164062 972.647460938 217.720703125 c 0
 965.048828125 206.323242188 958.676757812 194.919921875 958.676757812 192.720703125 c 0
 958.676757812 187.05859375 940.944335938 156.323242188 930.678710938 144.19140625 c 0
 926.012695312 138.676757812 921.298828125 130.997070312 920.073242188 126.912109375 c 0
 918.860351562 122.8671875 916.626953125 119.55859375 915.110351562 119.55859375 c 0
 913.59375 119.55859375 905.735351562 113.391601562 897.647460938 105.853515625 c 0
 852.426757812 63.7109375 832.724609375 50.880859375 791.397460938 36.6630859375 c 0
 775.220703125 31.09765625 756.029296875 23.56640625 748.75 19.9267578125 c 0
 732.213328686 11.6573239571 700.45591725 10.0431132142 682.94140625 2.951171875 c 0
 661.25 -5.8310546875 613.2890625 -7.435546875 593.970703125 -0.0234375 c 0
 581.227539062 4.865234375 571.176757812 5.826171875 550.220703125 4.16015625 c 0
 463.823242188 -2.708984375 454.329101562 -2.65234375 416.764648438 4.95703125 c 0
 313.823242188 25.80859375 313.823242188 25.80859375 250.956054688 34.15625 c 0
 215.885920293 38.8137969638 205.469617546 50.9741411535 176.323242188 62.3896484375 c 0
 164.19140625 67.1416015625 146.737304688 76.158203125 137.537109375 82.4267578125 c 0
 128.345703125 88.6884765625 119.483398438 93.8232421875 117.8671875 93.8232421875 c 0
 109.822265625 93.8232421875 77.2978515625 119.926757812 71.1416015625 131.323242188 c 0
 64.9853515625 142.720703125 64.7734375 145.3671875 69.2890625 154.485351562 c 0
 79.91015625 175.931640625 92.1328125 175.33203125 119.706054688 152.013671875 c 0
 135.147460938 138.956054688 145.318359375 138.798828125 150.220703125 151.543945312 c 0
 153.784179688 160.80859375 154.6328125 161.04296875 177.793945312 159.155273438 c 0
 209.779296875 156.546875 213.041992188 162.913085938 189.926757812 182.828125 c 0
 181.102539062 190.4296875 172.580078125 196.764648438 171.176757812 196.764648438 c 0
 169.776367188 196.764648438 157.206054688 204.029296875 143.602539062 212.700195312 c 0
 117.370117188 229.421875 85.5146484375 245.510742188 39.9267578125 265.064453125 c 0
 -3.087890625 283.514648438 -24.7783203125 316.727539062 -3.087890625 330.932617188 c 0
 1.5625 333.978515625 8.5107421875 343.087890625 12.3525390625 351.176757812 c 0
 18.46484375 364.043945312 20.9697265625 365.8828125 32.3896484375 365.8828125 c 0
 40.4775390625 365.8828125 50.1943359375 362.38671875 57.94140625 356.69140625 c 0
 64.9267578125 351.5546875 72.3876953125 347.5 74.8525390625 347.5 c 0
 77.2978515625 347.5 92.8671875 336.587890625 109.779296875 323.021484375 c 0
 142.671875 296.634765625 150.956054688 292.361328125 195.80859375 278.643554688 c 0
 230.3671875 268.07421875 262.951171875 267.326171875 277.793945312 276.760742188 c 0
 290.293945312 284.706054688 300.587890625 295.899414062 300.587890625 301.543945312 c 0
 300.587890625 308.928710938 288.456054688 317.2421875 274.852539062 319.178710938 c 0
 242.8671875 323.733398438 153.25390625 344.510742188 131.470703125 352.422851562 c 0
 118.235351562 357.23046875 97.076171875 367.91015625 84.0439453125 376.360351562 c 0
 71.1767578125 384.704101562 57.849609375 391.6171875 54.6328125 391.6171875 c 0
419.997070312 591.6171875 m 0
 413.234375 598.436523438 407.94140625 598.787109375 399.485351562 592.973632812 c 0
 393.985351562 589.192382812 394.337890625 588.1015625 402.426757812 583.888671875 c 0
 419.337890625 575.078125 431.216796875 580.303710938 419.997070312 591.6171875 c 0
761.985351562 281.323242188 m 0
 768.844421139 281.323242188 773.184107284 299.706054688 778.529296875 299.706054688 c 0
 780.475585938 299.706054688 782.206054688 302.647460938 782.206054688 305.956054688 c 0
 782.206054688 312.833984375 787.981445312 329.852539062 797.552734375 351.176757812 c 0
 808.559570312 375.697265625 811.305664062 389.779296875 811.53515625 422.8671875 c 0
 812.000976562 490.147460938 813.767578125 486.241210938 759.412109375 538.094726562 c 0
 727.426757812 568.608398438 722.291015625 572.112304688 704.6328125 575.46875 c 0
 680.983398438 579.963867188 677.426757812 579.75390625 638.823242188 571.594726562 c 0
 599.1171875 563.201171875 584.779296875 557.047851562 567.1328125 540.826171875 c 0
 559.412109375 533.729492188 550.7578125 527.647460938 548.3828125 527.647460938 c 0
 545.987304688 527.647460938 540.525390625 521.764648438 536.43359375 514.779296875 c 0
 532.342773438 507.793945312 524.779296875 499.978515625 519.889648438 497.68359375 c 0
 515.110351562 495.440429688 509.846679688 489.400390625 508.676757812 484.81640625 c 0
 507.456054688 480.037109375 504.828125 476.176757812 502.793945312 476.176757812 c 0
 500.712890625 476.176757812 499.1171875 471.948242188 499.1171875 466.43359375 c 0
 499.1171875 461.053710938 495.140625 445.662109375 490.236328125 432.05859375 c 0
 474.822265625 389.305664062 473.830078125 297.5 488.203125 243.823242188 c 0
 492.842773438 226.493164062 514.926757812 203.142578125 541.029296875 187.966796875 c 0
 574.167378594 168.699939009 610.71676338 174.900352719 650.956054688 190.612304688 c 0
 696.176757812 208.270507812 732.09765625 231.638671875 733.87890625 244.55859375 c 0
 734.588867188 249.706054688 737.412109375 255.043945312 740.293945312 256.69140625 c 0
 743.133789062 258.313476562 745.44140625 262.022460938 745.44140625 264.962890625 c 0
 745.44140625 267.806640625 748.014648438 270.293945312 750.956054688 270.293945312 c 0
 753.897460938 270.293945312 756.470703125 272.8671875 756.470703125 275.80859375 c 0
 756.470703125 278.75 759.043945312 281.323242188 761.985351562 281.323242188 c 0
EndSplineSet
Validated: 524321
EndChar

StartChar: P
Encoding: 80 80 17
Width: 703
Flags: HW
LayerCount: 2
Back
Fore
SplineSet
227.924804688 836.986328125 m 0
 232.952148438 840.041015625 251.634765625 838.337890625 256.415039062 834.388671875 c 0
 260.608398438 830.924804688 260.533203125 816.171875 256.259765625 803.961914062 c 0
 250.990748166 788.90261885 255.251909343 792.083008531 272.935546875 790.307617188 c 0
 318.258789062 785.75390625 401.741210938 763.046875 450.103515625 742.119140625 c 0
 490.8046875 724.505859375 518.286132812 709.294921875 549.461914062 687.123046875 c 0
 561.911132812 678.26953125 596.844726562 643.522460938 604.579101562 632.299804688 c 0
 613.345703125 619.580078125 621.36328125 595.4296875 623.01953125 576.754882812 c 0
 624.477539062 560.314453125 625.853515625 562.869140625 598.6328125 531.505859375 c 0
 582.178710938 512.548828125 534.37890625 487.444335938 489.607421875 474.248046875 c 0
 436.751005832 458.665465484 419.637042357 448.562070991 337.578125 448.188476562 c 0
 296.637695312 448.001953125 279.83984375 448.883789062 262.161132812 452.147460938 c 0
 233.670898438 457.40625 161.217773438 464.029296875 158.805664062 461.595703125 c 0
 153.368164062 456.110351562 121.146484375 352.421875 113.420898438 315.551757812 c 0
 96.7787520147 236.127720096 83.0824841083 200.489051847 71.8251953125 144.84765625 c 0
 63.5469011573 103.928779092 59.8213384356 103.262190689 57.4599609375 73.0224609375 c 0
 55.991655643 54.229013083 49.7192504978 29.4345498604 48.3388671875 11.2529296875 c 0
 47.1220703125 -4.7880859375 41.3818359375 -10.5341796875 26.5751953125 -10.5341796875 c 0
 19.392578125 -10.5341796875 14.6396484375 -8.7177734375 8.8583984375 -3.7626953125 c 0
 -0.4599609375 4.224609375 -1.1103515625 13.16796875 6.1142578125 33.9970703125 c 0
 8.771484375 41.658203125 11.0126953125 48.6708984375 11.0126953125 49.3203125 c 0
 11.0126953125 60.4808947735 22.5657057248 79.8538661192 25.2587890625 90.978515625 c 0
 36.8651240019 138.972902651 49.0431364794 188.471169048 60.931640625 234.868164062 c 0
 63.630859375 245.40234375 66.4326171875 257.145507812 67.15625 260.96484375 c 0
 71.3155067337 282.890387983 78.4441948665 305.078156956 83.7958984375 331.83203125 c 0
 88.1567367586 353.630547144 99.2091432556 384.805473382 104.026367188 403.657226562 c 0
 107.298787586 416.456629641 114.816699441 429.475098767 117.314453125 441.963867188 c 0
 118.223632812 446.512695312 120.646484375 453.517578125 122.612304688 457.286132812 c 0
 127.03515625 465.76171875 125.21484375 467.159179688 106.780273438 469.442382812 c 0
 88.8232421875 471.666992188 69.4638671875 481.310546875 61.4921875 492.001953125 c 0
 57.921875 496.790039062 54.001953125 501.380859375 52.671875 502.331054688 c 0
 48.8203125 505.08203125 54.5869140625 509.309570312 62.48828125 509.52734375 c 0
 66.318359375 509.6328125 74.099609375 507.357421875 79.845703125 504.451171875 c 0
 85.625 501.528320312 99.4775390625 497.5859375 110.969726562 495.592773438 c 0
 131.559570312 492.022460938 131.703125 492.03125 135.869140625 497.149414062 c 0
 138.208007812 500.022460938 140.05859375 504.094726562 140.05859375 506.366210938 c 0
 140.05859375 508.521484375 141.016601562 511.506835938 142.09375 512.7109375 c 0
 143.212890625 513.961914062 146.014648438 521.450195312 148.318359375 529.350585938 c 0
 154.371527563 550.099203739 164.87971265 580.962272488 171.302734375 602.373046875 c 0
 176.027771826 618.119516178 179.540753903 619.836857055 180.048828125 630.145507812 c 0
 180.508789062 639.534179688 208.099609375 745.065429688 215.1640625 764.458007812 c 0
 217.780273438 771.640625 218.07421875 774.98046875 216.193359375 776.1484375 c 0
 206.235872011 782.329289831 59.8592272928 776.012911347 53.869140625 783.251953125 c 0
 52.283203125 785.16796875 49.4931640625 786.723632812 47.6435546875 786.723632812 c 0
 42.4267578125 786.723632812 43.57421875 793.384765625 49.3203125 796.458984375 c 0
 54.916015625 799.453125 203.025390625 798.134765625 213.559570312 794.99609375 c 0
 219.879464235 793.114039592 228.566832485 806.420170502 227.565429688 812.8203125 c 0
 226.649178032 818.688752109 222.154532433 833.479790895 227.924804688 836.986328125 c 0
464.46875 714.727539062 m 0
 410.432809347 741.101474711 336.163158185 767.444544353 267.788085938 771.640625 c 2
 248.275390625 772.837890625 l 1
 237.435176847 735.295650803 227.858488124 699.930495132 214.1328125 645.467773438 c 0
 200.254882812 590.40234375 173.000976562 501.396484375 168.166015625 495.353515625 c 0
 162.823438325 488.676266793 175.156155998 489.657531303 191.533203125 487.692382812 c 0
 204.701171875 486.112304688 220.323242188 483.881835938 226.249023438 482.737304688 c 0
 287.060546875 470.984375 353.038085938 470.420898438 407.008789062 481.19140625 c 0
 491.043945312 497.962890625 560.47265625 529.579101562 584.266601562 561.911132812 c 0
 603.912316664 588.60857822 594.578505643 609.391381853 573.854492188 635.891601562 c 0
 563.369140625 649.298828125 542.384765625 669.04296875 536.772460938 670.782226562 c 0
 534.618164062 671.44921875 532.702148438 673.056640625 532.702148438 674.198242188 c 0
 532.702148438 676.728515625 503.97265625 695.697265625 492.48046875 700.75390625 c 0
 488.170898438 702.650390625 484.819335938 704.91015625 484.819335938 705.920898438 c 0
 484.819335938 706.92578125 483.501953125 707.715820312 481.826171875 707.715820312 c 0
 480.180664062 707.715820312 472.369140625 710.87109375 464.46875 714.727539062 c 0
EndSplineSet
Validated: 524321
EndChar

StartChar: Q
Encoding: 81 81 18
Width: 844
Flags: HW
LayerCount: 2
Back
Fore
SplineSet
163.77734375 551.130859375 m 0
 159.838865414 551.130859375 151.523083253 561.541015625 148.995117188 561.541015625 c 0
 145.814453125 561.541015625 125.731445312 516.984375 120.55859375 498.453125 c 0
 110.024414062 460.709960938 109.13671875 453.896484375 107.944335938 401.635742188 c 0
 106.733398438 348.54296875 106.770507812 348.159179688 117.538085938 303.361328125 c 0
 129.048828125 255.47265625 143.77734375 222.079101562 166.484375 192.385742188 c 0
 177.470703125 178.01953125 225.17578125 131.125 230.404296875 129.551757812 c 0
 233.111328125 128.73828125 236.356445312 127.340820312 237.483398438 126.502929688 c 0
 249.752929688 117.395507812 345.127929688 119.849609375 392.599609375 130.494140625 c 0
 406.966796875 133.715820312 423.260742188 137.036132812 428.620117188 137.834960938 c 0
 438.876454826 139.361477003 448.876161079 148.197323011 462.974609375 141.079101562 c 0
 464.927734375 140.092773438 469.220703125 138.017578125 472.552734375 136.44921875 c 0
 479.801757812 133.03515625 516.862304688 89.322265625 519.920898438 80.5771484375 c 0
 524.549120225 67.3529318483 512.645814065 55.8744101045 502.430664062 50.9072265625 c 0
 496.184570312 47.8701171875 489.834960938 43.892578125 488.306640625 42.05859375 c 0
 482.041015625 34.5400390625 475.466796875 33.0009765625 464.640625 36.51953125 c 0
 456.936523438 39.0234375 453.859375 39.1953125 451.2109375 37.26953125 c 0
 450.36209917 36.6522337747 412.728476713 16.0322265625 423.831054688 16.0322265625 c 0
 425.080078125 16.0322265625 425.913085938 15.19921875 425.913085938 13.9501953125 c 0
 425.913085938 6.30599108109 377.038078509 -8.99399675205 363.450195312 -10.2021484375 c 0
 351.6789632 -11.2489709556 345.950789036 -17.7947607651 336.799804688 -10.9306640625 c 0
 333.259765625 -8.2763671875 330.057617188 -4.44140625 329.408203125 -2.08203125 c 0
 327.724875476 4.03699311255 310.373539248 -1.03568929851 293.700195312 -1.8603515625 c 0
 258.720703125 -3.58984375 233.428710938 1.814453125 212.499023438 15.4921875 c 0
 170.856445312 42.703125 153.075195312 58.5517578125 133.40234375 85.990234375 c 0
 117.029548945 108.827323628 95.9943778225 136.360258918 84.4716796875 159.072265625 c 0
 79.61328125 168.649414062 74.8232421875 176.353515625 73.7265625 176.353515625 c 0
 72.8833578557 176.353515625 73.325644342 182.025258252 71.3759765625 184.265625 c 0
 59.8231523143 197.545417821 52.1187490256 231.923153414 42.7041015625 246.624023438 c 0
 32.5296401537 262.511334707 34.51222769 271.766768217 27.087890625 295.033203125 c 0
 18.0039887829 323.507608747 7.10818900641 383.10270212 -5.5263671875 396.430664062 c 0
 -11.5267337612 402.761629346 -10.4970088342 417.118166533 -15.9072265625 424.331054688 c 0
 -19.0412736997 428.509784204 -21.482711649 444.613281624 -15.4912109375 446.713867188 c 0
 -14.30078125 447.129882812 -13.4091796875 448.37890625 -13.4091796875 449.62890625 c 0
 -13.4091796875 454.936494866 -5.42505001557 457.055105603 -8.982421875 464.931640625 c 0
 -12.1796875 472.010742188 -12.0224609375 472.797851562 -6.15625 479.08984375 c 0
 -3.2451171875 482.212890625 -0.916015625 486.469726562 -0.916015625 488.66796875 c 0
 -0.916015625 498.800220401 6.09145491911 518.365201217 8.453125 529.268554688 c 0
 12.846636162 549.539206842 30.396484375 589.649414062 30.396484375 589.649414062 c 2
 31.3828125 590.909179688 35.177734375 599.435546875 38.8310546875 608.596679688 c 0
 50.4541015625 637.74609375 65.970703125 668.490234375 76.9755859375 684.176757812 c 0
 92.7529296875 706.663085938 95.591796875 709.708984375 103.396484375 712.525390625 c 0
 119.343796732 718.27826301 128.953261097 712.73960001 132.263671875 699.375976562 c 0
 135.01953125 688.250976562 138.357421875 682.926757812 156.415039062 660.857421875 c 0
 163.399414062 652.3203125 170.41796875 642.50390625 171.897460938 639.203125 c 0
 173.516601562 635.592773438 178.665039062 630.905273438 184.703125 627.543945312 c 0
 190.94921875 624.06640625 194.780273438 620.571289062 194.747070312 618.381835938 c 0
 194.581471812 607.379743763 179.26043293 603.629959936 171.897460938 596.936523438 c 0
 160.751602049 586.803132343 173.391421096 587.102580964 168.21484375 576.948242188 c 0
 164.922851562 570.494140625 163.340820312 557.760742188 165.651367188 556.3203125 c 0
 169.05078125 554.202148438 167.94140625 551.130859375 163.77734375 551.130859375 c 0
698.66796875 212.685546875 m 0
 698.66796875 209.154369648 688.2578125 201.300490709 688.2578125 196.862304688 c 0
 688.2578125 194.780273438 686.965820312 193.009765625 685.446289062 193.009765625 c 0
 679.68360093 193.009765625 675.176334164 185.390112633 677.499023438 178.643554688 c 0
 681.50390625 167.008789062 695.127929688 148.504882812 712.201171875 131.510742188 c 0
 722.403320312 121.356445312 731.157226562 110.373046875 734.791992188 103.16796875 c 0
 738.047851562 96.712890625 744.390625 86.9873046875 748.846679688 81.6181640625 c 0
 753.337890625 76.205078125 756.966796875 69.78515625 756.966796875 67.251953125 c 0
 756.966796875 64.7529296875 758.859375 61.08203125 761.130859375 59.17578125 c 0
 767.245117188 54.0439453125 766.384765625 49.970703125 756.459960938 37.0615234375 c 0
 744.293945312 21.2373046875 737.671875 8.5869140625 739.129882812 3.9560546875 c 0
 740.685546875 -0.984375 731.565429688 -11.03515625 725.52734375 -11.03515625 c 0
 721.477539062 -11.03515625 716.782226562 -7.4619140625 695.127929688 12.0966796875 c 0
 691.380859375 15.4814453125 687.737304688 18.14453125 686.799804688 18.1845703125 c 0
 684.83984375 18.267578125 673.682617188 34.146484375 673.682617188 36.853515625 c 0
 673.682617188 41.7430534919 658.107709249 57.43369713 654.989257812 61.837890625 c 0
 627.578702313 100.546724317 624.387513522 110.784537347 596.020507812 143.665039062 c 0
 577.496027148 165.135133788 552.634224099 198.326317647 537.201171875 218.620117188 c 0
 524.297272354 235.589586949 514.510425049 267.70805239 503.275390625 281.083007812 c 0
 495.754882812 290.036132812 484.211914062 306.803710938 484.211914062 308.774414062 c 0
 484.211914062 310.640625 474.137695312 324.390625 459.193359375 342.920898438 c 0
 448.372395966 356.338155576 402.200935421 419.608285195 391.55859375 432.555664062 c 0
 379.500930271 447.224387906 379.733156945 448.67807718 363.934570312 468.6796875 c 0
 343.1875 494.943359375 342.76953125 495.5390625 302.190429688 556.751953125 c 0
 262.024414062 617.340820312 256.20703125 625.512695312 249.3515625 630.973632812 c 0
 246.853515625 632.963867188 244.771484375 635.995117188 244.771484375 637.641601562 c 0
 244.771484375 639.307617188 244.024414062 640.661132812 243.10546875 640.661132812 c 0
 242.197265625 640.661132812 239.12890625 646.907226562 236.35546875 654.40234375 c 0
 229.73046875 672.30859375 219.3203125 682.302734375 207.29296875 682.302734375 c 0
 196.102539062 682.302734375 191.439453125 687.299804688 189.61328125 701.25 c 0
 188.11328125 712.701171875 184.717773438 719.9921875 177.727539062 726.766601562 c 0
 163.177093604 740.868172339 186.911210815 751.798718908 189.491210938 762.983398438 c 0
 190.356445312 766.731445312 191.982421875 769.750976562 193.134765625 769.750976562 c 0
 194.3359375 769.750976562 194.64453125 772.041015625 193.864257812 775.1640625 c 0
 191.464489495 784.763135771 202.230793577 791.306678997 212.499023438 790.05078125 c 0
 219.785489014 789.16082082 224.251738008 792.602324388 226.032226562 791.612304688 c 0
 227.046875 791.048828125 232.486328125 793.501953125 237.900390625 796.963867188 c 0
 249.876953125 804.625 255.181640625 804.43359375 298.905273438 794.760742188 c 0
 332.635742188 787.298828125 346.943359375 783.278320312 358.662109375 777.970703125 c 0
 363.659179688 775.70703125 369.409179688 773.915039062 371.674804688 773.915039062 c 0
 375.531733907 773.915039062 377.747485539 769.458028846 380.315429688 771 c 0
 381.41796875 771.661132812 384.063476562 770.828125 385.9375 769.23046875 c 0
 387.875 767.577148438 398.4296875 761.983398438 409.256835938 756.870117188 c 0
 471.727274197 727.370117541 471.27808737 724.517263025 510.342773438 698.958984375 c 0
 564.575130459 663.479872305 572.886625102 656.896771781 623.087890625 609.045898438 c 0
 632.45703125 600.115234375 641.053710938 592.772460938 642.138671875 592.772460938 c 0
 643.234375 592.772460938 645.278320312 589.75390625 646.719726562 586.005859375 c 0
 648.158203125 582.266601562 656.401367188 572.22265625 665.146484375 563.5546875 c 0
 682.427734375 546.426757812 701.821289062 523.020507812 708.56640625 511.154296875 c 0
 713.943833917 501.69164668 714.285102153 476.735870276 718.169921875 465.348632812 c 0
 722.735351562 451.959960938 726.159179688 418.708984375 724.944335938 399.553710938 c 0
 723.568701315 377.861011126 728.204584245 377.525745496 728.858398438 359.578125 c 0
 729.389090552 344.947492407 734.884709306 336.2717079 726.916015625 326.888671875 c 0
 720.44140625 319.265625 720.28125 316.0625 725.670898438 301.903320312 c 0
 730.981445312 287.954101562 731.03125 278.403320312 725.827148438 271.713867188 c 0
 723.626123304 268.883004256 719.904418492 248.33128282 717.40625 247.45703125 c 0
 716.2578125 247.0546875 715.32421875 245.375 715.32421875 243.708984375 c 0
 715.32421875 240.663518307 698.66796875 215.447931648 698.66796875 212.685546875 c 0
452.356445312 637.725585938 m 0
 440.078509456 643.984834726 385.555153501 678.118766977 378.981445312 667.727539062 c 0
 378.099544935 666.333784041 361.368164062 666.686523438 361.368164062 666.686523438 c 2
 361.368164062 665.801757812 370.484375 649.61328125 380.833007812 632.124023438 c 0
 389.333007812 617.7578125 390.752929688 613.912109375 389.7890625 607.868164062 c 0
 388.762695312 601.427734375 389.745117188 599.435546875 399.293945312 588.608398438 c 0
 411.857707662 574.362592938 439.068818198 533.474211101 457.14453125 509.280273438 c 0
 473.998170755 486.722053885 486.866325236 458.203327919 502.192382812 441.612304688 c 0
 516.478268825 426.1477578 548.315406787 378.180332825 553.899414062 371.029296875 c 0
 560.890625 362.076171875 571.592773438 345.94140625 572.8203125 342.504882812 c 0
 573.563476562 340.422851562 575.361328125 338.756835938 576.865234375 338.756835938 c 0
 584.597229653 338.756835938 577.90625 350.892043452 577.90625 356.87109375 c 0
 577.90625 362.701171875 578.947265625 363.984375 586.234375 367.139648438 c 0
 600.913615402 373.495550468 599.443025965 387.274022132 605.948242188 404.342773438 c 0
 612.059570312 420.375 614.802734375 444.576171875 611.470703125 453.063476562 c 0
 606.52004475 465.675575649 604.828213166 496.852034161 598.76171875 504.283203125 c 0
 597.8203125 505.436523438 596.411132812 509.384765625 595.604492188 513.1328125 c 0
 593.176130408 524.403109339 567.469380478 549.495228975 560.202148438 558.209960938 c 0
 539.479492188 583.056640625 494.4140625 616.284179688 452.356445312 637.725585938 c 0
EndSplineSet
Validated: 524321
EndChar

StartChar: R
Encoding: 82 82 19
Width: 837
Flags: HW
LayerCount: 2
Back
Fore
SplineSet
199.30859375 144.624023438 m 1
 201.977121879 147.292551567 209.686509132 155.763022762 212.470703125 155.7109375 c 0
 215.52734375 155.654296875 219.823242188 145.407226562 220.666992188 136.163085938 c 0
 223.236451262 107.98491845 241.293777227 73.9126204018 254.776367188 47.6337890625 c 0
 259.840820312 37.76171875 266.278320312 27.205078125 269.012695312 24.287109375 c 0
 282.439808522 9.9549706089 271.226266001 -17.3442482254 253.052734375 -7.921875 c 0
 250.461914062 -6.578125 240.439453125 -3.9365234375 230.724609375 -2.037109375 c 0
 215.225585938 0.994140625 208.083007812 1.41015625 171.57421875 1.41015625 c 0
 127.544921875 1.41015625 90.0146484375 -1.3291015625 84.298828125 -4.958984375 c 0
 80.6953125 -7.248046875 63.8544921875 -8.0224609375 61.1083984375 -6.025390625 c 0
 58.60546875 -4.205078125 55.625 1.8798828125 55.625 5.1708984375 c 0
 55.625 10.1845703125 60.3466796875 20.607421875 63.1455078125 21.7705078125 c 0
 64.62109375 22.3828125 74.8974609375 23.470703125 86.1787109375 24.2080078125 c 0
 127.047923451 26.8823888962 207.454272891 32.5627062937 234.719726562 24.62890625 c 0
 247.673940731 20.8600283928 203.584319975 78.9058462635 200.1953125 130.9921875 c 2
 199.30859375 144.624023438 l 1
706.353515625 152.615234375 m 0
 693.068299551 152.615234375 665.14453125 140.584904661 665.14453125 162.094726562 c 0
 665.14453125 164.959242519 677.620282704 203.99337118 666.241210938 202.442382812 c 0
 663.979492188 202.133789062 662.244140625 200.248046875 661.194335938 196.958007812 c 0
 658.192285947 187.551027801 637.704920001 170.144472432 624.249023438 182.017578125 c 0
 606.071675937 198.055219989 656.16100464 227.826171875 659.817382812 227.826171875 c 0
 661.854492188 227.826171875 663.833007812 228.506835938 664.368164062 229.392578125 c 0
 665.734375 231.651367188 675.172851562 231.331054688 681.126953125 228.823242188 c 0
 696.732360415 222.253171197 701.488711808 214.10491466 701.026367188 191.00390625 c 0
 700.76953125 178.155273438 701.108398438 175.435546875 702.907226562 175.89453125 c 0
 733.584041223 183.711317468 757.723755034 155.682434067 757.642578125 131.932617188 c 0
 757.614257812 123.435546875 746.43359375 96.833984375 732.2890625 71.6064453125 c 0
 725.117352667 58.8174358359 717.062963842 42.9631450023 706.666992188 36.8193359375 c 0
 698.833007812 32.1875 689.870117188 30.884765625 687.282226562 34.001953125 c 0
 685.516601562 36.12890625 685.678710938 37.2919921875 688.35546875 41.6796875 c 0
 698.297851562 57.974609375 718.829101562 98.970703125 724.137695312 113.129882812 c 0
 731.37148216 132.418926508 722.321882775 152.615234375 706.353515625 152.615234375 c 0
104.43359375 218.659179688 m 0
 116.092190019 229.952435595 125.839461712 237.643356479 146.50390625 236.9140625 c 0
 177.274666098 235.826456405 194.739275042 215.915156621 200.436523438 193.510742188 c 0
 212.786451791 144.953317951 167.80634606 123.097409642 117.986328125 144.2734375 c 0
 101.377929688 151.333984375 95.5009765625 156.12890625 92.015625 165.463867188 c 0
 87.3349609375 177.999023438 86.009765625 196.471679688 89.294921875 203.381835938 c 0
 90.7841796875 206.515625 92.533203125 209.0234375 93.2294921875 209.0234375 c 0
 93.9208984375 209.0234375 98.94921875 213.34765625 104.43359375 218.659179688 c 0
179.079101562 179.87890625 m 0
 177.088175317 205.101978901 144.254993596 217.133038183 113.129882812 204.532226562 c 0
 107.118617562 202.097757769 111.089335379 198.941762503 110.701171875 189.124023438 c 0
 110.426757812 182.229492188 111.065429688 178.118164062 112.81640625 175.491210938 c 0
 117.320698457 168.734148936 150.622884376 156.076645439 167.813476562 161.716796875 c 0
 177.303710938 164.830078125 179.932617188 169.067382812 179.079101562 179.87890625 c 0
132.088867188 337.399414062 m 0
 151.889641523 340.384683404 147.538494403 342.208984375 161.859375 342.208984375 c 0
 173.141601562 342.208984375 177.811523438 338.337890625 177.736328125 329.046875 c 0
 177.698242188 324.189453125 176.844726562 322.015625 174.23828125 320.134765625 c 0
 166.8515625 314.8046875 148.227539062 309.880859375 124.09765625 306.879882812 c 0
 89.8436461441 302.620113119 155.956377129 290.357276207 161.076171875 289.701171875 c 0
 166.874023438 288.956054688 173.141601562 282.290039062 173.141601562 276.869140625 c 0
 173.141601562 271.541992188 170.389648438 265.688476562 165.93359375 261.537109375 c 0
 161.958007812 257.834960938 160.606445312 257.596679688 143.52734375 257.596679688 c 0
 125.038085938 257.596679688 91.7607421875 253.174804688 85.708984375 249.913085938 c 0
 77.421875 245.447265625 69.7265625 249.44921875 69.7265625 258.223632812 c 0
 69.7265625 268.721679688 76.4775390625 277.508789062 85.708984375 279.025390625 c 0
 88.9990234375 279.565429688 91.6630859375 280.318359375 91.6630859375 280.708007812 c 0
 91.6630859375 281.09765625 89.947265625 283.450195312 87.8349609375 285.95703125 c 0
 78.3310546875 297.239257812 79.9111328125 315.555664062 91.193359375 324.879882812 c 0
 98.5361328125 330.950195312 107.48828125 333.690429688 132.088867188 337.399414062 c 0
467.716796875 354.744140625 m 0
 471.211627374 369.047982597 472.969632879 379.61070133 491.063476562 379.715820312 c 0
 507.51593435 379.811743368 511.296945515 373.152956844 518.5625 364.928710938 c 0
 526.891084749 355.498072807 516.217713719 352.136115006 530.235351562 344.234375 c 0
 546.769235139 334.913313124 574.836485419 316.178964221 591.500976562 305.23046875 c 0
 598.368347586 300.716788353 606.047037565 298.22743698 612.654296875 293.713867188 c 0
 615.317382812 291.893554688 618.168945312 290.500976562 619.235351562 290.500976562 c 0
 627.323664676 290.500976562 641.191935631 365.291832987 656.213867188 363.805664062 c 0
 664.124023438 363.022460938 665.942382812 357.564453125 662.98828125 343.461914062 c 0
 658.852539062 323.719726562 654.317382812 309.24609375 646.29296875 290.188476562 c 0
 642.00390625 280.002929688 638.5078125 269.693359375 638.5078125 267.233398438 c 0
 638.5078125 264.569335938 636.926757812 261.313476562 634.590820312 259.1640625 c 0
 632.424804688 257.170898438 626.635742188 249.60546875 621.640625 242.241210938 c 0
 611.971679688 227.982421875 595.372070312 211.453125 587.270507812 208.016601562 c 0
 581.640939679 205.628713417 572.783660735 205.841739144 572.532226562 212 c 0
 571.583900553 235.212173433 600.90234375 236.452090025 600.90234375 257.361328125 c 0
 600.90234375 265.196289062 600.731445312 265.510742188 595.026367188 268.172851562 c 0
 591.76171875 269.696289062 582.8828125 275.48046875 575.048828125 281.186523438 c 0
 553.540872676 296.851339104 529.028010793 310.752713168 508.142578125 324.581054688 c 0
 495.367096462 333.040979441 499.118275389 322.777724705 503.892578125 293.322265625 c 0
 505.54296875 283.13671875 506.45703125 272.862304688 505.926757812 270.4453125 c 0
 504.415039062 263.55078125 500.063476562 256.061523438 497.017578125 255.109375 c 0
 492.31640625 253.640625 486.922851562 255.82421875 485.844726562 259.633789062 c 0
 480.328276743 279.119854757 476.019860231 311.317329173 473.357421875 331.240234375 c 0
 472.515936984 337.560825943 465.592077475 346.052968473 467.716796875 354.744140625 c 0
88.529296875 499.4296875 m 0
 96.990234375 500.854492188 99.9677734375 500.368164062 109.369140625 496.03125 c 0
 137.613576838 483.002200892 153.961153844 450.317991158 157.942382812 414.12890625 c 1
 162.934246928 414.433167917 170.506841163 415.007159716 174.31640625 413.737304688 c 0
 177.435546875 412.697265625 177.841796875 413.032226562 177.841796875 416.635742188 c 0
 177.841796875 422.093990444 185.826989315 438.156430585 187.397460938 442.176757812 c 0
 188.993164062 446.264648438 206.515625 455.024414062 213.096679688 455.024414062 c 0
 232.334805907 455.024414062 246.854577839 441.624220654 226.728515625 429.33203125 c 0
 212.940429688 420.91015625 211.901367188 419.29296875 212.622070312 407.391601562 c 0
 213.372070312 395.012695312 217.572265625 389.215820312 225.7890625 389.215820312 c 0
 233.45135508 389.215820312 253.257127808 382.521788728 248.256835938 371.509765625 c 0
 239.949909006 353.218204181 195.00503317 366.16879175 185.254882812 384.984375 c 0
 182.250976562 390.782226562 179.409179688 392.686523438 179.409179688 388.90234375 c 0
 179.409179688 387.415039062 174.943359375 386.801757812 162.877929688 386.629882812 c 0
 150.342773438 386.452148438 145.381835938 385.750976562 142.3515625 383.731445312 c 0
 139.217773438 381.642578125 137.544921875 381.436523438 134.595703125 382.77734375 c 0
 129.412109375 385.1328125 122.060546875 385.005859375 99.9677734375 382.177734375 c 0
 66.5927734375 377.905273438 62.560546875 376.862304688 56.8984375 371.0390625 c 0
 46.464342494 360.309941245 45.2864224482 368.845703125 33.2177734375 368.845703125 c 0
 23.3271484375 368.845703125 23.0859375 369.159179688 15.6162109375 391.72265625 c 0
 9.3388671875 410.681640625 8.9296875 418.466796875 13.4990234375 431.991210938 c 0
 18.5400390625 446.9140625 23.033203125 453.354492188 39.642578125 469.467773438 c 0
 58.9150390625 488.1640625 73.0439453125 496.823242188 88.529296875 499.4296875 c 0
126.291015625 438.729492188 m 0
 108.238187939 474.83514756 87.7312167018 484.911467001 53.2744140625 451.315429688 c 0
 34.94140625 433.44140625 31.5595703125 425.372070312 36.703125 411.778320312 c 0
 41.1787109375 399.951171875 41.5224609375 399.916015625 87.4326171875 406.545898438 c 0
 109.211914062 409.69140625 128.674804688 412.178710938 130.834960938 412.091796875 c 0
 139.800591826 411.733669039 130.48665755 430.339142156 126.291015625 438.729492188 c 0
437.9453125 447.346679688 m 0
 437.9453125 441.637195488 492.787109375 421.610590873 492.787109375 408.48828125 c 0
 492.787109375 403.735351562 487.302734375 399.869140625 479.625 399.208984375 c 0
 473.846679688 398.712890625 471.3984375 399.517578125 464.504882812 404.1796875 c 0
 453.723740112 411.468672438 426.712034116 424.472091709 415.852539062 431.813476562 c 0
 403.944335938 439.865234375 396.174804688 443.090820312 394.663085938 440.609375 c 0
 391.799804688 435.909179688 392.942382812 423.374023438 396.875976562 416.322265625 c 0
 401.907673119 407.304786964 400.112186167 391.718727471 395.935546875 382.321289062 c 0
 392.850585938 375.379882812 390.546875 361.481445312 390.196289062 347.693359375 c 0
 389.773458708 331.03713491 388.02219629 325.659600954 374.643554688 325.166015625 c 0
 360.698242188 324.65234375 353.541992188 332.475585938 355.470703125 346.125976562 c 0
 356.422851562 352.86328125 356.154296875 353.47265625 349.416015625 359.8359375 c 0
 345.499023438 363.536132812 342.365234375 367.6796875 342.365234375 369.159179688 c 0
 342.365234375 373.081765742 331.236587403 379.945747494 328.577148438 382.791015625 c 1
 323.708849373 380.298178216 308.728529486 373.173271618 305.294921875 378.560546875 c 0
 299.855949943 387.091874287 281.218217251 381.009800878 271.85546875 385.924804688 c 0
 266.37890625 388.799804688 264.569335938 389.017578125 257.518554688 387.6484375 c 0
 243.392896369 384.906672734 229.109029171 398.214273294 236.522460938 412.5625 c 0
 237.87109375 415.173828125 238.951171875 420.396484375 238.951171875 424.313476562 c 0
 238.951171875 428.231445312 239.71484375 433.036132812 240.669921875 435.125 c 0
 245.182617188 444.997070312 265.04296875 444.997070312 274.749023438 435.125 c 0
 279.433037624 430.36250417 289.106889248 425.354144485 289.561523438 417.419921875 c 0
 289.811523438 413.032226562 290.595703125 411.836914062 293.478515625 411.44140625 c 0
 297.944335938 410.830078125 300.622070312 417.106445312 299.706054688 426.037109375 c 0
 298.254882812 440.18359375 304.759765625 445.393554688 319.645507812 442.006835938 c 0
 325.599609375 440.65234375 327.819335938 439.186523438 330.30078125 434.96875 c 0
 332.604492188 431.051757812 334.22265625 429.846679688 336.411132812 430.41796875 c 0
 340.684570312 431.532226562 348.946289062 427.760742188 354.586914062 422.120117188 c 0
 365.815173414 410.894190254 363.876873421 436.377981427 360.412109375 442.489257812 c 0
 359.013671875 444.956054688 358.162109375 451.107421875 358.112304688 459.098632812 c 0
 358.044921875 470.067382812 357.564453125 472.30078125 354.576171875 475.55078125 c 0
 349.677734375 480.87890625 345.499023438 487.514648438 345.499023438 489.966796875 c 0
 345.499023438 491.121865347 354.519741282 506.48889856 353.8359375 507.202148438 c 0
 352.705078125 508.3828125 356.467773438 514.959960938 360.071289062 518.102539062 c 0
 362.375976562 520.111328125 366.025390625 520.833984375 373.860351562 520.833984375 c 0
 392.715501224 520.833984375 412.162456894 530.751509122 431.365234375 524.926757812 c 0
 470.838751726 512.949325499 481.962440509 484.753734557 455.651367188 461.52734375 c 0
 450.215809268 456.728644291 437.9453125 449.857926724 437.9453125 447.346679688 c 0
437.216796875 490.280273438 m 0
 439.58382921 503.082005601 421.234387449 507.417209208 408.801757812 502.302734375 c 0
 398.930664062 498.2421875 395.490234375 495.020507812 393.955078125 488.399414062 c 0
 391.411132812 477.431640625 391.896484375 475.39453125 397.049804688 475.39453125 c 0
 401.789976831 475.39453125 415.071853836 467.057796127 419.142578125 468.34375 c 0
 424.150390625 469.924804688 436.14453125 484.482421875 437.216796875 490.280273438 c 0
79.9111328125 592.359375 m 0
 116.006295831 609.009545614 148.198627119 584.87436832 162.446289062 565.176757812 c 0
 177.394995409 544.514722634 182.696629369 526.111274095 164.209960938 509.079101562 c 0
 151.583984375 497.4453125 138.983398438 497.831054688 104.198242188 510.9140625 c 0
 54.6845703125 529.537109375 42.1787109375 537.397460938 37.55859375 552.798828125 c 0
 33.8275570312 565.231790483 21.5560809675 580.465043375 37.4482421875 589.072265625 c 0
 46.4726237959 593.960146887 49.233455582 586.41936699 50.5458984375 578.809570312 c 0
 51.6533203125 572.384765625 55.625 567.974609375 55.625 573.16796875 c 0
 55.625 576.416015625 70.0400390625 587.807617188 79.9111328125 592.359375 c 0
146.637695312 539.950195312 m 0
 137.116249016 554.866274546 120.378874251 571.154317529 98.0869140625 570.818359375 c 0
 82.8905499702 570.586835822 87.8192974154 570.280368528 73.173828125 567.731445312 c 0
 60.9521484375 565.606445312 57.1396484375 563.077148438 60.3515625 559.22265625 c 0
 64.5102132189 554.23285661 106.571442449 537.640074433 120.963867188 531.819335938 c 0
 128.955078125 528.588867188 144.17578125 525.3984375 147.600585938 526.236328125 c 0
 152.500976562 527.435546875 152.23828125 531.17578125 146.637695312 539.950195312 c 0
393.2890625 679.323242188 m 0
 416.427734375 687.416992188 428.649414062 679.560546875 445.327148438 645.872070312 c 0
 450.6015625 635.216796875 456.3046875 623.271484375 458.080078125 619.15625 c 0
 461.291992188 611.713867188 461.291992188 611.713867188 468.969726562 611.713867188 c 0
 477.587890625 611.713867188 484.952148438 607.381835938 484.952148438 602.3125 c 0
 484.952148438 599.178710938 478.05859375 592.911132812 474.611328125 592.911132812 c 0
 470.512695312 592.911132812 470.97265625 589.93359375 477.12890625 576.615234375 c 0
 484.372070312 560.946289062 484.8046875 556.568359375 479.625 551.388671875 c 0
 475.237304688 547.000976562 469.126953125 546.424804688 461.291992188 549.659179688 c 0
 456.54296875 551.620117188 455.471679688 553.268554688 451.418945312 564.864257812 c 0
 441.779699193 592.436894936 439.385004883 591.219350271 414.833984375 585.782226562 c 0
 399.774400195 582.446226224 397.20703125 576.653665084 397.20703125 560.946289062 c 0
 397.20703125 549.5078125 394.541015625 545.904296875 386.08203125 545.904296875 c 0
 358.383356059 545.904296875 367.533008406 580.473046645 371.587890625 602.3125 c 0
 372.140625 605.290039062 374.2421875 610.303710938 376.185546875 613.280273438 c 0
 384.36328125 625.810546875 386.62890625 649.475585938 380.8671875 662.16796875 c 0
 377.492690964 669.596301255 387.368792906 677.252347012 393.2890625 679.323242188 c 0
427.291015625 622.290039062 m 2
 425.07421875 627.618164062 422.82421875 632.083007812 422.35546875 632.083007812 c 0
 421.875 632.083007812 420.638671875 628.479492188 419.5625 623.935546875 c 0
 416.526150678 611.125706731 421.411064066 611.45078652 431.365234375 612.497070312 c 1
 427.291015625 622.290039062 l 2
0.783203125 623.30859375 m 0
 0.783203125 631.748757213 12.5460576418 636.783960736 22.7197265625 636.63671875 c 0
 33.8876953125 636.474609375 34.6279296875 636.692382812 54.0576171875 645.857421875 c 0
 72.6549579148 654.629613476 94.5700720016 664.436256236 113.208007812 670.47265625 c 0
 117.751953125 671.943359375 121.43359375 673.697265625 121.43359375 674.389648438 c 0
 121.43359375 676.20703125 96.990234375 686.215820312 69.7265625 695.561523438 c 0
 4.86588889904 717.795021493 -21.8459923982 729.362848798 -42.619140625 742.43359375 c 0
 -44.265625 743.475585938 -39.642578125 752.411132812 -36.6650390625 753.942382812 c 0
 -30.4326171875 757.1484375 -23.1904296875 756.255859375 -10.498046875 750.720703125 c 0
 36.9458992199 730.031659698 127.54274674 709.857740982 159.430664062 686.846679688 c 0
 167.892578125 680.739257812 168.440429688 679.952148438 168.440429688 673.918945312 c 0
 168.440429688 655.45276113 152.708724318 654.887107486 137.102539062 650.102539062 c 2
 125.3515625 646.499023438 l 1
 143.210436913 646.337111611 179.468455328 652.022462432 191.473632812 644.545898438 c 0
 198.211914062 640.350585938 201.1015625 630.2734375 196.801757812 625.97265625 c 0
 194.426757812 623.59765625 189.985351562 622.991210938 168.67578125 622.133789062 c 0
 138.561221593 620.920638269 94.8278921885 615.990075161 67.3759765625 613.359375 c 0
 57.03515625 612.368164062 48.353515625 610.922851562 48.083984375 610.146484375 c 0
 45.6357421875 603.095703125 27.681640625 593.188476562 21.1533203125 595.28515625 c 0
 18.1689453125 596.244140625 14.8857421875 602.46875 14.8857421875 607.169921875 c 0
 14.8857421875 609.278320312 13.7890625 610.146484375 11.125 610.146484375 c 0
 6.5693359375 610.146484375 0.783203125 617.51171875 0.783203125 623.30859375 c 0
213.096679688 791.549804688 m 0
 246.824097096 809.225169124 274.731056607 811.615928048 309.930664062 788.099609375 c 0
 319.765926363 781.528365833 331.057425786 754.761434744 324.577148438 742.392578125 c 0
 319.93359375 733.52734375 307.110351562 722.461914062 296.456054688 718.125976562 c 0
 290.932617188 715.877929688 291.127929688 714.146484375 297.239257812 711.198242188 c 0
 310.863787164 704.626576887 320.514230368 698.701840973 338.134765625 689.666015625 c 0
 356.467773438 680.266601562 362.735351562 675.096679688 362.735351562 669.375 c 0
 362.735351562 649.69140625 304.603515625 616.505859375 276.555664062 620.178710938 c 0
 267.311523438 621.389648438 254.504882812 625.67578125 251.755859375 628.479492188 c 0
 249.874023438 630.399414062 249.291992188 630.405273438 247.098632812 628.53125 c 0
 242.2265625 624.3671875 238.637695312 624.173828125 229.392578125 627.577148438 c 0
 218.515625 631.581054688 215.447265625 636.157226562 215.447265625 648.37890625 c 0
 215.447265625 663.839210095 212.386412319 668.33225483 210.032226562 686.924804688 c 0
 203.009765625 742.392578125 203.146484375 741.818359375 193.947265625 754.14453125 c 0
 183.577516019 768.036629038 190.603821549 781.116890361 204.479492188 787.331054688 c 0
 206.69921875 788.325195312 210.43359375 790.153320312 213.096679688 791.549804688 c 0
280.943359375 778.08984375 m 0
 270.443359375 782.994140625 259.633789062 783.357421875 248.822265625 779.16796875 c 0
 237.177734375 774.657226562 235.569335938 771.693359375 237.790039062 758.844726562 c 0
 239.442382812 749.287109375 239.319335938 748.087890625 236.1640625 743.01953125 c 0
 233.3359375 738.475585938 231.248046875 726.096679688 233.309570312 726.096679688 c 0
 252.324768071 726.096679688 281.574268712 737.782330242 289.291992188 745.682617188 c 0
 295.868164062 752.416015625 296.965820312 756.494140625 294.311523438 764.329101562 c 0
 291.559570312 772.448242188 290.344726562 773.69921875 280.943359375 778.08984375 c 0
241.30078125 706.000976562 m 0
 236.147460938 710.02734375 235.274414062 709.64453125 236.389648438 703.846679688 c 0
 236.936523438 701.002929688 238.076171875 693.03515625 238.922851562 686.140625 c 0
 242.556247573 656.55616825 244.176793316 651.611452596 250.702148438 639.604492188 c 1
 267.154296875 640.153320312 l 2
 281.7265625 640.638671875 284.806640625 641.270507812 294.10546875 645.68359375 c 0
 306.954101562 651.78125 322.848632812 662.4453125 324.981445312 666.3984375 c 0
 328.75737849 673.39680361 305.550943286 677.824944869 300.059570312 683.869140625 c 0
 297.842084319 686.305323632 287.377112146 689.606069926 284.233398438 691.78515625 c 0
 277.473632812 696.469726562 264.9609375 700.7890625 254.776367188 701.953125 c 0
 249.135742188 702.59765625 243.484375 704.295898438 241.30078125 706.000976562 c 0
EndSplineSet
Validated: 524321
EndChar

StartChar: S
Encoding: 83 83 20
Width: 917
Flags: HW
LayerCount: 2
Back
Fore
SplineSet
366.211914062 769.169921875 m 0
 439.461959466 793.437613888 495.46668053 800.581728352 589.013671875 792.20703125 c 0
 637.94140625 787.827148438 657.536132812 784.514648438 671.666015625 778.235351562 c 0
 676.641601562 776.0234375 682.9296875 774.303710938 686.040039062 774.303710938 c 0
 693.073242188 774.303710938 744.642578125 757.404296875 761.228515625 749.6640625 c 0
 778.090820312 741.795898438 791.44140625 732.31640625 791.545898438 728.139648438 c 0
 791.59375 726.205078125 792.784179688 724.546875 794.123046875 724.546875 c 0
 798.948242188 724.546875 821.486328125 687.504882812 827.424804688 669.813476562 c 0
 838.83984375 635.8125 840.575195312 586.997070312 831.31640625 560.34765625 c 0
 829.299804688 554.54296875 827.571289062 546.25 827.571289062 542.379882812 c 0
 827.571289062 532.880868249 809.268009756 508.25726653 806.928710938 500.639648438 c 0
 803.534179688 489.58203125 786.744140625 465.672851562 776.431640625 457.211914062 c 0
 766.539522114 449.093415012 753.83267852 427.129285601 741.740234375 422.825195312 c 0
 737.317382812 421.250976562 733.5859375 418.784179688 733.5859375 417.434570312 c 0
 733.5859375 415.983398438 732.203125 414.946289062 730.268554688 414.946289062 c 0
 724.740234375 414.946289062 703.178710938 403.505859375 703.178710938 400.572265625 c 0
 703.178710938 399.053710938 711.930664062 388.961914062 722.59765625 378.181640625 c 0
 748.202148438 352.302734375 757.049804688 338.65234375 765.416015625 312.115234375 c 0
 776.799804688 276.008789062 774.157226562 241.073242188 757.241210938 204.032226562 c 0
 753.327148438 195.462890625 750.170898438 187.811523438 750.170898438 186.893554688 c 0
 750.170898438 183.659179688 734.89453125 161.73828125 725.126953125 150.958007812 c 0
 683.303710938 104.793945312 654.681640625 79.66015625 639.599609375 75.8544921875 c 0
 636.449398407 75.0596622642 565.978146036 41.7685546875 563.029296875 41.7685546875 c 0
 562.279296875 41.7685546875 553.4921875 37.9755859375 543.817382812 33.4755859375 c 0
 534.025390625 28.9208984375 510.784179688 21.3193359375 492.263671875 16.61328125 c 0
 473.743164062 11.9072265625 456.046875 6.611328125 453.010742188 4.865234375 c 0
 449.740234375 2.984375 433.9375 1.654296875 414.310546875 1.6083984375 c 0
 378.098632812 1.5244140625 322.181640625 -4.259765625 317.0078125 -8.4560546875 c 0
 312.0078125 -12.51171875 259.510742188 -14.1923828125 230.486328125 -11.2255859375 c 0
 216.111328125 -9.7568359375 195.466796875 -5.9765625 184.875 -2.875 c 0
 164.851293189 2.989357652 158.577123084 -0.607797140198 146.728515625 8.7353515625 c 0
 141.428710938 12.9130859375 130.971679688 15.51171875 106.922851562 18.6279296875 c 0
 73.474609375 22.9609375 69.48046875 24.4443359375 42.5146484375 42.544921875 c 0
 12.599609375 62.6240234375 -13.392578125 105.346679688 -18.734375 143.217773438 c 0
 -21.5927734375 163.475585938 -21.3271484375 167.819335938 -15.9501953125 188.828125 c 0
 -12.6953125 201.543945312 -10.0068359375 214.298828125 -10.0068359375 217.0234375 c 0
 -10.0068359375 223.436523438 2.9052734375 252.959960938 11.271484375 265.67578125 c 0
 14.7431640625 270.952148438 25.8193359375 283.643554688 35.638671875 293.594726562 c 0
 54.7490234375 312.9609375 66.8408203125 319.079101562 104.434570312 328.404296875 c 0
 128.760742188 334.4375 128.939453125 334.65234375 120.375 347.498046875 c 0
 110.974708046 361.599617098 102.027592499 369.50484761 96.6943359375 387.02734375 c 0
 94.591796875 393.938476562 90.9912109375 404.16015625 88.80859375 409.41796875 c 0
 75.4495051652 441.600937766 79.8444410006 487.651560977 83.900390625 523.030273438 c 0
 86.81640625 548.461914062 97.712890625 573.28125 114.846679688 593.51953125 c 0
 126.395507812 607.161132812 135.556640625 618.12109375 157.131835938 644.10546875 c 0
 171.191291251 661.038546567 186.622153806 669.317935059 202.842773438 684.479492188 c 0
 214.176757812 695.0703125 246.2421875 716.25390625 250.94140625 716.25390625 c 0
 253.40625 716.25390625 282.454101562 734.971679688 289.91796875 741.369140625 c 0
 292.998046875 744.008789062 304.015625 748.862304688 314.796875 752.327148438 c 0
 325.47265625 755.758789062 348.520507812 763.309570312 366.211914062 769.169921875 c 0
592.883789062 762.1328125 m 0
 536.215820312 767.17578125 504.872070312 766.354492188 462.685546875 758.719726562 c 0
 412.036095357 749.552463692 425.214601948 753.640779188 376.440429688 737.26171875 c 0
 355.708007812 730.30078125 336.818359375 724.546875 334.69921875 724.546875 c 0
 332.571289062 724.546875 325.853515625 720.939453125 319.772460938 716.530273438 c 0
 313.609375 712.061523438 301.251953125 704.659179688 291.853515625 699.805664062 c 0
 282.454101562 694.953125 273.583984375 689.32421875 271.8125 687.090820312 c 0
 270.05859375 684.87890625 267.270507812 683.08203125 265.592773438 683.08203125 c 0
 258.169921875 683.08203125 222.0625 655.439453125 200.23828125 633.048828125 c 0
 171.138671875 603.194335938 153.0859375 583.297851562 153.0859375 581.080078125 c 0
 153.0859375 579.752929688 151.151367188 577.8828125 148.939453125 577.072265625 c 0
 146.426757812 576.150390625 144.79296875 571.958007812 144.79296875 566.4296875 c 0
 144.79296875 561.367037862 135.400750121 512.900734863 137.8828125 508.932617188 c 0
 138.642578125 507.715820312 140.383789062 491.793945312 141.752929688 473.549804688 c 0
 143.970703125 443.971679688 145.168945312 438.74609375 152.809570312 425.3125 c 0
 157.526367188 417.01953125 161.37890625 408.755859375 161.37890625 406.930664062 c 0
 161.37890625 401.633789062 178.047851562 378.734375 193.373046875 362.978515625 c 0
 207.98828125 347.951171875 239.055664062 331.91796875 261.446289062 327.846679688 c 0
 267.250976562 326.791015625 272.630859375 324.823242188 273.470703125 323.44921875 c 0
 274.291992188 322.104492188 277.340820312 320.9609375 280.104492188 320.9609375 c 0
 282.909179688 320.9609375 289.088867188 317.70703125 293.788085938 313.754882812 c 0
 303.150390625 305.881835938 305.204101562 292.765625 298.848632812 281.431640625 c 0
 293.767578125 272.369140625 291.0234375 271.161132812 278.861328125 272.631835938 c 0
 252.278286172 275.842805707 222.178428445 278.247345354 203.119140625 285.205078125 c 0
 185.346090652 291.694579924 166.43509535 291.422894155 148.939453125 297.336914062 c 0
 134.841796875 302.104492188 111.258789062 299.485351562 98.6298828125 291.750976562 c 0
 66.0107421875 271.774414062 63.955078125 269.815429688 48.04296875 243.561523438 c 0
 30.6234182646 214.817361129 29.3949026918 203.138364934 46.24609375 168.510742188 c 0
 57.0078125 146.396484375 61.4580078125 140.469726562 77.068359375 127.4609375 c 0
 87.01953125 119.16796875 99.14453125 110.12109375 103.743164062 107.55859375 c 0
 108.442382812 104.939453125 114.744140625 100.599609375 117.979492188 97.7529296875 c 0
 141.237580898 77.2984091529 160.375552483 73.1735690727 193.16796875 59.8740234375 c 0
 219.686504532 49.121213674 257.560377093 42.4530577671 284.250976562 34.7197265625 c 0
 302.039553253 29.5645281283 308.021711882 36.310641984 322.537109375 29.466796875 c 0
 331.473632812 25.25390625 334.561523438 25.232421875 363.033203125 29.1904296875 c 0
 379.895507812 31.53515625 403.495117188 33.4755859375 415.140625 33.4755859375 c 0
 431.434570312 33.4755859375 445.823242188 36.076171875 476.506835938 44.5673828125 c 0
 525.817382812 58.212890625 522.39453125 56.8564453125 586.525390625 88.1640625 c 0
 644.576171875 116.501953125 657.233398438 125.872070312 687.787109375 163.120117188 c 0
 705.450195312 184.654296875 726.282226562 226.69921875 730.51953125 249.366210938 c 0
 733.05078125 262.911132812 732.796875 264.651367188 727.780273438 268.163085938 c 0
 724.764648438 270.274414062 716.708984375 280.326171875 710.057617188 290.27734375 c 0
 695.091796875 312.66796875 677.481445312 330.327148438 661.4375 339.032226562 c 0
 609.469726562 367.23046875 589.065429688 374.966796875 540.0859375 385.046875 c 0
 493.658670723 394.602598444 493.486891623 395.438948117 480.9296875 412.182617188 c 1
 491.304499219 422.557428906 489.011150614 424.746235308 517.418945312 423.930664062 c 0
 530.653320312 423.549804688 559.98828125 421.833984375 582.655273438 420.114257812 c 0
 623.567382812 417.009765625 649.622070312 417.93359375 662.267578125 422.935546875 c 0
 665.749023438 424.313476562 673.876953125 426.997070312 680.235351562 428.869140625 c 0
 693.227539062 432.6953125 732.998046875 463.069335938 740.546875 474.931640625 c 0
 743.185546875 479.078125 748.65234375 485.879882812 752.322265625 489.58203125 c 0
 763.686523438 501.045898438 780.33984375 529.6640625 783.20703125 542.65625 c 0
 784.671875 549.291015625 787.845703125 559.428710938 790.391601562 565.600585938 c 0
 793.6171875 573.418945312 795.358398438 587.991210938 796.338867188 615.357421875 c 0
 797.962890625 660.69140625 794.545898438 674.534179688 774.845703125 702.432617188 c 0
 761.766601562 720.953125 750.448242188 730.423828125 731.926757812 738.341796875 c 0
 720.870117188 743.069335938 717.576171875 743.40234375 709.8125 740.579101562 c 0
 701.668945312 737.618164062 697.235351562 738.389648438 668.486328125 747.766601562 c 0
 641.616210938 756.53125 629.095703125 758.91015625 592.883789062 762.1328125 c 0
EndSplineSet
Validated: 524321
EndChar

StartChar: V
Encoding: 86 86 21
Width: 841
Flags: HW
LayerCount: 2
Fore
SplineSet
1 762 m 1
 88 771 139 764 199 761 c 1
 251 593 343 444 413 286 c 1
 470 444 536 602 551 775 c 1
 623 778 701 775 761 791 c 1
 598 357 613 269 496 7 c 1
 320 11 l 1
 210 250 92 469 1 762 c 1
EndSplineSet
Validated: 33
EndChar

StartChar: W
Encoding: 87 87 22
Width: 914
Flags: HW
LayerCount: 2
Back
Fore
SplineSet
350.240234375 367.290039062 m 0
 350.240234375 364.294325265 358.81640625 347.823533623 358.81640625 345.163085938 c 0
 358.81640625 344.024414062 360.658203125 339.502929688 362.9375 335.04296875 c 0
 371.794526809 317.719552559 376.471804198 301.220424156 385.786132812 290.274414062 c 0
 387.211751157 288.599859936 418.39740303 246.087380159 420.39453125 244.875976562 c 0
 423.662109375 242.89453125 438.56640625 219.60546875 444.471679688 207.255859375 c 0
 456.1171875 182.8984375 459.065429688 173.401367188 459.37890625 159.228515625 c 0
 459.660385022 146.421231489 462.201294392 146.825742654 460.017578125 139.587890625 c 0
 457.845097417 132.393129161 454.493946889 115.025035461 451.09765625 108.798828125 c 0
 449.4140625 105.711914062 448.010742188 102.125 448.010742188 100.909179688 c 0
 448.010742188 94.4244624033 421.250210492 45.5076080795 421.251953125 45.505859375 c 0
 423.138671875 43.619140625 670.995117188 40.8955078125 670.995117188 42.76171875 c 0
 670.995117188 43.71484375 668.896484375 47.2216796875 666.272460938 50.6513671875 c 0
 650.777603901 70.916573541 642.456726582 86.9448392192 638.999023438 117.890625 c 0
 637.670970721 129.796879513 634.251450295 143.864550613 634.630859375 159.056640625 c 0
 634.8203125 166.603515625 634.202148438 178.567382812 633.258789062 185.643554688 c 0
 632.30859375 192.774414062 631.23828125 245.677734375 630.857421875 304.33984375 c 0
 630.325006653 386.468340088 628.935026187 401.961056391 627.255859375 431.09765625 c 0
 624.228372029 483.539184466 623.636568261 572.714083452 631.5 618.748046875 c 0
 634.749023438 637.771484375 633.361328125 670.206054688 627.977539062 701.081054688 c 0
 626.834960938 707.629882812 625.810546875 719.090820312 625.72265625 726.294921875 c 0
 625.55078125 740.360351562 624.899414062 741.538085938 614.390625 746.791992188 c 0
 608.022410285 749.977400774 600.786031675 756.00254105 593.63671875 759.001953125 c 0
 579.056640625 765.118164062 574.25390625 775.84765625 584.03125 780.4609375 c 0
 590.986552437 783.743814388 597.552096193 775.251541076 604.099609375 778.524414062 c 0
 610.62890625 781.790039062 637.375976562 781.861328125 671.680664062 778.706054688 c 0
 695.008789062 776.560546875 704.694335938 776.31640625 711.303710938 777.708007812 c 0
 722.28125 780.018554688 741.669921875 780.92578125 743.893554688 779.231445312 c 0
 747.787298114 776.264586613 761.282006421 775.243920484 752.298828125 766.260742188 c 0
 748.290155219 762.253824392 752.946846496 758.541992188 757.015625 758.541992188 c 0
 760.934822182 758.541992188 766.112906048 752.789437702 768.764648438 750.137695312 c 1
 764.617508172 742.25553094 761.735728891 738.787172364 763.018554688 725.952148438 c 0
 763.74576408 718.688096324 771.252723945 703.07386473 765.334960938 699.400390625 c 0
 764.298828125 698.7578125 763.7890625 690.7890625 764.047851562 679.296875 c 2
 764.4765625 660.256835938 l 1
 771.410571746 654.660038224 779.251328285 649.647181686 772.653320312 638.81640625 c 0
 769.844726562 634.20703125 769.62890625 625.609375 769.708007812 521.6640625 c 0
 769.798528995 404.851095055 773.494576493 399.350449299 772.567382812 312.573242188 c 0
 771.110104013 176.339513792 770.937028005 217.244322387 775.540039062 159.056640625 c 0
 776.436523438 147.736328125 777.672851562 136.775390625 778.287109375 134.700195312 c 0
 779.78125 129.65234375 775.874023438 102.453125 772.817382812 96.62109375 c 0
 771.559570312 94.2197265625 770.48046875 90.3408203125 770.48046875 88.2158203125 c 0
 770.48046875 78.8685528179 795.269794971 64.8073217893 802.383789062 54.9404296875 c 0
 810.728739993 43.3649571578 817.479541884 52.3113357767 826.741210938 42.76171875 c 0
 832.851716752 36.4598859429 832.631489634 34.240737545 834.731445312 25.9521484375 c 0
 837.911950756 13.4045676513 795.497587834 10.1843115518 784.374023438 15.74609375 c 0
 777.115234375 19.375 775.454101562 19.447265625 679.743164062 20.2890625 c 0
 531.543945312 21.5927734375 522.313476562 21.7509765625 500.840820312 23.3603515625 c 0
 458.245825297 26.5503400957 482.034657666 21.1302883766 465.275390625 4.16796875 c 0
 462.594726562 1.455078125 459.450195312 -4.236328125 458.357421875 -8.353515625 c 0
 448.70703125 -44.716796875 446.294921875 -57.2041015625 446.294921875 -70.7890625 c 0
 446.294921875 -78.412109375 445.571289062 -91.3720703125 444.665039062 -99.9482421875 c 0
 443.270615619 -113.158411207 450.687168624 -133.598337161 438.918945312 -142.315429688 c 0
 435.55078125 -144.810546875 434.288085938 -147.290039062 434.288085938 -151.40625 c 0
 434.288085938 -157.924804688 429.155273438 -163.41796875 424.510742188 -161.870117188 c 0
 418.927961173 -160.007014932 409.55796845 -145.322807544 405.249023438 -140.771484375 c 0
 394.653569159 -129.581498715 392.692308278 -107.563929005 386.603515625 -89.6572265625 c 0
 380.908655047 -72.9064345049 383.311495024 -63.7249313389 375.000976562 -45.0595703125 c 0
 373.755859375 -42.263671875 371.16015625 -36.3125 369.315429688 -32.0244140625 c 0
 365.182617188 -22.4189453125 350.202148438 -8.57421875 342.349609375 -7.1044921875 c 0
 335.912109375 -5.900390625 327.94140625 4.5107421875 327.94140625 11.71484375 c 0
 327.94140625 15.9267578125 327.598632812 16.1103515625 321.766601562 15.015625 c 0
 300.623046875 11.044921875 279.743164062 8.9072265625 252.984375 7.9755859375 c 0
 212.60825111 6.5705259125 207.458029059 2.7527532949 168.25 1.0810546875 c 0
 127.251360723 -0.670521441196 130.123935986 6.22525750754 92.435546875 4.5107421875 c 0
 79.9140625 3.9423828125 62.1279296875 4.287109375 52.6416015625 5.283203125 c 2
 35.4892578125 7.083984375 l 1
 27.341796875 16.1748046875 l 2
 22.8828125 21.1494140625 19.193359375 26.1982421875 19.193359375 27.32421875 c 0
 19.193359375 28.4326171875 18.2041015625 30.412109375 17.0498046875 31.6123046875 c 0
 15.458984375 33.2666015625 14.8173828125 46.0205078125 14.5625 81.01171875 c 0
 14.3740234375 106.912109375 13.1513671875 140.943359375 11.849609375 156.483398438 c 0
 9.279296875 187.186523438 9.3994140625 209.731445312 12.21875 225.952148438 c 0
 17.2109375 254.672851562 19.0341796875 318.918945312 15.72265625 349.451171875 c 0
 11.4247734907 389.059554567 5.31901676552 441.920537822 1.95703125 481.526367188 c 0
 -0.328125 508.456054688 -3.2041015625 534.092773438 -4.6796875 540.703125 c 0
 -6.74263051511 549.931061785 -3.28977397972 552.173608207 -3.1904296875 562.14453125 c 0
 -3.12988606707 568.221133807 1.23165259195 580.611891979 -0.9912109375 584.271484375 c 0
 -2.150390625 586.180664062 -1.927734375 592.161132812 -0.3466796875 601.594726562 c 0
 0.69140625 607.787109375 1.2763671875 655.111328125 0.59765625 677.924804688 c 0
 -0.415385577349 711.949037096 -7.14694391282 709.879779743 -23.087890625 725.5234375 c 0
 -28.0615234375 730.404296875 -33.3642578125 734.528320312 -34.6650390625 734.528320312 c 0
 -38.693359375 734.528320312 -39.4189453125 737.787109375 -36.6513671875 743.447265625 c 0
 -31.0810694848 754.842341636 -40.1679518891 745.966891854 -46.5009765625 748.079101562 c 0
 -49.279296875 749.004882812 -49.33984375 749.451171875 -47.1015625 752.5390625 c 0
 -44.857421875 755.6328125 -41.7841796875 756.078125 -15.7119140625 757.083984375 c 0
 25.2141411442 758.662399727 15.8934859243 761.97265625 59.845703125 761.97265625 c 2
 92.7783203125 761.97265625 l 1
 97.1124786258 758.172577654 105.511746202 752.050784121 104.442382812 746.70703125 c 0
 103.063960233 739.817192977 114.384621168 725.896746885 117.135742188 719.43359375 c 0
 126.940929889 696.391654973 132.35024524 677.863307266 135.124023438 637.444335938 c 0
 136.736328125 613.9453125 139.530273438 591.126953125 141.823242188 582.727539062 c 0
 146.084960938 567.118164062 147.984375 521.538085938 144.790039062 511.543945312 c 0
 139.959960938 496.428710938 137.2421875 466.260742188 136.21484375 416.346679688 c 0
 134.370035154 326.773140856 134.855579754 333.469533992 139.51953125 286.84375 c 0
 140.514648438 276.895507812 142.126953125 267.14453125 143.122070312 265.059570312 c 0
 144.086914062 263.038085938 144.325195312 259.056640625 143.63671875 256.483398438 c 0
 141.885921788 249.95549619 141.124611329 204.58184717 139.51953125 198.165039062 c 0
 136.990373808 188.048409293 139.609513657 174.952865093 136.278320312 165.403320312 c 0
 131.421280237 151.479897496 136.907491883 117.912282711 138.250976562 99.8798828125 c 0
 139.30078125 85.814453125 150.689453125 51.8525390625 154.356445312 51.8525390625 c 0
 155.020507812 51.8525390625 157.446289062 48.25 159.78515625 43.791015625 c 0
 166.081054688 31.7841796875 174.236328125 24.373046875 180.0859375 25.34375 c 0
 191.752929688 27.2783203125 223.825195312 29.5537109375 239.43359375 29.5537109375 c 0
 258.131835938 29.5537109375 288.662109375 32.69921875 322.795898438 38.1416015625 c 0
 334.630859375 40.029296875 350.153320312 41.5224609375 357.444335938 41.4755859375 c 0
 371.589673272 41.383546329 373.411869247 39.9082371711 375.283203125 49.7939453125 c 0
 375.9296875 53.2119140625 378.422851562 59.228515625 380.686523438 62.830078125 c 0
 385.003505248 69.7039339429 386.336361768 100.232915714 384.458007812 112.744140625 c 0
 383.169921875 121.3203125 361.903320312 173.90625 357.681640625 178.954101562 c 0
 356.390625 180.497070312 355.385742188 182.373046875 355.385742188 183.2421875 c 0
 355.385742188 184.099609375 352.879882812 190.9609375 349.74609375 198.6796875 c 0
 331.936005721 242.55540797 318.59548353 250.666672933 290.1484375 289.759765625 c 0
 284.532226562 297.478515625 279.140625 304.303710938 278.19921875 304.885742188 c 0
 276.483398438 305.9453125 261.045898438 329.228515625 261.045898438 330.754882812 c 0
 261.045898438 331.231445312 257.896484375 337.1015625 253.958984375 343.961914062 c 0
 224.817589824 394.737846889 225.103158903 394.9053859 217.307617188 449.793945312 c 0
 208.107577874 514.584788214 229.90423811 561.902425883 248.353515625 609.9140625 c 0
 255.658020908 628.930964186 262.189958015 637.770339504 269.537109375 655.454101562 c 0
 272.31640625 662.14453125 276.568359375 670.22265625 278.970703125 673.37890625 c 0
 281.321289062 676.466796875 283.344726562 680.395507812 283.344726562 681.870117188 c 0
 283.344726562 693.155597379 308.104867738 726.562790393 313.190429688 730.565429688 c 0
 315.334960938 732.252929688 319.131835938 737.272460938 321.508789062 741.560546875 c 0
 329.96875 756.827148438 335.15625 764.537109375 341.586914062 771.40625 c 0
 349.815699088 780.194537821 353.219277605 799.64566582 369.623046875 797.43359375 c 0
 378.19921875 796.276367188 384.545898438 790.459960938 384.545898438 783.756835938 c 0
 384.545898438 780.840820312 385.771484375 777.235351562 387.375976562 775.4375 c 0
 391.688895006 770.600927399 383.142669716 725.402139215 381.286132812 722.178710938 c 0
 379.494140625 719.065429688 377.487304688 711.88671875 376.827148438 706.2265625 c 0
 375.416916271 694.151348377 364.073544709 677.167605767 360.53125 667.6328125 c 0
 359.305664062 664.331054688 354.662109375 653.911132812 350.213867188 644.4765625 c 0
 336.410855531 615.206807511 335.040659181 599.360333543 327.634765625 567.290039062 c 0
 316.908287568 520.861336022 327.628255067 505.285470993 330.641601562 459.228515625 c 0
 332.7734375 426.637695312 336.620117188 400.275390625 339.901367188 395.763671875 c 0
 342.077802343 392.772593394 345.788981028 376.63550247 347.924804688 373.55078125 c 0
 349.23046875 371.6640625 350.240234375 368.934570312 350.240234375 367.290039062 c 0
EndSplineSet
Validated: 524321
EndChar

